<svg width="300" height="46" viewBox="0 0 300 46" fill="none" xmlns="http://www.w3.org/2000/svg">
<path d="M0.42 45L29.28 0.599999H31.98L3.12 45H0.42ZM44.8341 45L73.6941 0.599999H76.3941L47.5341 45H44.8341ZM124.708 45H85.3481L105.028 2.34L124.708 45ZM88.8281 42.78H121.228L105.028 7.62L88.8281 42.78ZM152.382 3.24C155.022 3.24 157.122 3.64 158.682 4.44C160.562 5.4 162.002 6.72 163.002 8.4C164.042 10.08 164.562 11.96 164.562 14.04C164.562 16 164.042 17.82 163.002 19.5C161.962 21.14 160.542 22.44 158.742 23.4C160.902 24.16 162.722 25.48 164.202 27.36C165.682 29.24 166.422 31.36 166.422 33.72C166.422 35.8 165.882 37.72 164.802 39.48C163.762 41.2 162.362 42.56 160.602 43.56C159.722 44.04 158.742 44.4 157.662 44.64C156.582 44.88 155.142 45 153.342 45H134.862V3.24H152.382ZM193.856 2.34C196.976 2.34 199.856 3.12 202.496 4.68C205.136 6.2 207.216 8.28 208.736 10.92C210.296 13.56 211.076 16.44 211.076 19.56V28.68C211.076 31.8 210.296 34.68 208.736 37.32C207.216 39.96 205.136 42.06 202.496 43.62C199.856 45.14 196.976 45.9 193.856 45.9C190.736 45.9 187.856 45.14 185.216 43.62C182.576 42.06 180.476 39.96 178.916 37.32C177.396 34.68 176.636 31.8 176.636 28.68V19.56C176.636 16.44 177.396 13.56 178.916 10.92C180.476 8.28 182.576 6.2 185.216 4.68C187.856 3.12 190.736 2.34 193.856 2.34ZM178.856 28.68C178.856 31.4 179.516 33.92 180.836 36.24C182.196 38.52 184.016 40.34 186.296 41.7C188.616 43.02 191.136 43.68 193.856 43.68C196.576 43.68 199.076 43.02 201.356 41.7C203.676 40.34 205.496 38.52 206.816 36.24C208.176 33.92 208.856 31.4 208.856 28.68V19.56C208.856 16.84 208.176 14.34 206.816 12.06C205.496 9.74 203.676 7.92 201.356 6.6C199.076 5.24 196.576 4.56 193.856 4.56C191.136 4.56 188.616 5.24 186.296 6.6C184.016 7.92 182.196 9.74 180.836 12.06C179.516 14.34 178.856 16.84 178.856 19.56V28.68ZM221.41 3.24H223.63V29.04C223.63 31.68 224.29 34.12 225.61 36.36C226.93 38.6 228.71 40.38 230.95 41.7C233.19 43.02 235.63 43.68 238.27 43.68C240.91 43.68 243.35 43.02 245.59 41.7C247.83 40.38 249.61 38.6 250.93 36.36C252.25 34.12 252.91 31.68 252.91 29.04V3.24H255.13V29.04C255.13 32.08 254.37 34.9 252.85 37.5C251.33 40.06 249.27 42.1 246.67 43.62C244.11 45.14 241.31 45.9 238.27 45.9C235.23 45.9 232.41 45.14 229.81 43.62C227.25 42.1 225.21 40.06 223.69 37.5C222.17 34.9 221.41 32.08 221.41 29.04V3.24ZM281.604 45V13.8H265.824V3.24H299.544V13.8H283.764V45H281.604Z" fill="black"/>
</svg>
