<svg width="79" height="77" viewBox="0 0 79 77" fill="none" xmlns="http://www.w3.org/2000/svg">
<path d="M46.794 76.203C46.536 76.031 46.278 75.988 46.02 76.074C45.762 76.074 45.504 76.117 45.246 76.203H44.343C43.999 76.031 43.741 75.988 43.569 76.074C43.053 76.16 42.537 76.16 42.021 76.074C41.505 75.902 40.989 75.773 40.473 75.687C39.269 75.257 38.452 74.569 38.022 73.623C37.42 72.677 36.99 71.731 36.732 70.785C36.56 69.839 36.388 68.85 36.216 67.818C36.13 66.528 36.087 65.281 36.087 64.077C36.087 62.787 36.13 61.54 36.216 60.336L36.603 56.466C36.689 56.294 36.732 55.993 36.732 55.563C36.646 54.617 36.646 53.714 36.732 52.854C36.732 52.854 36.689 52.854 36.603 52.854C36.603 52.854 36.603 52.811 36.603 52.725H36.474C36.388 52.811 36.259 52.94 36.087 53.112C35.915 53.198 35.743 53.327 35.571 53.499C34.883 54.015 34.152 54.574 33.378 55.176C32.69 55.692 32.002 56.251 31.314 56.853L30.669 57.498C29.981 57.928 29.336 58.444 28.734 59.046C28.132 59.648 27.487 60.25 26.799 60.852C26.369 61.368 25.853 61.798 25.251 62.142C24.735 62.486 24.219 62.873 23.703 63.303C23.617 63.389 23.488 63.475 23.316 63.561C23.23 63.647 23.144 63.733 23.058 63.819C22.886 63.905 22.714 63.991 22.542 64.077C22.37 64.077 22.198 64.077 22.026 64.077C21.424 63.991 20.822 63.905 20.22 63.819C19.704 63.733 19.188 63.561 18.672 63.303C18.242 63.131 17.898 63.174 17.64 63.432C17.296 63.776 16.909 63.776 16.479 63.432L15.834 62.658C15.662 62.486 15.662 62.314 15.834 62.142C15.92 61.97 15.963 61.884 15.963 61.884C16.049 61.798 16.092 61.712 16.092 61.626C16.264 61.454 16.264 61.239 16.092 60.981C16.006 60.723 15.834 60.594 15.576 60.594H14.931C14.071 60.422 13.813 59.949 14.157 59.175C14.157 59.003 14.2 58.874 14.286 58.788C14.372 58.702 14.458 58.616 14.544 58.53C14.888 58.014 15.06 57.627 15.06 57.369C15.06 57.111 15.146 56.724 15.318 56.208C15.49 55.434 15.748 54.875 16.092 54.531C16.436 54.359 16.608 54.101 16.608 53.757C16.866 52.983 17.382 52.553 18.156 52.467C18.414 52.381 18.629 52.252 18.801 52.08C19.059 51.908 19.317 51.736 19.575 51.564C20.177 50.962 20.779 50.403 21.381 49.887C22.069 49.371 22.714 48.812 23.316 48.21C23.918 47.608 24.305 47.135 24.477 46.791C24.821 46.275 25.165 45.974 25.509 45.888C25.767 45.716 26.025 45.501 26.283 45.243C26.541 44.985 26.756 44.77 26.928 44.598C27.53 44.082 28.089 43.566 28.605 43.05C29.121 42.448 29.68 41.975 30.282 41.631C30.454 41.459 30.626 41.287 30.798 41.115C30.97 40.943 31.142 40.814 31.314 40.728C31.658 40.47 31.959 40.212 32.217 39.954C32.561 39.696 32.905 39.395 33.249 39.051V38.922C33.249 38.922 33.163 38.836 32.991 38.664C32.647 38.492 32.346 38.535 32.088 38.793C31.83 38.879 31.572 38.965 31.314 39.051C31.056 39.051 30.798 39.051 30.54 39.051C30.196 38.965 29.852 38.922 29.508 38.922C29.25 38.922 28.992 38.922 28.734 38.922C27.702 38.922 26.799 38.664 26.025 38.148C25.767 37.89 25.423 37.761 24.993 37.761C24.305 37.675 23.617 37.589 22.929 37.503C22.327 37.417 21.682 37.331 20.994 37.245C20.736 37.245 20.435 37.245 20.091 37.245C19.833 37.245 19.575 37.202 19.317 37.116C18.887 37.03 18.457 36.987 18.027 36.987C17.597 36.901 17.167 36.901 16.737 36.987C16.565 36.987 16.393 37.03 16.221 37.116C16.135 37.116 16.006 37.073 15.834 36.987C15.49 36.815 15.103 36.772 14.673 36.858C14.243 36.858 13.813 36.815 13.383 36.729C13.297 36.729 13.211 36.772 13.125 36.858C13.039 36.858 12.91 36.858 12.738 36.858C12.652 36.858 12.437 36.772 12.093 36.6C11.835 36.342 11.491 36.213 11.061 36.213C10.803 36.213 10.545 36.213 10.287 36.213C10.029 36.213 9.728 36.17 9.384 36.084C8.868 36.084 8.352 36.084 7.836 36.084C7.32 35.998 6.804 35.912 6.288 35.826C5.084 35.654 4.138 35.224 3.45 34.536C3.192 34.278 3.063 34.106 3.063 34.02C2.805 33.418 2.461 33.031 2.031 32.859C1.945 32.773 1.859 32.687 1.773 32.601C1.687 32.515 1.601 32.429 1.515 32.343C1.085 31.483 0.87 30.623 0.87 29.763C0.87 29.075 0.956 28.387 1.128 27.699C1.3 27.011 1.472 26.366 1.644 25.764C1.988 24.732 2.719 24.087 3.837 23.829C4.095 23.657 4.353 23.571 4.611 23.571C4.955 23.571 5.299 23.571 5.643 23.571C6.245 23.571 6.847 23.571 7.449 23.571C8.051 23.571 8.653 23.614 9.255 23.7C9.857 23.786 10.416 23.872 10.932 23.958C11.534 23.958 12.136 24.001 12.738 24.087C13.684 24.173 14.63 24.259 15.576 24.345C16.522 24.345 17.425 24.431 18.285 24.603C19.403 24.775 20.478 24.947 21.51 25.119C22.542 25.205 23.574 25.334 24.606 25.506H24.735V25.248C24.563 25.076 24.391 24.904 24.219 24.732C24.047 24.474 23.875 24.302 23.703 24.216C23.187 23.786 22.671 23.356 22.155 22.926C21.725 22.496 21.295 22.066 20.865 21.636L18.156 19.185C17.124 18.411 16.092 17.422 15.06 16.218C14.716 15.874 14.372 15.53 14.028 15.186C13.77 14.842 13.512 14.498 13.254 14.154C13.168 14.068 13.082 13.982 12.996 13.896C12.91 13.81 12.781 13.724 12.609 13.638L11.448 12.735C10.416 11.875 9.857 10.886 9.771 9.768C9.771 9.59599 9.685 9.33799 9.513 8.994C9.341 8.478 9.384 8.04799 9.642 7.70399C9.814 7.53199 9.857 7.35999 9.771 7.18799C9.771 6.92999 9.771 6.71499 9.771 6.54299C9.685 6.37099 9.685 6.199 9.771 6.027C9.857 5.855 9.943 5.683 10.029 5.511C10.287 4.99499 10.588 4.52199 10.932 4.09199C11.362 3.66199 11.792 3.27499 12.222 2.93099C12.48 2.673 12.824 2.501 13.254 2.41499C13.684 2.32899 14.114 2.28599 14.544 2.28599C14.974 2.19999 15.404 2.24299 15.834 2.41499C16.006 2.501 16.178 2.544 16.35 2.544C16.522 2.45799 16.694 2.41499 16.866 2.41499C17.468 2.41499 17.941 2.62999 18.285 3.06C18.371 3.40399 18.629 3.57599 19.059 3.57599C19.317 3.57599 19.618 3.74799 19.962 4.09199L22.026 6.54299C22.37 6.88699 22.714 7.23099 23.058 7.57499C23.402 7.91899 23.746 8.263 24.09 8.607C24.52 9.037 24.95 9.467 25.38 9.89699C25.896 10.327 26.412 10.757 26.928 11.187C27.358 11.531 27.788 11.918 28.218 12.348C28.648 12.778 29.078 13.208 29.508 13.638C30.196 14.154 30.884 14.713 31.572 15.315C32.26 15.917 32.948 16.476 33.636 16.992C33.808 17.078 34.066 17.293 34.41 17.637C34.582 17.723 34.754 17.852 34.926 18.024C35.098 18.196 35.27 18.239 35.442 18.153C35.614 17.981 35.657 17.809 35.571 17.637C35.571 17.465 35.571 17.293 35.571 17.121C35.571 16.433 35.528 15.745 35.442 15.057C35.442 14.369 35.442 13.681 35.442 12.993C35.356 12.219 35.313 11.445 35.313 10.671C35.313 9.89699 35.313 9.12299 35.313 8.34899C35.313 8.005 35.313 7.704 35.313 7.446C35.313 7.18799 35.27 6.88699 35.184 6.54299C35.098 6.11299 35.055 5.68299 35.055 5.25299C35.141 4.82299 35.227 4.43599 35.313 4.09199C35.313 3.404 35.442 2.888 35.7 2.544L36.087 1.76999C36.259 1.16799 36.517 0.694995 36.861 0.350995C37.291 0.00699389 37.678 -0.337007 38.022 -0.681008C38.452 -0.939004 38.839 -1.068 39.183 -1.068C39.613 -1.068 40.043 -1.068 40.473 -1.068C40.903 -1.15401 41.29 -1.15401 41.634 -1.068C43.01 -1.068 44.128 -0.552004 44.988 0.479993C45.16 0.565992 45.289 0.651993 45.375 0.737997C45.461 0.823996 45.547 0.909995 45.633 0.995994C45.977 1.42599 46.235 1.89899 46.407 2.41499C46.665 2.845 46.837 3.361 46.923 3.96299C47.009 4.47899 47.052 4.99499 47.052 5.511C47.138 6.027 47.181 6.58599 47.181 7.18799C47.181 8.30599 47.181 9.42399 47.181 10.542C47.267 11.574 47.353 12.649 47.439 13.767C47.439 14.197 47.482 14.541 47.568 14.799C47.654 15.573 47.697 16.347 47.697 17.121C47.783 17.895 47.826 18.669 47.826 19.443C47.912 19.959 47.955 20.518 47.955 21.12C48.041 21.636 48.084 22.152 48.084 22.668C48.084 23.012 48.213 23.184 48.471 23.184C48.643 23.27 48.815 23.184 48.987 22.926C49.417 22.582 49.761 22.238 50.019 21.894C50.363 21.464 50.707 21.077 51.051 20.733L51.696 19.959C52.126 19.529 52.513 19.099 52.857 18.669C53.201 18.153 53.545 17.637 53.889 17.121C54.319 16.605 54.706 16.089 55.05 15.573C55.394 15.057 55.738 14.541 56.082 14.025C56.598 13.165 57.243 12.477 58.017 11.961L60.21 10.413C60.812 9.983 61.586 9.68199 62.532 9.50999C62.79 9.42399 63.048 9.38099 63.306 9.38099C63.65 9.38099 63.994 9.38099 64.338 9.38099C65.112 9.38099 65.8 9.63899 66.402 10.155L67.563 11.187C67.821 11.531 68.079 11.961 68.337 12.477C68.681 12.907 68.939 13.337 69.111 13.767C69.197 13.939 69.24 14.154 69.24 14.412C69.24 14.584 69.283 14.799 69.369 15.057C69.369 15.229 69.369 15.444 69.369 15.702C69.455 15.874 69.412 16.089 69.24 16.347C69.154 16.433 69.111 16.648 69.111 16.992V17.508C68.939 18.626 68.466 19.486 67.692 20.088C67.004 20.432 66.359 20.905 65.757 21.507C65.241 22.023 64.768 22.625 64.338 23.313C63.994 23.829 63.564 24.431 63.048 25.119C62.36 25.979 61.672 26.882 60.984 27.828C60.296 28.688 59.522 29.548 58.662 30.408C58.49 30.58 58.404 30.709 58.404 30.795C58.318 31.053 58.361 31.268 58.533 31.44H58.92C59.866 31.612 60.812 31.87 61.758 32.214C62.704 32.472 63.607 32.73 64.467 32.988C64.811 33.074 65.284 33.117 65.886 33.117L67.821 33.504C70.315 34.192 72.551 35.267 74.529 36.729C74.615 36.815 74.83 36.944 75.174 37.116C75.604 37.46 75.905 37.718 76.077 37.89C76.163 38.148 76.464 38.449 76.98 38.793C77.238 38.879 77.367 39.094 77.367 39.438C77.539 39.954 77.625 40.212 77.625 40.212C77.883 40.986 78.012 41.76 78.012 42.534C77.926 42.62 77.883 42.706 77.883 42.792C77.969 42.878 78.012 43.007 78.012 43.179C78.012 43.609 77.883 43.91 77.625 44.082C77.109 44.426 76.808 44.985 76.722 45.759C76.636 46.103 76.378 46.275 75.948 46.275C75.432 46.275 75.045 46.49 74.787 46.92C74.615 47.178 74.357 47.264 74.013 47.178C73.755 47.006 73.497 47.006 73.239 47.178C72.895 47.178 72.551 47.178 72.207 47.178C71.949 47.092 71.648 46.963 71.304 46.791C70.788 46.533 70.229 46.318 69.627 46.146C69.111 45.974 68.552 45.845 67.95 45.759C67.348 45.587 66.703 45.415 66.015 45.243C65.327 45.071 64.639 44.942 63.951 44.856C63.779 44.77 63.521 44.727 63.177 44.727C63.005 44.727 62.876 44.77 62.79 44.856C62.79 44.856 62.79 44.899 62.79 44.985C62.79 45.071 62.833 45.114 62.919 45.114C63.521 45.716 64.08 46.318 64.596 46.92C65.198 47.522 65.8 48.081 66.402 48.597C66.574 48.683 66.746 48.812 66.918 48.984C67.09 49.156 67.262 49.328 67.434 49.5L67.821 50.016C68.595 50.704 69.197 51.521 69.627 52.467C70.057 53.327 70.444 54.23 70.788 55.176C71.046 55.778 71.175 56.38 71.175 56.982C71.175 57.584 71.089 58.229 70.917 58.917C70.831 59.089 70.745 59.304 70.659 59.562C70.573 59.734 70.487 59.906 70.401 60.078C70.315 60.422 70.186 60.723 70.014 60.981C69.928 61.239 69.67 61.454 69.24 61.626L69.111 61.884C69.369 62.228 69.283 62.486 68.853 62.658C68.853 62.744 68.767 62.787 68.595 62.787C68.251 63.045 68.122 63.346 68.208 63.69V63.819C68.294 64.163 68.122 64.292 67.692 64.206L67.434 64.593C67.176 65.023 66.875 65.066 66.531 64.722C66.101 64.292 65.671 64.077 65.241 64.077C64.983 64.077 64.768 64.206 64.596 64.464C64.424 64.636 64.209 64.679 63.951 64.593C63.865 64.593 63.779 64.593 63.693 64.593C63.607 64.507 63.478 64.464 63.306 64.464C63.22 64.378 63.048 64.335 62.79 64.335C62.618 64.335 62.446 64.292 62.274 64.206C62.102 64.12 61.844 63.905 61.5 63.561C61.156 63.131 60.812 62.744 60.468 62.4C60.124 61.97 59.823 61.54 59.565 61.11C58.447 59.476 57.071 58.057 55.437 56.853C54.835 56.423 54.276 55.95 53.76 55.434C53.244 54.918 52.728 54.445 52.212 54.015C52.126 53.843 51.997 53.714 51.825 53.628C51.653 53.456 51.481 53.327 51.309 53.241C51.309 53.155 51.266 53.155 51.18 53.241C51.094 53.241 51.051 53.241 51.051 53.241C51.051 53.327 51.008 53.456 50.922 53.628C50.922 53.714 50.922 53.8 50.922 53.886C51.094 55.52 51.137 57.197 51.051 58.917C51.051 60.551 51.051 62.228 51.051 63.948C51.051 66.27 50.707 68.721 50.019 71.301L49.632 72.72C49.632 72.72 49.632 72.935 49.632 73.365C49.632 73.537 49.546 73.623 49.374 73.623C48.944 73.623 48.643 73.881 48.471 74.397C48.471 74.569 48.299 74.827 47.955 75.171C47.439 75.343 47.138 75.644 47.052 76.074C47.052 76.074 47.009 76.117 46.923 76.203C46.923 76.203 46.88 76.203 46.794 76.203Z" fill="white"/>
</svg>
