<svg width="150" height="35" viewBox="0 0 146 36" fill="none" xmlns="http://www.w3.org/2000/svg">
<path d="M5.85563 35.04C5.77563 35.04 5.70896 35.0133 5.65563 34.96C5.60229 34.9333 5.54896 34.9067 5.49563 34.88C5.38896 34.72 5.30896 34.56 5.25563 34.4C5.22896 34.24 5.20229 34.08 5.17563 33.92C5.14896 33.7867 5.13563 33.64 5.13563 33.48C5.13563 33.4 5.13563 33.3067 5.13563 33.2C5.13563 33.12 5.12229 33.0267 5.09563 32.92C5.06896 32.7867 5.04229 32.6533 5.01563 32.52C4.98896 32.4133 4.96229 32.3067 4.93563 32.2C4.85563 31.8533 4.70896 31.5733 4.49563 31.36C4.36229 31.28 4.25563 31.1733 4.17563 31.04C3.98896 30.8533 3.81563 30.6533 3.65563 30.44C3.49563 30.2533 3.34896 30.0533 3.21563 29.84L3.01563 29.48C2.82896 29.2667 2.66896 29.04 2.53563 28.8C2.42896 28.56 2.32229 28.32 2.21563 28.08L1.97563 27.44L1.85563 27.2C1.82896 26.9867 1.78896 26.7867 1.73563 26.6C1.68229 26.3867 1.62896 26.1867 1.57563 26C1.54896 25.8667 1.52229 25.76 1.49563 25.68C1.46896 25.5733 1.44229 25.4667 1.41563 25.36C1.38896 25.1467 1.36229 24.9333 1.33563 24.72C1.30896 24.5067 1.26896 24.3067 1.21563 24.12C1.18896 24.0667 1.17563 23.9733 1.17563 23.84L1.05563 22.72C1.02896 22.4267 1.00229 22.1467 0.975625 21.88C0.948958 21.6133 0.908958 21.3467 0.855625 21.08V20.92C0.855625 20.7067 0.842292 20.4933 0.815625 20.28C0.788958 20.0667 0.762292 19.8667 0.735625 19.68C0.708958 19.5733 0.695625 19.48 0.695625 19.4C0.695625 19.2933 0.695625 19.1867 0.695625 19.08C0.748958 18.9467 0.748958 18.8267 0.695625 18.72C0.668958 18.5867 0.655625 18.4533 0.655625 18.32C0.655625 18.16 0.655625 18.0267 0.655625 17.92C0.655625 17.6533 0.642292 17.4 0.615625 17.16C0.615625 16.8933 0.615625 16.6267 0.615625 16.36C0.615625 16.0667 0.615625 15.7733 0.615625 15.48C0.642292 15.1867 0.668958 14.9067 0.695625 14.64V14.36C0.722292 13.7733 0.788958 13.2 0.895625 12.64C1.00229 12.08 1.13563 11.5333 1.29563 11L1.77563 9.4C1.82896 9.24 1.88229 9.09333 1.93563 8.96C1.98896 8.8 2.04229 8.65333 2.09563 8.52C2.17563 8.30667 2.25563 8.09333 2.33563 7.88C2.41563 7.64 2.48229 7.41333 2.53563 7.2C2.58896 6.93333 2.65563 6.66667 2.73563 6.4C2.81563 6.10667 2.88229 5.82667 2.93563 5.56C3.04229 5.16 3.18896 4.77333 3.37563 4.4C3.56229 4.02666 3.80229 3.70667 4.09563 3.44C4.14896 3.38667 4.20229 3.33333 4.25563 3.28C4.30896 3.2 4.37563 3.14667 4.45563 3.12C4.58896 3.04 4.70896 2.96 4.81563 2.88C4.94896 2.8 5.08229 2.72 5.21563 2.64C5.74896 2.34667 6.28229 2.10666 6.81563 1.92L8.33563 1.32C8.49563 1.26667 8.68229 1.21333 8.89563 1.16C9.02896 1.10667 9.16229 1.08 9.29562 1.08C9.42896 1.05333 9.54896 1.02667 9.65563 0.999999C10.4556 0.84 11.2423 0.84 12.0156 0.999999C12.309 1.08 12.6023 1.2 12.8956 1.36C13.4023 1.6 13.909 1.90667 14.4156 2.28C14.709 2.52 14.989 2.78667 15.2556 3.08C15.5223 3.34666 15.749 3.66666 15.9356 4.04C16.1223 4.38667 16.2956 4.73333 16.4556 5.08C16.5356 5.37333 16.669 5.62666 16.8556 5.84L17.3356 6.56C17.389 6.61333 17.429 6.68 17.4556 6.76C17.509 6.84 17.549 6.90667 17.5756 6.96C17.7623 7.41333 17.8156 7.90667 17.7356 8.44C17.6556 8.86667 17.5223 9.21333 17.3356 9.48C17.229 9.64 17.149 9.74667 17.0956 9.8C16.7223 10.2 16.5356 10.7067 16.5356 11.32V11.44C16.509 11.7067 16.4956 11.9867 16.4956 12.28C16.4956 12.5467 16.4823 12.8267 16.4556 13.12V14.8C16.429 14.9333 16.4156 15.08 16.4156 15.24C16.4156 15.3733 16.4023 15.5067 16.3756 15.64C16.349 15.72 16.3356 15.8133 16.3356 15.92C16.3356 16 16.3356 16.0933 16.3356 16.2C16.3356 16.4667 16.269 16.7333 16.1356 17C15.949 17.2667 15.6956 17.36 15.3756 17.28C15.1356 17.2 14.9756 17.04 14.8956 16.8C14.869 16.72 14.829 16.64 14.7756 16.56C14.749 16.48 14.7223 16.3867 14.6956 16.28C14.669 16.1467 14.6423 16 14.6156 15.84C14.6156 15.68 14.6156 15.5333 14.6156 15.4C14.6156 15.2133 14.6023 15.04 14.5756 14.88C14.5756 14.6933 14.5756 14.5067 14.5756 14.32V14.2C14.549 14.0133 14.5223 13.84 14.4956 13.68C14.4956 13.4933 14.4956 13.3067 14.4956 13.12C14.469 12.8267 14.4423 12.5333 14.4156 12.24C14.389 11.9467 14.349 11.6667 14.2956 11.4L13.9356 10.44C13.829 10.2267 13.7223 10.0133 13.6156 9.8C13.5356 9.58667 13.4423 9.37333 13.3356 9.16C13.2823 8.97333 13.2023 8.8 13.0956 8.64C12.989 8.48 12.8823 8.30667 12.7756 8.12C12.5623 7.72 12.3223 7.37333 12.0556 7.08C12.0023 7.02667 11.949 6.97333 11.8956 6.92C11.8423 6.86666 11.789 6.81333 11.7356 6.76C11.629 6.70667 11.5223 6.65333 11.4156 6.6C11.3356 6.52 11.2556 6.42667 11.1756 6.32C11.149 6.29333 11.109 6.28 11.0556 6.28C11.029 6.25333 10.989 6.22667 10.9356 6.2C10.3756 6.04 9.88229 6.02667 9.45563 6.16L8.85563 6.28C8.74896 6.28 8.64229 6.29333 8.53563 6.32C8.45563 6.32 8.36229 6.33333 8.25563 6.36L7.97563 6.48C7.89563 6.50667 7.80229 6.6 7.69563 6.76C7.69563 6.86667 7.66896 6.97333 7.61563 7.08C7.58896 7.16 7.56229 7.24 7.53563 7.32C7.53563 7.37333 7.53563 7.42667 7.53563 7.48C7.45563 7.85333 7.34896 8.21333 7.21563 8.56C7.08229 8.90667 6.93563 9.26667 6.77563 9.64C6.72229 9.77333 6.64229 9.92 6.53563 10.08C6.48229 10.16 6.42896 10.24 6.37563 10.32C6.32229 10.3733 6.28229 10.4667 6.25563 10.6L6.01563 10.96C5.88229 11.0933 5.78896 11.28 5.73563 11.52C5.65563 11.7333 5.58896 11.96 5.53563 12.2C5.50896 12.4133 5.46896 12.6267 5.41563 12.84C5.33563 13.16 5.28229 13.48 5.25563 13.8C5.22896 14.12 5.20229 14.44 5.17563 14.76V17.4C5.17563 17.5067 5.16229 17.6 5.13563 17.68C5.13563 17.76 5.13563 17.8533 5.13563 17.96C5.13563 18.1733 5.12229 18.4 5.09563 18.64C5.09563 18.88 5.10896 19.1067 5.13563 19.32C5.16229 19.4 5.17563 19.52 5.17563 19.68C5.17563 20.0267 5.21563 20.3867 5.29563 20.76C5.29563 20.8667 5.30896 20.9333 5.33563 20.96C5.46896 21.0933 5.49563 21.2267 5.41563 21.36C5.41563 21.44 5.42896 21.4933 5.45563 21.52C5.56229 21.8667 5.65563 22.2133 5.73563 22.56C5.81563 22.88 5.90896 23.2133 6.01563 23.56C6.12229 23.8533 6.22896 24.1467 6.33563 24.44C6.46896 24.7333 6.62896 25.0267 6.81563 25.32C7.02896 25.64 7.33563 25.8933 7.73563 26.08C7.89563 26.1333 8.05563 26.1867 8.21563 26.24C8.37563 26.2933 8.53563 26.3333 8.69563 26.36C8.88229 26.3867 9.05563 26.4133 9.21563 26.44C9.37563 26.44 9.53563 26.44 9.69563 26.44C9.90896 26.44 10.1223 26.4267 10.3356 26.4C10.549 26.3733 10.749 26.3467 10.9356 26.32C11.229 26.2667 11.4956 26.2133 11.7356 26.16C12.0023 26.1067 12.269 26.0533 12.5356 26C12.989 25.92 13.4023 25.7867 13.7756 25.6C13.8023 25.6 13.8423 25.5733 13.8956 25.52C14.109 25.3867 14.309 25.2533 14.4956 25.12C14.709 24.96 14.909 24.7867 15.0956 24.6C15.2556 24.44 15.4156 24.28 15.5756 24.12C15.7623 23.96 15.9223 23.7867 16.0556 23.6L16.4156 23.08C16.5756 22.7867 16.749 22.5733 16.9356 22.44C17.0423 22.3333 17.1223 22.24 17.1756 22.16C17.229 22.08 17.2956 22.04 17.3756 22.04C17.5356 22.04 17.6956 22.0267 17.8556 22C18.0156 21.9733 18.189 21.9733 18.3756 22C18.5356 22.0267 18.6823 22.08 18.8156 22.16C18.9756 22.2133 19.1223 22.2667 19.2556 22.32C19.309 22.3467 19.3756 22.4 19.4556 22.48C19.589 22.64 19.6956 22.8 19.7756 22.96C19.8823 23.0933 19.949 23.2533 19.9756 23.44C20.029 23.6533 20.0556 23.8 20.0556 23.88C20.0823 24.04 20.0556 24.2267 19.9756 24.44C19.869 24.68 19.709 24.9333 19.4956 25.2C19.3623 25.3067 19.229 25.44 19.0956 25.6C18.9623 25.76 18.829 25.9067 18.6956 26.04C18.509 26.2267 18.3356 26.4267 18.1756 26.64C18.0156 26.8267 17.829 27.0133 17.6156 27.2C17.5356 27.2533 17.4556 27.32 17.3756 27.4C17.3223 27.4533 17.269 27.5067 17.2156 27.56C16.9756 27.8 16.709 28.0133 16.4156 28.2C16.149 28.36 15.869 28.5067 15.5756 28.64L14.4956 29.12C14.229 29.2267 13.949 29.32 13.6556 29.4C13.389 29.48 13.109 29.56 12.8156 29.64C12.549 29.72 12.269 29.8 11.9756 29.88C11.709 29.9333 11.429 29.9867 11.1356 30.04L9.57562 30.28C9.38896 30.3067 9.18896 30.3333 8.97563 30.36C8.78896 30.4133 8.58896 30.4267 8.37563 30.4C8.10896 30.3733 7.82896 30.4533 7.53563 30.64C7.26896 30.7733 7.12229 30.96 7.09563 31.2C7.04229 31.36 7.01563 31.48 7.01563 31.56L6.89563 32.6C6.89563 32.7867 6.88229 32.9867 6.85563 33.2C6.85563 33.4133 6.84229 33.6267 6.81563 33.84C6.78896 33.9467 6.76229 34.0533 6.73563 34.16C6.70896 34.2933 6.66896 34.4267 6.61563 34.56C6.48229 34.88 6.22896 35.04 5.85563 35.04ZM32.3388 30.8C32.0721 30.7733 31.8054 30.7333 31.5388 30.68C31.2988 30.6533 31.0588 30.5867 30.8188 30.48L29.8188 30.12C29.4721 29.9867 29.1521 29.84 28.8588 29.68C28.5654 29.4933 28.2721 29.3067 27.9788 29.12C27.8454 28.9867 27.7121 28.8667 27.5788 28.76C27.4454 28.6267 27.3121 28.5067 27.1788 28.4C26.9654 28.1867 26.7521 27.9733 26.5388 27.76C26.3254 27.52 26.1254 27.2667 25.9388 27L24.9788 25.52C24.7388 25.1467 24.5254 24.76 24.3388 24.36C24.1521 23.9333 23.9921 23.5067 23.8588 23.08C23.5654 22.28 23.4188 21.4933 23.4188 20.72V20.08C23.4188 19.4133 23.4588 18.76 23.5387 18.12C23.5921 17.5867 23.7121 17.1067 23.8988 16.68C24.0054 16.4133 24.0988 16.1467 24.1788 15.88C24.2588 15.6133 24.3521 15.36 24.4588 15.12L24.5788 14.84C24.6321 14.4933 24.7521 14.1867 24.9388 13.92C25.1254 13.6267 25.2854 13.3467 25.4188 13.08C25.5254 12.8667 25.6454 12.68 25.7788 12.52C25.9121 12.3333 26.0321 12.1467 26.1388 11.96C26.1921 11.88 26.2588 11.8133 26.3388 11.76C26.4188 11.68 26.4854 11.6 26.5388 11.52C26.5921 11.4667 26.6321 11.4 26.6588 11.32C26.7121 11.2133 26.7521 11.12 26.7788 11.04C26.8321 10.96 26.9254 10.8533 27.0588 10.72C27.2188 10.64 27.3654 10.4533 27.4987 10.16C27.5521 10.0533 27.6054 9.97333 27.6588 9.92C27.8188 9.78667 27.9521 9.62667 28.0588 9.44C28.1921 9.25333 28.3388 9.08 28.4988 8.92C28.6054 8.81333 28.6588 8.66667 28.6588 8.48C28.6588 8.34666 28.6588 8.22666 28.6588 8.12C28.6854 7.98666 28.6854 7.86666 28.6588 7.76C28.6321 7.62666 28.6721 7.50667 28.7788 7.4C28.8321 7.34667 28.8721 7.28 28.8988 7.2C28.9254 7.12 28.9521 7.04 28.9788 6.96C29.0588 6.69333 29.2721 6.46667 29.6188 6.28C29.6721 6.22667 29.7388 6.2 29.8188 6.2C29.9254 6.17333 30.0188 6.14667 30.0988 6.12C30.2854 6.04 30.4988 6.02667 30.7388 6.08C30.8454 6.10667 30.9388 6.12 31.0188 6.12C31.0988 6.09333 31.1788 6.06666 31.2588 6.04C31.3654 5.98667 31.4588 5.94667 31.5388 5.92C31.6454 5.89333 31.7388 5.86667 31.8188 5.84C32.1921 5.70667 32.5788 5.72 32.9788 5.88C33.4054 6.04 33.7121 6.32 33.8988 6.72C33.9521 6.85333 34.0054 6.98667 34.0588 7.12C34.1121 7.25333 34.1521 7.38667 34.1788 7.52C34.2321 7.81333 34.2188 8.06667 34.1388 8.28C34.0854 8.38667 34.0588 8.45333 34.0588 8.48C34.0321 8.58666 34.0588 8.68 34.1388 8.76C34.1921 8.84 34.2588 8.90667 34.3388 8.96C34.6321 9.22667 34.9121 9.49333 35.1788 9.76C35.4454 10 35.6988 10.2667 35.9388 10.56C36.1521 10.7733 36.3254 11 36.4588 11.24C36.6188 11.4533 36.7654 11.6933 36.8988 11.96C36.9521 12.0933 37.0188 12.24 37.0988 12.4C37.1788 12.5333 37.2588 12.6667 37.3388 12.8C37.4721 13.04 37.5788 13.2933 37.6588 13.56C37.7654 13.8267 37.8721 14.0933 37.9788 14.36V14.4C38.0321 14.5867 38.0721 14.7867 38.0988 15C38.1521 15.1867 38.2321 15.3867 38.3388 15.6C38.4188 15.7867 38.4854 15.9867 38.5388 16.2C38.5921 16.3867 38.6454 16.5867 38.6988 16.8C38.7521 17.04 38.8054 17.28 38.8588 17.52C38.9388 17.76 38.9921 18 39.0188 18.24C39.0454 18.3467 39.0721 18.4533 39.0988 18.56C39.1254 18.64 39.1521 18.7333 39.1788 18.84C39.2321 19.08 39.2854 19.32 39.3388 19.56C39.3921 19.8 39.4321 20.04 39.4588 20.28L39.5788 20.56C39.6321 20.72 39.6854 20.9333 39.7388 21.2C39.8188 21.5467 39.8588 21.8933 39.8588 22.24C39.8854 22.5867 39.8854 22.9467 39.8588 23.32C39.8588 23.5067 39.8454 23.6533 39.8188 23.76C39.6588 24.32 39.4588 24.8933 39.2188 25.48C39.1121 25.6667 39.0054 25.8533 38.8988 26.04C38.7921 26.2 38.6854 26.3733 38.5788 26.56L38.2188 27.12C38.0854 27.36 37.9388 27.5733 37.7788 27.76C37.5121 28.1867 37.1921 28.56 36.8188 28.88C36.4454 29.2 36.0454 29.5067 35.6188 29.8C34.6854 30.52 33.5921 30.8533 32.3388 30.8ZM32.1788 26.84C32.7388 26.84 33.2188 26.68 33.6188 26.36C33.7521 26.2267 33.8854 26.1067 34.0188 26C34.1788 25.8667 34.3121 25.7333 34.4188 25.6C34.9254 25.04 35.3254 24.4533 35.6188 23.84L35.7388 23.44C35.7921 22.96 35.7921 22.48 35.7388 22L35.4988 20.68C35.4188 20.3333 35.3521 20 35.2988 19.68C35.2454 19.3333 35.1654 19 35.0588 18.68C34.9788 18.4933 34.9521 18.3467 34.9788 18.24C35.0054 18.1067 35.0054 17.9733 34.9788 17.84C34.9521 17.7067 34.9121 17.5733 34.8588 17.44C34.7788 17.0933 34.6854 16.7467 34.5788 16.4C34.4721 16.0533 34.3654 15.7067 34.2588 15.36C34.2321 15.28 34.2054 15.2 34.1788 15.12C34.1521 15.04 34.1254 14.96 34.0988 14.88C33.9121 14.5067 33.7121 14.1467 33.4988 13.8C33.2854 13.4533 33.0454 13.1333 32.7787 12.84C32.6454 12.68 32.4988 12.5333 32.3388 12.4C32.1788 12.24 32.0188 12.0933 31.8588 11.96C31.8321 11.9067 31.7921 11.88 31.7388 11.88C31.7121 11.8533 31.6721 11.8267 31.6188 11.8C31.5388 11.6933 31.4321 11.7067 31.2988 11.84C31.1654 11.9733 31.0188 12.12 30.8588 12.28C30.7254 12.44 30.5921 12.6 30.4588 12.76C30.3254 12.9467 30.1788 13.1333 30.0188 13.32C29.8854 13.5067 29.7521 13.6933 29.6188 13.88C29.4321 14.12 29.2588 14.36 29.0988 14.6C28.9388 14.84 28.7788 15.08 28.6188 15.32C28.0588 16.2267 27.6188 17.2267 27.2988 18.32C27.2454 18.48 27.2188 18.6 27.2188 18.68C27.1921 18.8667 27.1654 19.0533 27.1388 19.24C27.1388 19.4267 27.1388 19.6267 27.1388 19.84V20.16C27.1654 20.24 27.1788 20.32 27.1788 20.4C27.1788 20.48 27.1921 20.56 27.2188 20.64C27.2188 20.96 27.2988 21.3067 27.4588 21.68C27.6721 22.2133 27.9121 22.7333 28.1788 23.24C28.4454 23.7467 28.7521 24.2267 29.0988 24.68C29.1788 24.7867 29.2588 24.8933 29.3388 25C29.4454 25.1067 29.5388 25.2133 29.6188 25.32C29.8588 25.5867 30.1121 25.8267 30.3788 26.04C30.6721 26.2533 30.9654 26.44 31.2588 26.6C31.5788 26.76 31.8854 26.84 32.1788 26.84ZM58.0559 30.36C57.9759 30.3333 57.8826 30.3067 57.7759 30.28C57.6959 30.2533 57.6159 30.2267 57.5359 30.2C57.3226 30.12 57.1093 30.0133 56.8959 29.88C56.7893 29.8267 56.7093 29.7467 56.6559 29.64C56.4693 29.3467 56.2959 29.08 56.1359 28.84C55.9759 28.5733 55.8026 28.3067 55.6159 28.04L55.2559 27.4C55.0693 27.0267 54.8826 26.6667 54.6959 26.32C54.5093 25.9467 54.3226 25.5867 54.1359 25.24C54.0826 25.1067 54.0159 25 53.9359 24.92C53.8826 24.8133 53.8293 24.7067 53.7759 24.6C53.5893 24.3067 53.4159 24.0133 53.2559 23.72C53.0959 23.4 52.9359 23.0933 52.7759 22.8L51.7759 20.84C51.5093 20.3067 51.2426 19.7867 50.9759 19.28C50.7093 18.7467 50.4426 18.2133 50.1759 17.68C50.1226 17.6267 50.0693 17.5467 50.0159 17.44C49.9093 17.1467 49.7759 16.8667 49.6159 16.6C49.4826 16.3333 49.3493 16.0667 49.2159 15.8C49.1093 15.6133 49.0159 15.4267 48.9359 15.24C48.8559 15.0267 48.7626 14.8267 48.6559 14.64L48.2159 13.84C48.1626 13.84 48.1226 13.8267 48.0959 13.8C48.0959 13.8 48.0826 13.8133 48.0559 13.84C48.0559 13.84 48.0559 13.8533 48.0559 13.88C48.0293 14.2267 48.0026 14.5867 47.9759 14.96C47.9493 15.3333 47.9493 15.7067 47.9759 16.08C48.0293 16.24 48.0293 16.4133 47.9759 16.6C47.9226 17.08 47.9359 17.5067 48.0159 17.88C48.0426 17.9867 48.0426 18.0933 48.0159 18.2C48.0159 18.3067 48.0026 18.4267 47.9759 18.56C47.9493 18.7467 47.9359 18.92 47.9359 19.08C47.9359 19.24 47.9226 19.4133 47.8959 19.6C47.9493 19.7067 47.9759 19.8267 47.9759 19.96C47.9759 20.0667 47.9626 20.1733 47.9359 20.28C47.8559 20.5467 47.8559 20.8267 47.9359 21.12C47.9893 21.2 47.9893 21.28 47.9359 21.36C47.8293 21.6 47.8026 21.8933 47.8559 22.24C47.9359 22.6933 47.9093 23.1867 47.7759 23.72C47.7493 23.7733 47.7359 23.8667 47.7359 24C47.7093 24.1067 47.7359 24.2 47.8159 24.28C47.9226 24.3333 47.9493 24.4 47.8959 24.48C47.8693 24.8267 47.8693 25.1867 47.8959 25.56C47.8959 25.56 47.8959 25.5733 47.8959 25.6C47.8959 25.6 47.8826 25.6 47.8559 25.6C47.8293 25.6 47.8159 25.5867 47.8159 25.56C47.7893 25.5333 47.7759 25.5067 47.7759 25.48C47.7226 25.4267 47.6959 25.44 47.6959 25.52C47.6959 25.6533 47.7093 25.7333 47.7359 25.76C47.7893 25.8933 47.8159 26.0267 47.8159 26.16C47.8159 26.2933 47.8159 26.4267 47.8159 26.56V27.8C47.8159 27.88 47.8026 27.96 47.7759 28.04C47.7759 28.12 47.7359 28.1867 47.6559 28.24C47.5493 28.2667 47.4959 28.36 47.4959 28.52C47.4693 28.8133 47.3626 29.0667 47.1759 29.28C47.0159 29.4933 46.8293 29.68 46.6159 29.84C46.5093 29.92 46.3759 29.9733 46.2159 30C46.0826 30 45.9493 29.9867 45.8159 29.96L45.0959 29.72C45.0426 29.72 44.9893 29.68 44.9359 29.6C44.8559 29.52 44.7759 29.44 44.6959 29.36C44.6159 29.2533 44.5226 29.16 44.4159 29.08C44.2826 29 44.1893 28.8533 44.1359 28.64C44.1093 28.5067 44.0693 28.36 44.0159 28.2C43.9626 28.04 43.9359 27.88 43.9359 27.72C43.9359 27.5333 43.9359 27.36 43.9359 27.2C43.9626 27.04 43.9759 26.8667 43.9759 26.68C44.0026 26.5467 44.0159 26.4267 44.0159 26.32C44.0159 26.1867 44.0293 26.0533 44.0559 25.92V11.28C44.0559 11.1467 44.0559 11.0133 44.0559 10.88C44.0826 10.7467 44.1093 10.6267 44.1359 10.52C44.1359 10.3867 44.1359 10.2533 44.1359 10.12C44.1626 9.98667 44.1759 9.85333 44.1759 9.72C44.1759 9.56 44.1759 9.4 44.1759 9.24C44.2026 9.08 44.2293 8.93333 44.2559 8.8C44.2826 8.69333 44.2959 8.6 44.2959 8.52C44.2959 8.44 44.2959 8.34667 44.2959 8.24V7C44.2959 6.81333 44.3093 6.65333 44.3359 6.52C44.3893 6.36 44.4293 6.2 44.4559 6.04L44.5759 5.84C44.6559 5.76 44.7226 5.64 44.7759 5.48C44.8293 5.32 44.9093 5.24 45.0159 5.24C45.0959 5.18667 45.1759 5.14666 45.2559 5.12C45.3359 5.06667 45.3893 4.98667 45.4159 4.88L45.4559 4.84C45.4826 4.84 45.5093 4.84 45.5359 4.84C45.5626 4.81333 45.5893 4.8 45.6159 4.8C45.7226 4.8 45.8026 4.77333 45.8559 4.72C45.9359 4.66667 46.0293 4.65333 46.1359 4.68C46.2426 4.70667 46.3493 4.72 46.4559 4.72C46.5626 4.72 46.6693 4.73333 46.7759 4.76C47.3626 4.86667 47.7759 5.21333 48.0159 5.8L48.2559 6.6C48.2826 6.86666 48.4026 7.12 48.6159 7.36C48.7759 7.54667 48.9359 7.74667 49.0959 7.96C49.2559 8.17333 49.4293 8.38667 49.6159 8.6C50.3093 9.48 50.9493 10.4667 51.5359 11.56C51.5893 11.6667 51.6426 11.7733 51.6959 11.88C51.7493 11.9867 51.8026 12.0933 51.8559 12.2L53.9359 16.4C54.0959 16.6933 54.2426 17 54.3759 17.32C54.5359 17.6133 54.7093 17.9067 54.8959 18.2C54.9493 18.3067 55.0026 18.4133 55.0559 18.52C55.1093 18.6 55.1493 18.6933 55.1759 18.8C55.3093 19.12 55.4693 19.44 55.6559 19.76C55.6559 19.76 55.6559 19.7733 55.6559 19.8C55.6826 19.8 55.6959 19.7867 55.6959 19.76C55.7226 19.76 55.7359 19.76 55.7359 19.76C55.7626 19.7333 55.7759 19.72 55.7759 19.72L55.8959 18.32V17.92C55.9226 17.7867 55.9359 17.6533 55.9359 17.52C55.9626 17.36 55.9893 17.2133 56.0159 17.08C56.0426 17 56.0426 16.9067 56.0159 16.8C56.0159 16.6933 56.0293 16.5867 56.0559 16.48C56.0559 16.32 56.0559 16.16 56.0559 16C56.0826 15.8133 56.1093 15.64 56.1359 15.48C56.1626 15.4 56.1759 15.32 56.1759 15.24C56.1759 15.1333 56.1759 15.04 56.1759 14.96V13.88H56.1359V12.8C56.1359 12.6667 56.1359 12.5333 56.1359 12.4C56.1359 12.2667 56.1093 12.1333 56.0559 12C56.0293 11.92 56.0159 11.8 56.0159 11.64L56.0559 11.36C56.0559 11.28 56.0426 11.2133 56.0159 11.16C56.0159 11.08 56.0159 11 56.0159 10.92C56.0426 10.8133 56.0293 10.7067 55.9759 10.6C55.9226 10.4933 55.8959 10.3867 55.8959 10.28C55.9226 10.1733 55.9359 10.0667 55.9359 9.96C55.9359 9.85333 55.9359 9.74667 55.9359 9.64C55.9359 9.53333 55.8826 9.48 55.7759 9.48C55.7493 9.48 55.7359 9.45333 55.7359 9.4C55.7093 9.32 55.7093 9.25333 55.7359 9.2C55.7893 9.06667 55.8159 8.92 55.8159 8.76C55.8159 8.6 55.8159 8.44 55.8159 8.28V7.12C55.7893 6.96 55.8026 6.8 55.8559 6.64C55.9093 6.48 55.9759 6.33333 56.0559 6.2L56.2159 5.96C56.3493 5.82667 56.4959 5.69333 56.6559 5.56C56.8159 5.42667 56.9759 5.29333 57.1359 5.16C57.1359 5.16 57.1893 5.13333 57.2959 5.08C57.4293 5.05333 57.5493 5.02667 57.6559 5C57.7893 4.97333 57.9226 4.97333 58.0559 5C58.1626 5 58.2426 5.01333 58.2959 5.04C58.4026 5.09333 58.5093 5.16 58.6159 5.24C58.7226 5.29333 58.8293 5.36 58.9359 5.44C58.9893 5.46667 59.0159 5.49333 59.0159 5.52C59.0426 5.54667 59.0693 5.57333 59.0959 5.6C59.1493 5.65333 59.1893 5.72 59.2159 5.8C59.2693 5.85333 59.3093 5.90667 59.3359 5.96C59.4693 6.06667 59.5493 6.2 59.5759 6.36C59.6293 6.49333 59.6693 6.62667 59.6959 6.76V8.44C59.6959 8.62667 59.6959 8.81333 59.6959 9C59.7226 9.16 59.7493 9.33333 59.7759 9.52C59.8026 9.62667 59.8159 9.73333 59.8159 9.84C59.8159 9.92 59.8159 10.0133 59.8159 10.12C59.8159 10.3333 59.8159 10.56 59.8159 10.8C59.8426 11.0133 59.8559 11.2267 59.8559 11.44V11.72C59.8559 11.9067 59.8426 12.0933 59.8159 12.28C59.8159 12.44 59.8159 12.6133 59.8159 12.8V14.56C59.8159 14.8267 59.8026 15.1067 59.7759 15.4C59.7759 15.6667 59.7893 15.9467 59.8159 16.24C59.8159 16.3467 59.8026 16.4267 59.7759 16.48C59.7493 16.7467 59.7359 17.0133 59.7359 17.28C59.7359 17.52 59.7226 17.7733 59.6959 18.04C59.6959 18.1467 59.6959 18.2667 59.6959 18.4C59.6959 18.5333 59.6826 18.6667 59.6559 18.8C59.6293 18.9067 59.6159 19.0133 59.6159 19.12C59.6426 19.2267 59.6559 19.3333 59.6559 19.44C59.7093 19.68 59.7226 19.92 59.6959 20.16C59.6959 20.4 59.6826 20.64 59.6559 20.88C59.6293 21.3067 59.6026 21.7467 59.5759 22.2C59.5759 22.6267 59.6026 23.0667 59.6559 23.52C59.6559 23.6267 59.6559 23.7467 59.6559 23.88C59.6826 24.0133 59.6959 24.1467 59.6959 24.28C59.6693 24.68 59.6826 25.0667 59.7359 25.44C59.8159 25.8133 59.8959 26.1867 59.9759 26.56C60.0293 26.8267 60.0826 27.0933 60.1359 27.36C60.1893 27.6 60.2293 27.8667 60.2559 28.16C60.2559 28.2667 60.2426 28.3333 60.2159 28.36C60.1893 28.4133 60.1626 28.48 60.1359 28.56C60.1093 28.6133 60.0959 28.6667 60.0959 28.72C60.0693 28.9333 59.9893 29.1333 59.8559 29.32C59.7493 29.5067 59.6293 29.6933 59.4959 29.88C59.1493 30.3333 58.6693 30.4933 58.0559 30.36ZM72.4141 29.96C72.3607 29.9333 72.2807 29.92 72.1741 29.92C72.1207 29.92 72.0674 29.88 72.0141 29.8C71.9607 29.72 71.9074 29.6533 71.8541 29.6C71.8007 29.52 71.7474 29.4267 71.6941 29.32C71.6141 29.2133 71.5474 29.2133 71.4941 29.32H71.4141C71.4141 29.2933 71.4007 29.28 71.3741 29.28C71.3741 29.2533 71.3741 29.24 71.3741 29.24C71.2941 28.8667 71.1741 28.52 71.0141 28.2C70.9341 27.9867 70.8541 27.7733 70.7741 27.56C70.7207 27.32 70.6807 27.08 70.6541 26.84L70.4141 25.08L70.2941 23.64V23.56C70.2407 23.24 70.2141 22.92 70.2141 22.6C70.2141 22.2533 70.2141 21.9067 70.2141 21.56C70.1874 21.3733 70.1741 21.2 70.1741 21.04C70.1741 20.8533 70.1607 20.6667 70.1341 20.48C70.1074 20.2667 70.0807 20.0533 70.0541 19.84C70.0541 19.6267 70.0541 19.4267 70.0541 19.24L70.0941 16.08V11.8C70.0407 11.64 69.9607 11.56 69.8541 11.56C69.8007 11.56 69.7341 11.5733 69.6541 11.6C69.6007 11.6 69.5474 11.6 69.4941 11.6L67.6941 12.08C67.4541 12.16 67.2141 12.24 66.9741 12.32C66.7341 12.3733 66.4941 12.44 66.2541 12.52C66.0674 12.5467 65.8807 12.5733 65.6941 12.6C65.5341 12.6 65.3607 12.6 65.1741 12.6C65.0407 12.6 64.8941 12.5467 64.7341 12.44C64.5474 12.36 64.3874 12.2533 64.2541 12.12C64.1207 11.9867 63.9874 11.84 63.8541 11.68L63.7741 11.56C63.7207 11.3733 63.6674 11.2 63.6141 11.04C63.5874 10.8533 63.5874 10.6667 63.6141 10.48C63.6407 10.24 63.6941 10.0133 63.7741 9.8C63.8807 9.58667 64.0274 9.4 64.2141 9.24C64.2941 9.18667 64.3607 9.12 64.4141 9.04C64.4941 8.96 64.5741 8.88 64.6541 8.8C64.7607 8.74667 64.8274 8.72 64.8541 8.72C65.0141 8.72 65.1607 8.69333 65.2941 8.64C65.4274 8.56 65.5607 8.50667 65.6941 8.48C65.8274 8.45333 65.9607 8.42667 66.0941 8.4C66.2274 8.37333 66.3607 8.34667 66.4941 8.32C66.8674 8.21333 67.2407 8.12 67.6141 8.04C67.9874 7.93333 68.3607 7.85333 68.7341 7.8L70.8941 7.44C70.9474 7.41333 70.9874 7.4 71.0141 7.4C71.0674 7.4 71.1074 7.38667 71.1341 7.36C71.2941 7.30667 71.4541 7.26667 71.6141 7.24C71.7741 7.21333 71.9341 7.22667 72.0941 7.28C72.1474 7.30667 72.1874 7.32 72.2141 7.32C72.2674 7.29333 72.3074 7.28 72.3341 7.28C72.7874 7.22667 73.2407 7.17333 73.6941 7.12C74.1474 7.06667 74.5874 7 75.0141 6.92C75.3607 6.86666 75.7074 6.81333 76.0541 6.76C76.4007 6.70667 76.7474 6.66667 77.0941 6.64C77.3607 6.58667 77.6274 6.54667 77.8941 6.52C78.1607 6.49333 78.4274 6.46667 78.6941 6.44C78.9074 6.41333 79.1207 6.38667 79.3341 6.36C79.5741 6.33333 79.8007 6.30667 80.0141 6.28C80.2274 6.25333 80.4274 6.25333 80.6141 6.28C80.8274 6.28 81.0407 6.28 81.2541 6.28C81.3874 6.28 81.5074 6.32 81.6141 6.4C81.7474 6.48 81.8674 6.54667 81.9741 6.6C82.0807 6.68 82.2274 6.81333 82.4141 7C82.4674 7.05333 82.5207 7.17333 82.5741 7.36C82.6007 7.44 82.6274 7.53333 82.6541 7.64C82.6807 7.72 82.7074 7.81333 82.7341 7.92C82.7874 8.16 82.7607 8.38667 82.6541 8.6L82.4141 9.16C82.3874 9.24 82.3474 9.32 82.2941 9.4C82.2674 9.45333 82.2274 9.50667 82.1741 9.56C82.1207 9.61333 82.0941 9.64 82.0941 9.64C81.9874 9.72 81.8674 9.8 81.7341 9.88C81.6274 9.96 81.4941 10.0133 81.3341 10.04L79.6141 10.16C79.4541 10.16 79.2941 10.1733 79.1341 10.2C78.9741 10.2 78.8007 10.2133 78.6141 10.24H78.4141C77.9874 10.2667 77.5741 10.3067 77.1741 10.36C76.7741 10.4133 76.3741 10.4667 75.9741 10.52L74.3741 10.76C74.2941 10.76 74.2407 10.7733 74.2141 10.8C74.1074 10.8 74.0274 10.88 73.9741 11.04V11.16C73.9741 11.4267 73.9741 11.6933 73.9741 11.96C73.9741 12.2 73.9874 12.4533 74.0141 12.72C74.0941 13.0933 74.0941 13.4667 74.0141 13.84C73.9874 13.92 73.9607 14 73.9341 14.08C73.9341 14.1333 73.9341 14.1867 73.9341 14.24C73.9607 14.56 73.9341 14.9067 73.8541 15.28C73.8541 15.36 73.8541 15.44 73.8541 15.52C73.8541 15.6 73.8674 15.68 73.8941 15.76C73.9207 15.8667 73.9341 15.9867 73.9341 16.12C73.9341 16.2533 73.9341 16.3867 73.9341 16.52V18.6C73.9341 18.7067 73.9207 18.84 73.8941 19C73.8941 19.1333 73.8941 19.2667 73.8941 19.4C73.8941 19.5067 73.8941 19.6267 73.8941 19.76C73.9207 19.8933 73.9341 20.0267 73.9341 20.16C73.9341 20.3467 73.9341 20.5333 73.9341 20.72C73.9607 20.9067 73.9607 21.1067 73.9341 21.32V22.56C73.9341 22.5867 73.9207 22.6133 73.8941 22.64C73.8941 22.6667 73.9074 22.7067 73.9341 22.76C73.9607 23 73.9741 23.2533 73.9741 23.52C73.9741 23.76 74.0007 24 74.0541 24.24C74.0541 24.32 74.0541 24.4 74.0541 24.48C74.0807 24.56 74.0807 24.64 74.0541 24.72C74.0541 24.96 74.0807 25.2133 74.1341 25.48C74.1874 25.72 74.2274 25.96 74.2541 26.2C74.3074 26.4933 74.3607 26.7867 74.4141 27.08C74.4941 27.3733 74.5607 27.6667 74.6141 27.96L74.7341 28.52C74.7341 28.6 74.6941 28.6667 74.6141 28.72C74.6141 28.72 74.6007 28.72 74.5741 28.72C74.5741 28.72 74.5607 28.7333 74.5341 28.76C74.4007 28.8133 74.3474 28.8933 74.3741 29V29.2C74.3741 29.2 74.3607 29.2133 74.3341 29.24C74.3341 29.2667 74.3207 29.28 74.2941 29.28C74.1607 29.28 74.0541 29.3333 73.9741 29.44C73.8941 29.5467 73.8007 29.64 73.6941 29.72C73.6141 29.7733 73.5074 29.8267 73.3741 29.88C73.0274 30.0133 72.7074 30.04 72.4141 29.96ZM100.02 32.92C99.7797 32.92 99.5664 32.8267 99.3797 32.64C99.3264 32.56 99.273 32.48 99.2197 32.4C99.1664 32.32 99.113 32.24 99.0597 32.16C98.8197 31.6 98.6997 31.0133 98.6997 30.4L98.5797 29.44C98.4997 29.0667 98.433 28.6933 98.3797 28.32C98.3264 27.9467 98.233 27.5867 98.0997 27.24L97.8597 26.56C97.8597 26.5067 97.8464 26.4533 97.8197 26.4C97.8197 26.3467 97.8064 26.2933 97.7797 26.24L97.1797 24.12C97.153 24.0667 97.1264 24 97.0997 23.92C97.0997 23.84 97.073 23.7733 97.0197 23.72C96.9397 23.56 96.873 23.4 96.8197 23.24C96.793 23.0533 96.753 22.8667 96.6997 22.68C96.673 22.5467 96.6464 22.4267 96.6197 22.32C96.593 22.1867 96.553 22.0533 96.4997 21.92C96.4464 21.76 96.393 21.6667 96.3397 21.64C96.2864 21.5867 96.1664 21.5867 95.9797 21.64C95.8464 21.6667 95.6997 21.6933 95.5397 21.72C95.4064 21.72 95.273 21.7467 95.1397 21.8C95.033 21.8267 94.8997 21.8533 94.7397 21.88C94.6064 21.88 94.473 21.8933 94.3397 21.92L93.7797 22.04C93.6464 22.0667 93.4997 22.1067 93.3397 22.16C93.2064 22.1867 93.073 22.2 92.9397 22.2L92.2197 22.32C92.0064 22.3733 91.7797 22.4267 91.5397 22.48C91.2997 22.5333 91.073 22.5867 90.8597 22.64C90.2197 22.8 89.5797 22.92 88.9397 23C88.7264 23.0533 88.6064 23.1467 88.5797 23.28C88.553 23.28 88.5397 23.2933 88.5397 23.32C88.3797 23.7467 88.193 24.1733 87.9797 24.6C87.793 25 87.593 25.4133 87.3797 25.84C87.3264 25.9467 87.273 26.0533 87.2197 26.16C87.193 26.24 87.153 26.3333 87.0997 26.44C87.073 26.4933 87.0464 26.56 87.0197 26.64C86.993 26.6933 86.9664 26.7467 86.9397 26.8C86.7797 26.9867 86.6997 27.2133 86.6997 27.48C86.673 27.64 86.6197 27.8 86.5397 27.96C86.4597 28.0933 86.3797 28.2267 86.2997 28.36C86.273 28.44 86.2197 28.48 86.1397 28.48C86.033 28.5067 85.9264 28.5467 85.8197 28.6C85.713 28.6533 85.593 28.7067 85.4597 28.76C85.3797 28.7867 85.2997 28.7867 85.2197 28.76C85.1664 28.7333 85.0997 28.7067 85.0197 28.68C84.9664 28.6267 84.913 28.6 84.8597 28.6C84.5664 28.5733 84.353 28.4 84.2197 28.08C84.0064 27.6533 83.8597 27.2267 83.7797 26.8C83.753 26.6933 83.753 26.6 83.7797 26.52C83.833 26.44 83.873 26.36 83.8997 26.28C84.0597 26.1733 84.153 26.0533 84.1797 25.92V25.88C84.1797 25.5333 84.2464 25.2133 84.3797 24.92C84.5397 24.6 84.673 24.2933 84.7797 24C84.833 23.84 84.8997 23.68 84.9797 23.52C85.0597 23.36 85.1397 23.2 85.2197 23.04C85.3264 22.8533 85.4064 22.68 85.4597 22.52C85.5397 22.3333 85.6064 22.1467 85.6597 21.96C85.7397 21.7467 85.7397 21.5467 85.6597 21.36C85.6064 21.2 85.5797 21.0533 85.5797 20.92C85.5797 20.76 85.593 20.6 85.6197 20.44C85.6197 20.1467 85.7264 19.8933 85.9397 19.68C86.0464 19.5467 86.153 19.44 86.2597 19.36C86.393 19.2533 86.513 19.1467 86.6197 19.04C86.8597 18.8 87.0464 18.48 87.1797 18.08C87.2864 17.7333 87.3664 17.3867 87.4197 17.04C87.4997 16.6667 87.5797 16.3067 87.6597 15.96C87.713 15.6133 87.7664 15.28 87.8197 14.96C87.8997 14.6133 87.9797 14.28 88.0597 13.96C88.0864 13.8267 88.113 13.7067 88.1397 13.6C88.193 13.4667 88.233 13.3467 88.2597 13.24C88.3397 13.0267 88.4197 12.8267 88.4997 12.64C88.5797 12.4267 88.633 12.2133 88.6597 12C88.713 11.8933 88.713 11.8 88.6597 11.72C88.633 11.5867 88.633 11.4667 88.6597 11.36C88.713 11.2533 88.753 11.1467 88.7797 11.04C88.8597 10.8533 88.913 10.6667 88.9397 10.48C88.993 10.2933 89.0597 10.1067 89.1397 9.92C89.273 9.57333 89.3797 9.29333 89.4597 9.08C89.5664 8.84 89.6597 8.57333 89.7397 8.28C89.793 8.12 89.8464 7.97333 89.8997 7.84C89.9797 7.68 90.033 7.52 90.0597 7.36C90.1397 7.12 90.2064 6.88 90.2597 6.64C90.313 6.37333 90.3397 6.12 90.3397 5.88C90.393 5.66667 90.4464 5.52 90.4997 5.44C90.633 5.17333 90.793 4.94667 90.9797 4.76C91.193 4.57333 91.393 4.38667 91.5797 4.2C91.713 4.12 91.8464 4.06667 91.9797 4.04C92.113 3.98667 92.2464 4 92.3797 4.08C92.4864 4.13333 92.553 4.16 92.5797 4.16C92.8197 4.13333 93.0197 4.18667 93.1797 4.32C93.3397 4.45333 93.473 4.61333 93.5797 4.8C93.633 4.85333 93.673 4.92 93.6997 5C93.7264 5.08 93.753 5.14667 93.7797 5.2C93.913 5.41333 93.9797 5.62666 93.9797 5.84C93.9797 5.94667 93.993 6.06667 94.0197 6.2C94.0464 6.30667 94.073 6.42667 94.0997 6.56C94.1797 6.72 94.2997 6.8 94.4597 6.8C94.4864 6.77333 94.513 6.77333 94.5397 6.8C94.5664 6.82666 94.5797 6.85333 94.5797 6.88C94.713 7.04 94.753 7.21333 94.6997 7.4C94.6464 7.61333 94.633 7.82667 94.6597 8.04C94.713 8.22666 94.7664 8.42666 94.8197 8.64C94.9264 8.90666 95.033 9.17333 95.1397 9.44C95.2464 9.70667 95.353 9.97333 95.4597 10.24C95.593 10.5333 95.7264 10.8267 95.8597 11.12C95.993 11.4133 96.113 11.7067 96.2197 12C96.353 12.3733 96.4864 12.7467 96.6197 13.12C96.7797 13.4933 96.953 13.8667 97.1397 14.24L97.2597 14.68C97.2864 14.7867 97.313 14.8933 97.3397 15C97.393 15.1067 97.433 15.2133 97.4597 15.32C97.513 15.4 97.553 15.48 97.5797 15.56C97.633 15.64 97.6864 15.7067 97.7397 15.76C97.873 15.9467 97.953 16.1467 97.9797 16.36C98.0597 16.6267 98.1797 16.8667 98.3397 17.08C98.393 17.16 98.473 17.2 98.5797 17.2C98.9797 17.1467 99.3797 17.1067 99.7797 17.08C100.18 17.0267 100.58 16.9467 100.98 16.84C101.273 16.76 101.553 16.72 101.82 16.72C102.326 16.72 102.793 16.8933 103.22 17.24C103.726 17.64 103.993 18.1467 104.02 18.76C104.02 18.8933 104.033 19 104.06 19.08C104.06 19.2667 104.006 19.4133 103.9 19.52C103.873 19.6 103.82 19.68 103.74 19.76C103.686 19.84 103.633 19.92 103.58 20C103.526 20.1067 103.473 20.1867 103.42 20.24L103.18 20.44C103.153 20.4933 103.113 20.56 103.06 20.64C103.006 20.6933 102.94 20.7333 102.86 20.76C102.753 20.7867 102.646 20.8267 102.54 20.88C102.433 20.9067 102.313 20.92 102.18 20.92C101.7 20.9733 101.273 20.96 100.9 20.88H100.26C100.206 20.88 100.126 20.9067 100.02 20.96C99.913 21.0133 99.8597 21.08 99.8597 21.16V21.32C99.9397 21.56 99.993 21.8133 100.02 22.08C100.073 22.32 100.153 22.5467 100.26 22.76C100.26 22.8667 100.286 22.9733 100.34 23.08C100.473 23.32 100.58 23.5733 100.66 23.84C100.74 24.08 100.806 24.3333 100.86 24.6C100.86 24.6533 100.886 24.76 100.94 24.92C101.02 25.1067 101.086 25.3067 101.14 25.52C101.193 25.7067 101.233 25.9067 101.26 26.12C101.26 26.28 101.3 26.4267 101.38 26.56C101.486 26.8 101.566 27.04 101.62 27.28C101.673 27.52 101.713 27.7733 101.74 28.04C101.766 28.0667 101.78 28.12 101.78 28.2C101.78 28.2533 101.793 28.3067 101.82 28.36C101.953 28.6533 102.046 28.9733 102.1 29.32C102.153 29.64 102.22 29.96 102.3 30.28C102.353 30.44 102.38 30.6 102.38 30.76C102.406 30.9467 102.42 31.1333 102.42 31.32C102.42 31.4533 102.38 31.6 102.3 31.76C102.22 31.84 102.18 31.88 102.18 31.88C102.02 31.9067 101.926 32 101.9 32.16L101.78 32.4C101.726 32.5067 101.646 32.5733 101.54 32.6C101.433 32.6 101.34 32.64 101.26 32.72C101.153 32.8267 101.006 32.88 100.82 32.88C100.713 32.88 100.58 32.88 100.42 32.88C100.286 32.88 100.153 32.8933 100.02 32.92ZM90.3797 18.4C90.5397 18.3733 90.6997 18.3467 90.8597 18.32C91.0464 18.2933 91.2464 18.2667 91.4597 18.24C91.593 18.2133 91.7664 18.1867 91.9797 18.16C92.193 18.1333 92.393 18.1067 92.5797 18.08C92.7664 18.0267 92.953 18 93.1397 18C93.3264 17.9733 93.513 17.9467 93.6997 17.92C93.8597 17.8667 94.0197 17.84 94.1797 17.84C94.3397 17.8133 94.4997 17.7867 94.6597 17.76C94.8997 17.7067 94.993 17.5733 94.9397 17.36C94.913 17.1467 94.8597 16.9333 94.7797 16.72C94.7264 16.48 94.6064 16.28 94.4197 16.12C94.3664 16.0667 94.3397 15.9867 94.3397 15.88V15.76C94.2864 15.5467 94.2197 15.3467 94.1397 15.16C94.0864 14.9467 94.0197 14.7467 93.9397 14.56C93.8864 14.3467 93.8197 14.16 93.7397 14C93.6864 13.8133 93.6197 13.6267 93.5397 13.44L93.0597 12C92.9797 11.8133 92.8997 11.6267 92.8197 11.44C92.7664 11.2533 92.713 11.0667 92.6597 10.88L92.5397 10.72H92.4197L92.3397 10.84C92.2064 11.24 92.0464 11.64 91.8597 12.04C91.6997 12.44 91.553 12.8667 91.4197 13.32C91.4197 13.3733 91.4064 13.44 91.3797 13.52C91.353 13.6 91.3264 13.68 91.2997 13.76C91.193 14.0267 91.0864 14.32 90.9797 14.64C90.8997 14.96 90.833 15.28 90.7797 15.6C90.753 15.7867 90.7264 15.9733 90.6997 16.16C90.673 16.32 90.633 16.4933 90.5797 16.68L90.2197 18.24C90.193 18.2667 90.2064 18.3067 90.2597 18.36C90.313 18.3867 90.353 18.4 90.3797 18.4ZM114.533 30.2C114.427 30.2 114.333 30.2 114.253 30.2C114.173 30.2 114.08 30.1867 113.973 30.16C113.92 30.16 113.853 30.1467 113.773 30.12C113.72 30.12 113.667 30.12 113.613 30.12C113.187 30.0933 112.787 30.0133 112.413 29.88C112.04 29.7467 111.667 29.5867 111.293 29.4C111.267 29.4 111.24 29.4 111.213 29.4C111.213 29.3733 111.2 29.36 111.173 29.36C110.907 29.2267 110.667 29.0667 110.453 28.88C110.267 28.6933 110.08 28.5067 109.893 28.32C109.68 28.0533 109.533 27.8 109.453 27.56C109.347 27.3467 109.213 27.12 109.053 26.88C108.787 26.5867 108.587 26.2133 108.453 25.76C108.373 25.5467 108.293 25.3333 108.213 25.12C108.133 24.9067 108.067 24.68 108.013 24.44C107.987 24.36 107.96 24.28 107.933 24.2C107.907 24.0933 107.867 23.9867 107.813 23.88C107.76 23.7467 107.707 23.6 107.653 23.44C107.627 23.28 107.587 23.12 107.533 22.96C107.507 22.8533 107.467 22.68 107.413 22.44C107.387 22.1733 107.373 22.0133 107.373 21.96V20.24C107.4 20.08 107.427 19.9333 107.453 19.8C107.48 19.64 107.507 19.48 107.533 19.32L107.573 19.28C107.573 19.3067 107.573 19.32 107.573 19.32C107.6 19.32 107.613 19.3333 107.613 19.36C107.64 19.36 107.653 19.3733 107.653 19.4C107.68 19.4267 107.693 19.4133 107.693 19.36C107.693 19.2 107.68 19.0667 107.653 18.96C107.653 18.9067 107.64 18.8533 107.613 18.8C107.613 18.7467 107.667 18.7067 107.773 18.68C107.8 18.68 107.813 18.64 107.813 18.56L108.173 16.8C108.2 16.6667 108.227 16.5467 108.253 16.44C108.28 16.3067 108.307 16.1867 108.333 16.08L108.413 15.64C108.387 15.6933 108.4 15.6 108.453 15.36C108.533 15.12 108.587 14.96 108.613 14.88C108.667 14.7467 108.733 14.6133 108.813 14.48C108.92 14.3467 108.987 14.2533 109.013 14.2C109.227 13.96 109.427 13.6267 109.613 13.2L110.373 12C110.48 11.8933 110.533 11.76 110.533 11.6C110.507 11.4667 110.547 11.32 110.653 11.16C110.733 11 110.813 10.84 110.893 10.68C111 10.52 111.107 10.36 111.213 10.2C111.347 9.98667 111.493 9.77333 111.653 9.56C111.84 9.32 112.013 9.10667 112.173 8.92C112.227 8.84 112.28 8.76 112.333 8.68C112.413 8.6 112.507 8.54667 112.613 8.52C112.667 8.52 112.707 8.50667 112.733 8.48C112.76 8.45333 112.787 8.42667 112.813 8.4C113.347 7.84 113.947 7.32 114.613 6.84C114.667 6.78667 114.72 6.73333 114.773 6.68C114.827 6.62667 114.88 6.58667 114.933 6.56C115.067 6.48 115.213 6.44 115.373 6.44C115.507 6.44 115.613 6.42666 115.693 6.4C115.773 6.4 115.893 6.37333 116.053 6.32C116.24 6.26667 116.387 6.29333 116.493 6.4C116.653 6.56 116.92 6.61333 117.293 6.56C117.533 6.53333 117.733 6.66667 117.893 6.96C117.947 7.04 117.987 7.12 118.013 7.2C118.067 7.28 118.133 7.34667 118.213 7.4C118.293 7.56 118.4 7.70667 118.533 7.84C118.693 7.97333 118.827 8.10667 118.933 8.24L119.453 8.96C119.507 9.04 119.56 9.13333 119.613 9.24C119.693 9.32 119.76 9.4 119.813 9.48C119.947 9.61333 120.027 9.74667 120.053 9.88C120.107 10.0133 120.147 10.1067 120.173 10.16C120.227 10.1867 120.267 10.3067 120.293 10.52C120.32 10.6267 120.32 10.6933 120.293 10.72C120.293 10.72 120.347 10.72 120.453 10.72C120.56 10.72 120.613 10.7867 120.613 10.92C120.613 11.2133 120.56 11.4667 120.453 11.68C120.4 11.76 120.347 11.8 120.293 11.8C120.267 11.8 120.227 11.8267 120.173 11.88C120.093 12.0133 120 12.1467 119.893 12.28C119.813 12.4133 119.72 12.56 119.613 12.72C119.533 12.8533 119.427 12.9733 119.293 13.08C119.187 13.1867 119.067 13.2933 118.933 13.4C118.72 13.6133 118.467 13.6933 118.173 13.64C117.933 13.64 117.76 13.6267 117.653 13.6C117.573 13.5733 117.493 13.5467 117.413 13.52C117.36 13.4667 117.293 13.4267 117.213 13.4C117.16 13.4 117.107 13.3733 117.053 13.32C117.027 13.2667 117 13.2267 116.973 13.2C116.947 13.1467 116.907 13.1067 116.853 13.08C116.72 13 116.613 12.9067 116.533 12.8C116.453 12.6667 116.387 12.5467 116.333 12.44C116.307 12.36 116.293 12.28 116.293 12.2C116.293 12.12 116.293 12.0533 116.293 12C116.267 11.84 116.24 11.68 116.213 11.52C116.213 11.36 116.187 11.2 116.133 11.04C116.133 10.9867 116.067 10.96 115.933 10.96C115.773 11.0667 115.613 11.1733 115.453 11.28C115.293 11.3867 115.147 11.52 115.013 11.68L113.773 13.16C113.693 13.24 113.613 13.3333 113.533 13.44C113.48 13.52 113.427 13.6 113.373 13.68C113.267 13.8133 113.16 13.96 113.053 14.12C112.973 14.2533 112.867 14.3867 112.733 14.52C112.68 14.5733 112.64 14.6267 112.613 14.68C112.533 14.8667 112.44 15.04 112.333 15.2C112.253 15.36 112.173 15.5467 112.093 15.76C111.96 16.0267 111.84 16.32 111.733 16.64C111.653 16.9333 111.587 17.24 111.533 17.56C111.507 17.96 111.427 18.36 111.293 18.76C111.267 18.8933 111.24 19.04 111.213 19.2C111.187 19.36 111.16 19.52 111.133 19.68C111.107 19.92 111.067 20.16 111.013 20.4C110.96 20.64 110.947 20.8933 110.973 21.16C111.027 21.6933 111.107 22.2 111.213 22.68C111.293 22.9467 111.36 23.2133 111.413 23.48C111.493 23.72 111.573 23.9733 111.653 24.24C111.68 24.32 111.707 24.4 111.733 24.48C111.76 24.56 111.787 24.64 111.813 24.72C111.973 25.0933 112.267 25.3867 112.693 25.6C112.853 25.68 113.027 25.72 113.213 25.72C113.373 25.72 113.533 25.7333 113.693 25.76C113.853 25.76 114.013 25.7467 114.173 25.72C114.92 25.64 115.613 25.52 116.253 25.36C116.547 25.3067 116.827 25.2267 117.093 25.12C117.36 25.0133 117.627 24.9067 117.893 24.8C118.107 24.72 118.307 24.6 118.493 24.44C118.707 24.28 118.92 24.12 119.133 23.96C119.373 23.7733 119.6 23.5867 119.813 23.4C120.027 23.2133 120.24 23.0267 120.453 22.84C120.667 22.6533 120.867 22.4533 121.053 22.24C121.133 22.16 121.253 22.0667 121.413 21.96C121.493 21.9067 121.573 21.8533 121.653 21.8C121.733 21.7467 121.8 21.6933 121.853 21.64C121.987 21.56 122.107 21.48 122.213 21.4C122.347 21.32 122.493 21.28 122.653 21.28C122.733 21.2267 122.813 21.2 122.893 21.2C123 21.1733 123.093 21.1467 123.173 21.12C123.413 21.04 123.627 21.04 123.813 21.12C123.893 21.1467 123.973 21.1733 124.053 21.2C124.133 21.2267 124.213 21.2667 124.293 21.32C124.507 21.4533 124.707 21.6667 124.893 21.96C125.027 22.28 125.093 22.56 125.093 22.8V23.04C125.093 23.3867 124.96 23.6933 124.693 23.96C124.4 24.3333 124.093 24.6267 123.773 24.84C123.587 24.9467 123.4 25.0933 123.213 25.28C122.947 25.4933 122.667 25.72 122.373 25.96C122.107 26.2 121.827 26.4267 121.533 26.64L121.373 26.8C121.293 26.8533 121.213 26.92 121.133 27C121.053 27.08 120.96 27.1467 120.853 27.2C120.667 27.3867 120.453 27.56 120.213 27.72C119.973 27.8533 119.733 27.9867 119.493 28.12C119.253 28.2267 119.027 28.3867 118.813 28.6C118.733 28.68 118.653 28.76 118.573 28.84C118.493 28.92 118.4 28.9867 118.293 29.04C117.947 29.2267 117.547 29.4133 117.093 29.6C117.067 29.6267 117.027 29.6533 116.973 29.68C116.92 29.7067 116.867 29.7333 116.813 29.76C116.653 29.84 116.48 29.9067 116.293 29.96C116.133 29.9867 115.973 30.0133 115.813 30.04C115.6 30.0667 115.387 30.08 115.173 30.08C114.96 30.1067 114.747 30.1467 114.533 30.2ZM135.422 29.96C135.369 29.9333 135.289 29.92 135.182 29.92C135.129 29.92 135.075 29.88 135.022 29.8C134.969 29.72 134.915 29.6533 134.862 29.6C134.809 29.52 134.755 29.4267 134.702 29.32C134.622 29.2133 134.555 29.2133 134.502 29.32H134.422C134.422 29.2933 134.409 29.28 134.382 29.28C134.382 29.2533 134.382 29.24 134.382 29.24C134.302 28.8667 134.182 28.52 134.022 28.2C133.942 27.9867 133.862 27.7733 133.782 27.56C133.729 27.32 133.689 27.08 133.662 26.84L133.422 25.08L133.302 23.64V23.56C133.249 23.24 133.222 22.92 133.222 22.6C133.222 22.2533 133.222 21.9067 133.222 21.56C133.195 21.3733 133.182 21.2 133.182 21.04C133.182 20.8533 133.169 20.6667 133.142 20.48C133.115 20.2667 133.089 20.0533 133.062 19.84C133.062 19.6267 133.062 19.4267 133.062 19.24L133.102 16.08V11.8C133.049 11.64 132.969 11.56 132.862 11.56C132.809 11.56 132.742 11.5733 132.662 11.6C132.609 11.6 132.555 11.6 132.502 11.6L130.702 12.08C130.462 12.16 130.222 12.24 129.982 12.32C129.742 12.3733 129.502 12.44 129.262 12.52C129.075 12.5467 128.889 12.5733 128.702 12.6C128.542 12.6 128.369 12.6 128.182 12.6C128.049 12.6 127.902 12.5467 127.742 12.44C127.555 12.36 127.395 12.2533 127.262 12.12C127.129 11.9867 126.995 11.84 126.862 11.68L126.782 11.56C126.729 11.3733 126.675 11.2 126.622 11.04C126.595 10.8533 126.595 10.6667 126.622 10.48C126.649 10.24 126.702 10.0133 126.782 9.8C126.889 9.58667 127.035 9.4 127.222 9.24C127.302 9.18667 127.369 9.12 127.422 9.04C127.502 8.96 127.582 8.88 127.662 8.8C127.769 8.74667 127.835 8.72 127.862 8.72C128.022 8.72 128.169 8.69333 128.302 8.64C128.435 8.56 128.569 8.50667 128.702 8.48C128.835 8.45333 128.969 8.42667 129.102 8.4C129.235 8.37333 129.369 8.34667 129.502 8.32C129.875 8.21333 130.249 8.12 130.622 8.04C130.995 7.93333 131.369 7.85333 131.742 7.8L133.902 7.44C133.955 7.41333 133.995 7.4 134.022 7.4C134.075 7.4 134.115 7.38667 134.142 7.36C134.302 7.30667 134.462 7.26667 134.622 7.24C134.782 7.21333 134.942 7.22667 135.102 7.28C135.155 7.30667 135.195 7.32 135.222 7.32C135.275 7.29333 135.315 7.28 135.342 7.28C135.795 7.22667 136.249 7.17333 136.702 7.12C137.155 7.06667 137.595 7 138.022 6.92C138.369 6.86666 138.715 6.81333 139.062 6.76C139.409 6.70667 139.755 6.66667 140.102 6.64C140.369 6.58667 140.635 6.54667 140.902 6.52C141.169 6.49333 141.435 6.46667 141.702 6.44C141.915 6.41333 142.129 6.38667 142.342 6.36C142.582 6.33333 142.809 6.30667 143.022 6.28C143.235 6.25333 143.435 6.25333 143.622 6.28C143.835 6.28 144.049 6.28 144.262 6.28C144.395 6.28 144.515 6.32 144.622 6.4C144.755 6.48 144.875 6.54667 144.982 6.6C145.089 6.68 145.235 6.81333 145.422 7C145.475 7.05333 145.529 7.17333 145.582 7.36C145.609 7.44 145.635 7.53333 145.662 7.64C145.689 7.72 145.715 7.81333 145.742 7.92C145.795 8.16 145.769 8.38667 145.662 8.6L145.422 9.16C145.395 9.24 145.355 9.32 145.302 9.4C145.275 9.45333 145.235 9.50667 145.182 9.56C145.129 9.61333 145.102 9.64 145.102 9.64C144.995 9.72 144.875 9.8 144.742 9.88C144.635 9.96 144.502 10.0133 144.342 10.04L142.622 10.16C142.462 10.16 142.302 10.1733 142.142 10.2C141.982 10.2 141.809 10.2133 141.622 10.24H141.422C140.995 10.2667 140.582 10.3067 140.182 10.36C139.782 10.4133 139.382 10.4667 138.982 10.52L137.382 10.76C137.302 10.76 137.249 10.7733 137.222 10.8C137.115 10.8 137.035 10.88 136.982 11.04V11.16C136.982 11.4267 136.982 11.6933 136.982 11.96C136.982 12.2 136.995 12.4533 137.022 12.72C137.102 13.0933 137.102 13.4667 137.022 13.84C136.995 13.92 136.969 14 136.942 14.08C136.942 14.1333 136.942 14.1867 136.942 14.24C136.969 14.56 136.942 14.9067 136.862 15.28C136.862 15.36 136.862 15.44 136.862 15.52C136.862 15.6 136.875 15.68 136.902 15.76C136.929 15.8667 136.942 15.9867 136.942 16.12C136.942 16.2533 136.942 16.3867 136.942 16.52V18.6C136.942 18.7067 136.929 18.84 136.902 19C136.902 19.1333 136.902 19.2667 136.902 19.4C136.902 19.5067 136.902 19.6267 136.902 19.76C136.929 19.8933 136.942 20.0267 136.942 20.16C136.942 20.3467 136.942 20.5333 136.942 20.72C136.969 20.9067 136.969 21.1067 136.942 21.32V22.56C136.942 22.5867 136.929 22.6133 136.902 22.64C136.902 22.6667 136.915 22.7067 136.942 22.76C136.969 23 136.982 23.2533 136.982 23.52C136.982 23.76 137.009 24 137.062 24.24C137.062 24.32 137.062 24.4 137.062 24.48C137.089 24.56 137.089 24.64 137.062 24.72C137.062 24.96 137.089 25.2133 137.142 25.48C137.195 25.72 137.235 25.96 137.262 26.2C137.315 26.4933 137.369 26.7867 137.422 27.08C137.502 27.3733 137.569 27.6667 137.622 27.96L137.742 28.52C137.742 28.6 137.702 28.6667 137.622 28.72C137.622 28.72 137.609 28.72 137.582 28.72C137.582 28.72 137.569 28.7333 137.542 28.76C137.409 28.8133 137.355 28.8933 137.382 29V29.2C137.382 29.2 137.369 29.2133 137.342 29.24C137.342 29.2667 137.329 29.28 137.302 29.28C137.169 29.28 137.062 29.3333 136.982 29.44C136.902 29.5467 136.809 29.64 136.702 29.72C136.622 29.7733 136.515 29.8267 136.382 29.88C136.035 30.0133 135.715 30.04 135.422 29.96Z" fill="white"/>
</svg>
