<svg width="150" height="35" viewBox="0 0 88 31" fill="none" xmlns="http://www.w3.org/2000/svg">
<path d="M18.9713 30.88C18.8113 30.9333 18.6646 30.8933 18.5312 30.76C18.4246 30.6533 18.3313 30.52 18.2513 30.36C18.1979 30.2 18.1446 30.0267 18.0913 29.84C18.0379 29.6533 18.0113 29.4667 18.0113 29.28C18.0113 29.1467 18.0113 29.0133 18.0113 28.88C18.0113 28.7467 17.9846 28.6267 17.9313 28.52C17.9046 28.4133 17.8779 28.3067 17.8513 28.2C17.8513 28.12 17.8513 28.04 17.8513 27.96C17.8246 27.6667 17.7179 27.3867 17.5313 27.12C17.5046 27.12 17.4913 27.12 17.4913 27.12C17.4913 27.0933 17.4913 27.08 17.4913 27.08C17.2779 26.7867 17.1046 26.48 16.9713 26.16C16.8646 25.84 16.7846 25.5067 16.7313 25.16L16.3713 23C16.3446 22.84 16.3179 22.6933 16.2913 22.56C16.2646 22.4 16.2246 22.24 16.1713 22.08C16.1446 21.8667 16.1046 21.6667 16.0513 21.48C15.9979 21.2933 15.9446 21.1067 15.8913 20.92L15.6513 20.04V19.92C15.6246 19.7333 15.5846 19.5467 15.5313 19.36C15.4779 19.1733 15.4379 18.9867 15.4113 18.8C15.3846 18.5867 15.3446 18.3867 15.2913 18.2C15.2646 17.9867 15.2246 17.7867 15.1713 17.6C15.1713 17.4933 15.1313 17.4 15.0513 17.32C14.9979 17.2133 14.9313 17.1067 14.8513 17C14.8513 16.9733 14.8246 16.9333 14.7713 16.88C14.4513 16.6667 14.0913 16.5867 13.6913 16.64C13.5846 16.64 13.5046 16.6533 13.4513 16.68C13.1846 16.7333 12.9179 16.8133 12.6513 16.92C12.3846 17.0267 12.1179 17.1467 11.8513 17.28C11.7446 17.3333 11.6779 17.3733 11.6513 17.4C11.5179 17.5067 11.3713 17.6 11.2113 17.68C11.0513 17.7333 10.8913 17.7867 10.7313 17.84C10.3313 18 9.93125 18.1867 9.53125 18.4C9.15792 18.6133 8.78458 18.8267 8.41125 19.04L8.17125 19.24C8.03792 19.3467 7.89125 19.4667 7.73125 19.6C7.57125 19.7067 7.41125 19.8 7.25125 19.88C7.01125 20.04 6.89125 20.2533 6.89125 20.52C6.83792 20.8933 6.89125 21.2533 7.05125 21.6C7.18458 21.9467 7.27792 22.3467 7.33125 22.8C7.33125 22.96 7.34458 23.08 7.37125 23.16C7.42458 23.24 7.45125 23.3333 7.45125 23.44C7.47792 23.52 7.50458 23.6 7.53125 23.68L7.65125 24.44C7.73125 24.9733 7.65125 25.48 7.41125 25.96C7.38458 25.9867 7.34458 26.0533 7.29125 26.16C7.05125 26.56 6.89125 27 6.81125 27.48C6.78458 27.6133 6.74458 27.7467 6.69125 27.88C6.63792 27.9867 6.55792 28.1067 6.45125 28.24C6.34458 28.3733 6.18458 28.4533 5.97125 28.48C5.75792 28.5067 5.57125 28.4133 5.41125 28.2C5.30458 28.0133 5.22458 27.7733 5.17125 27.48C5.11792 27.2133 5.06458 27 5.01125 26.84C4.95792 26.6267 4.86458 26.4667 4.73125 26.36C4.51792 26.0667 4.31792 25.6933 4.13125 25.24C4.02458 24.9467 3.94458 24.6533 3.89125 24.36C3.83792 24.0667 3.78458 23.7733 3.73125 23.48C3.65125 23.08 3.57125 22.68 3.49125 22.28C3.41125 21.88 3.31792 21.48 3.21125 21.08C3.13125 20.7333 3.03792 20.4 2.93125 20.08C2.85125 19.7333 2.77125 19.3867 2.69125 19.04L1.97125 16.08C1.94458 15.7867 1.86458 15.5067 1.73125 15.24C1.67792 15.0267 1.61125 14.8133 1.53125 14.6C1.45125 14.36 1.38458 14.1333 1.33125 13.92C1.30458 13.84 1.27792 13.76 1.25125 13.68C1.22458 13.5733 1.19792 13.48 1.17125 13.4C1.14458 13.2667 1.10458 13.1333 1.05125 13C1.02458 12.8667 0.97125 12.7333 0.89125 12.6L0.77125 12.16C0.717917 11.9467 0.664583 11.7333 0.61125 11.52C0.557917 11.3067 0.504583 11.1067 0.45125 10.92L0.41125 10.76C0.41125 10.6 0.397917 10.44 0.37125 10.28C0.344583 10.12 0.317917 9.94667 0.29125 9.76C0.29125 9.73333 0.277917 9.72 0.25125 9.72C0.25125 9.69333 0.25125 9.66667 0.25125 9.64C0.224583 9.26667 0.197917 8.89333 0.17125 8.52C0.144583 8.12 0.13125 7.73333 0.13125 7.36C0.104583 7.12 0.104583 6.97333 0.13125 6.92C0.157917 6.86667 0.224583 6.74667 0.33125 6.56C0.41125 6.42667 0.504583 6.28 0.61125 6.12C0.61125 6.06667 0.637917 6.04 0.69125 6.04C0.797917 6.01333 0.89125 5.97333 0.97125 5.92C1.05125 5.84 1.13125 5.77333 1.21125 5.72C1.50458 5.53333 1.86458 5.44 2.29125 5.44C2.37125 5.44 2.42458 5.45333 2.45125 5.48C2.53125 5.50667 2.59792 5.53333 2.65125 5.56C2.73125 5.58667 2.81125 5.62667 2.89125 5.68C3.05125 5.73333 3.18458 5.82667 3.29125 5.96C3.42458 6.09333 3.54458 6.22667 3.65125 6.36C3.83792 6.76 3.94458 7.13333 3.97125 7.48C4.02458 7.8 4.10458 8.12 4.21125 8.44L4.33125 9C4.38458 9.26667 4.45125 9.53333 4.53125 9.8C4.61125 10.0667 4.67792 10.3333 4.73125 10.6C4.81125 10.9733 4.87792 11.36 4.93125 11.76C5.01125 12.1333 5.09125 12.5067 5.17125 12.88L5.29125 13.6C5.29125 13.6267 5.29125 13.6667 5.29125 13.72C5.31792 13.7467 5.33125 13.7733 5.33125 13.8C5.38458 13.9333 5.46458 14 5.57125 14C5.83792 14.0267 6.10458 14.0533 6.37125 14.08C6.63792 14.1067 6.90458 14.0933 7.17125 14.04C7.62458 13.9867 8.06458 13.92 8.49125 13.84C8.91792 13.76 9.34458 13.68 9.77125 13.6C10.3313 13.4933 10.8779 13.3867 11.4113 13.28C11.9713 13.1467 12.5313 13.0133 13.0913 12.88L13.8913 12.68C14.0246 12.6267 14.0913 12.5333 14.0913 12.4C14.0646 12.32 14.0513 12.24 14.0513 12.16C14.0513 12.08 14.0379 12 14.0113 11.92C13.8779 11.5467 13.7979 11.2 13.7713 10.88C13.7446 10.7467 13.7179 10.6133 13.6913 10.48C13.6646 10.32 13.6379 10.1733 13.6113 10.04C13.5313 9.58667 13.4513 9.13333 13.3713 8.68C13.3179 8.2 13.2646 7.73333 13.2113 7.28C13.1846 7.06667 13.1579 6.86667 13.1313 6.68C13.1313 6.46667 13.1046 6.26667 13.0513 6.08C13.0246 5.78667 12.9979 5.49333 12.9713 5.2C12.9713 4.88 12.9713 4.58667 12.9713 4.32C12.9713 4.26667 12.9713 4.21333 12.9713 4.16C12.9979 4.10667 13.0246 4.05333 13.0513 4C13.0779 3.89333 13.1046 3.8 13.1313 3.72C13.1579 3.61333 13.1846 3.50667 13.2113 3.4C13.2646 3.24 13.3179 3.10667 13.3713 3C13.4513 2.86667 13.5313 2.74667 13.6113 2.64C13.7446 2.56 13.8513 2.45333 13.9313 2.32C14.0646 2.18667 14.1846 2.10667 14.2913 2.08L14.6513 1.96C14.7313 1.90666 14.8113 1.89333 14.8913 1.92C14.9979 1.92 15.0913 1.93333 15.1713 1.96C15.2513 1.96 15.3713 1.98667 15.5313 2.04C15.6113 2.06667 15.6913 2.10667 15.7713 2.16C15.8513 2.21333 15.9179 2.28 15.9713 2.36C16.0246 2.46667 16.0913 2.57333 16.1713 2.68C16.2779 2.76 16.3446 2.86667 16.3713 3C16.4246 3.08 16.4913 3.12 16.5713 3.12C16.6513 3.14666 16.7179 3.22666 16.7713 3.36C16.7713 3.38667 16.7713 3.41333 16.7713 3.44C16.7979 3.46667 16.8113 3.50667 16.8113 3.56C16.8646 3.77333 16.9179 4 16.9713 4.24C17.0246 4.45333 17.0646 4.66667 17.0913 4.88C17.0913 4.96 17.0913 5.04 17.0913 5.12C17.1179 5.2 17.1179 5.29333 17.0913 5.4V5.72C17.1179 5.93333 17.1446 6.16 17.1713 6.4C17.1979 6.61333 17.2246 6.82667 17.2513 7.04C17.2779 7.06667 17.2913 7.13333 17.2913 7.24C17.3713 7.34666 17.4246 7.48 17.4513 7.64C17.4779 7.8 17.5046 7.94667 17.5313 8.08C17.5579 8.21333 17.5713 8.36 17.5713 8.52C17.5979 8.65333 17.6379 8.78667 17.6913 8.92C17.7179 8.97333 17.7313 9.05333 17.7313 9.16C17.7313 9.26667 17.7313 9.37333 17.7313 9.48C17.7579 9.56 17.7713 9.65333 17.7713 9.76C17.7713 9.86667 17.7846 9.93333 17.8113 9.96C17.8379 9.98667 17.8646 10.0267 17.8913 10.08C17.9446 10.1067 17.9579 10.1467 17.9313 10.2C17.9313 10.2533 17.9179 10.3067 17.8913 10.36C17.8913 10.4133 17.8913 10.4667 17.8913 10.52V10.72C17.9446 10.8533 17.9846 11 18.0113 11.16C18.0379 11.32 18.0646 11.4667 18.0913 11.6C18.0913 11.76 18.1446 11.8533 18.2513 11.88L18.3713 12C18.4246 12.0533 18.4513 12.1467 18.4513 12.28C18.3979 12.3333 18.3713 12.3867 18.3713 12.44C18.3446 12.4933 18.3446 12.56 18.3713 12.64C18.4513 12.72 18.4779 12.8 18.4513 12.88C18.3979 12.96 18.3979 13.0267 18.4513 13.08C18.5046 13.16 18.5312 13.28 18.5312 13.44V13.4C18.5579 13.4267 18.5979 13.44 18.6513 13.44C18.7846 13.4933 18.8246 13.5867 18.7713 13.72C18.7713 13.7733 18.7446 13.8267 18.6913 13.88C18.6113 13.96 18.5846 14.0267 18.6113 14.08C18.6913 14.4533 18.7713 14.8267 18.8513 15.2C18.9313 15.5733 18.9979 15.9467 19.0513 16.32L19.1713 17.28C19.2246 17.4933 19.2646 17.7067 19.2913 17.92C19.3179 18.1333 19.3579 18.3467 19.4113 18.56C19.4113 18.6933 19.4379 18.8667 19.4913 19.08C19.4913 19.1333 19.5446 19.16 19.6512 19.16C19.6512 19.1333 19.6646 19.12 19.6913 19.12C19.7179 19.12 19.7313 19.1333 19.7313 19.16C19.7579 19.1867 19.7979 19.2533 19.8513 19.36L19.9713 19.88C19.9979 19.9333 20.0113 20 20.0113 20.08C20.0113 20.1333 20.0246 20.1867 20.0513 20.24C20.0779 20.4 20.0246 20.5333 19.8913 20.64C19.8113 20.6667 19.7713 20.72 19.7713 20.8C19.7713 20.8267 19.7713 20.84 19.7713 20.84C19.7979 20.84 19.8113 20.8533 19.8113 20.88C19.8379 20.88 19.8513 20.8667 19.8513 20.84H19.8913C19.9446 20.8133 19.9979 20.8133 20.0513 20.84C20.1046 20.84 20.1313 20.8667 20.1313 20.92C20.1579 21.0267 20.1846 21.1467 20.2113 21.28C20.2379 21.4133 20.2379 21.4933 20.2113 21.52C20.2113 21.52 20.1979 21.5333 20.1713 21.56C20.1713 21.56 20.1579 21.56 20.1313 21.56C20.0246 21.56 19.9713 21.68 19.9713 21.92C19.9979 22.1867 20.0779 22.44 20.2113 22.68L20.4513 23.04C20.6646 23.4133 20.7713 23.8267 20.7713 24.28C20.7713 24.3333 20.7446 24.3867 20.6913 24.44C20.6113 24.52 20.5712 24.6133 20.5712 24.72C20.5712 24.88 20.5846 25.0133 20.6113 25.12C20.6113 25.3067 20.5713 25.44 20.4913 25.52C20.4113 25.6267 20.3713 25.76 20.3713 25.92C20.3446 26.16 20.2646 26.4 20.1313 26.64C19.8913 27.12 19.7713 27.6533 19.7713 28.24C19.7446 28.3467 19.7313 28.4533 19.7313 28.56C19.7313 28.6667 19.7313 28.7867 19.7313 28.92C19.7046 29.0267 19.6913 29.2 19.6913 29.44V29.96C19.6646 30.0667 19.6379 30.1733 19.6113 30.28C19.5846 30.3867 19.5446 30.4933 19.4913 30.6C19.4113 30.7067 19.3046 30.7867 19.1713 30.84C19.1446 30.84 19.1179 30.84 19.0912 30.84C19.0646 30.8667 19.0246 30.88 18.9713 30.88ZM33.1434 28.8C32.8768 28.7733 32.6101 28.7333 32.3434 28.68C32.1034 28.6533 31.8634 28.5867 31.6234 28.48L30.6234 28.12C30.2768 27.9867 29.9568 27.84 29.6634 27.68C29.3701 27.4933 29.0768 27.3067 28.7834 27.12C28.6501 26.9867 28.5168 26.8667 28.3834 26.76C28.2501 26.6267 28.1168 26.5067 27.9834 26.4C27.7701 26.1867 27.5568 25.9733 27.3434 25.76C27.1301 25.52 26.9301 25.2667 26.7434 25L25.7834 23.52C25.5434 23.1467 25.3301 22.76 25.1434 22.36C24.9568 21.9333 24.7968 21.5067 24.6634 21.08C24.3701 20.28 24.2234 19.4933 24.2234 18.72V18.08C24.2234 17.4133 24.2634 16.76 24.3434 16.12C24.3968 15.5867 24.5168 15.1067 24.7034 14.68C24.8101 14.4133 24.9034 14.1467 24.9834 13.88C25.0634 13.6133 25.1568 13.36 25.2634 13.12L25.3834 12.84C25.4368 12.4933 25.5568 12.1867 25.7434 11.92C25.9301 11.6267 26.0901 11.3467 26.2234 11.08C26.3301 10.8667 26.4501 10.68 26.5834 10.52C26.7168 10.3333 26.8368 10.1467 26.9434 9.96C26.9968 9.88 27.0634 9.81333 27.1434 9.76C27.2234 9.68 27.2901 9.6 27.3434 9.52C27.3968 9.46667 27.4368 9.4 27.4634 9.32C27.5168 9.21333 27.5568 9.12 27.5834 9.04C27.6368 8.96 27.7301 8.85333 27.8634 8.72C28.0234 8.64 28.1701 8.45333 28.3034 8.16C28.3568 8.05333 28.4101 7.97333 28.4634 7.92C28.6234 7.78667 28.7568 7.62667 28.8634 7.44C28.9968 7.25333 29.1434 7.08 29.3034 6.92C29.4101 6.81333 29.4634 6.66667 29.4634 6.48C29.4634 6.34666 29.4634 6.22666 29.4634 6.12C29.4901 5.98666 29.4901 5.86666 29.4634 5.76C29.4368 5.62666 29.4768 5.50667 29.5834 5.4C29.6368 5.34667 29.6768 5.28 29.7034 5.2C29.7301 5.12 29.7568 5.04 29.7834 4.96C29.8634 4.69333 30.0768 4.46667 30.4234 4.28C30.4768 4.22667 30.5434 4.2 30.6234 4.2C30.7301 4.17333 30.8234 4.14667 30.9034 4.12C31.0901 4.04 31.3034 4.02667 31.5434 4.08C31.6501 4.10667 31.7434 4.12 31.8234 4.12C31.9034 4.09333 31.9834 4.06666 32.0634 4.04C32.1701 3.98667 32.2634 3.94667 32.3434 3.92C32.4501 3.89333 32.5434 3.86667 32.6234 3.84C32.9968 3.70667 33.3834 3.72 33.7834 3.88C34.2101 4.04 34.5168 4.32 34.7034 4.72C34.7568 4.85333 34.8101 4.98667 34.8634 5.12C34.9168 5.25333 34.9568 5.38667 34.9834 5.52C35.0368 5.81333 35.0234 6.06667 34.9434 6.28C34.8901 6.38667 34.8634 6.45333 34.8634 6.48C34.8368 6.58666 34.8634 6.68 34.9434 6.76C34.9968 6.84 35.0634 6.90667 35.1434 6.96C35.4368 7.22667 35.7168 7.49333 35.9834 7.76C36.2501 8 36.5034 8.26667 36.7434 8.56C36.9568 8.77333 37.1301 9 37.2634 9.24C37.4234 9.45333 37.5701 9.69333 37.7034 9.96C37.7568 10.0933 37.8234 10.24 37.9034 10.4C37.9834 10.5333 38.0634 10.6667 38.1434 10.8C38.2768 11.04 38.3834 11.2933 38.4634 11.56C38.5701 11.8267 38.6768 12.0933 38.7834 12.36V12.4C38.8368 12.5867 38.8768 12.7867 38.9034 13C38.9568 13.1867 39.0368 13.3867 39.1434 13.6C39.2234 13.7867 39.2901 13.9867 39.3434 14.2C39.3968 14.3867 39.4501 14.5867 39.5034 14.8C39.5568 15.04 39.6101 15.28 39.6634 15.52C39.7434 15.76 39.7968 16 39.8234 16.24C39.8501 16.3467 39.8768 16.4533 39.9034 16.56C39.9301 16.64 39.9568 16.7333 39.9834 16.84C40.0368 17.08 40.0901 17.32 40.1434 17.56C40.1968 17.8 40.2368 18.04 40.2634 18.28L40.3834 18.56C40.4368 18.72 40.4901 18.9333 40.5434 19.2C40.6234 19.5467 40.6634 19.8933 40.6634 20.24C40.6901 20.5867 40.6901 20.9467 40.6634 21.32C40.6634 21.5067 40.6501 21.6533 40.6234 21.76C40.4634 22.32 40.2634 22.8933 40.0234 23.48C39.9168 23.6667 39.8101 23.8533 39.7034 24.04C39.5968 24.2 39.4901 24.3733 39.3834 24.56L39.0234 25.12C38.8901 25.36 38.7434 25.5733 38.5834 25.76C38.3168 26.1867 37.9968 26.56 37.6234 26.88C37.2501 27.2 36.8501 27.5067 36.4234 27.8C35.4901 28.52 34.3968 28.8533 33.1434 28.8ZM32.9834 24.84C33.5434 24.84 34.0234 24.68 34.4234 24.36C34.5568 24.2267 34.6901 24.1067 34.8234 24C34.9834 23.8667 35.1168 23.7333 35.2234 23.6C35.7301 23.04 36.1301 22.4533 36.4234 21.84L36.5434 21.44C36.5968 20.96 36.5968 20.48 36.5434 20L36.3034 18.68C36.2234 18.3333 36.1568 18 36.1034 17.68C36.0501 17.3333 35.9701 17 35.8634 16.68C35.7834 16.4933 35.7568 16.3467 35.7834 16.24C35.8101 16.1067 35.8101 15.9733 35.7834 15.84C35.7568 15.7067 35.7168 15.5733 35.6634 15.44C35.5834 15.0933 35.4901 14.7467 35.3834 14.4C35.2768 14.0533 35.1701 13.7067 35.0634 13.36C35.0368 13.28 35.0101 13.2 34.9834 13.12C34.9568 13.04 34.9301 12.96 34.9034 12.88C34.7168 12.5067 34.5168 12.1467 34.3034 11.8C34.0901 11.4533 33.8501 11.1333 33.5834 10.84C33.4501 10.68 33.3034 10.5333 33.1434 10.4C32.9834 10.24 32.8234 10.0933 32.6634 9.96C32.6368 9.90667 32.5968 9.88 32.5434 9.88C32.5168 9.85333 32.4768 9.82667 32.4234 9.8C32.3434 9.69333 32.2368 9.70667 32.1034 9.84C31.9701 9.97333 31.8234 10.12 31.6634 10.28C31.5301 10.44 31.3968 10.6 31.2634 10.76C31.1301 10.9467 30.9834 11.1333 30.8234 11.32C30.6901 11.5067 30.5568 11.6933 30.4234 11.88C30.2368 12.12 30.0634 12.36 29.9034 12.6C29.7434 12.84 29.5834 13.08 29.4234 13.32C28.8634 14.2267 28.4234 15.2267 28.1034 16.32C28.0501 16.48 28.0234 16.6 28.0234 16.68C27.9968 16.8667 27.9701 17.0533 27.9434 17.24C27.9434 17.4267 27.9434 17.6267 27.9434 17.84V18.16C27.9701 18.24 27.9834 18.32 27.9834 18.4C27.9834 18.48 27.9968 18.56 28.0234 18.64C28.0234 18.96 28.1034 19.3067 28.2634 19.68C28.4768 20.2133 28.7168 20.7333 28.9834 21.24C29.2501 21.7467 29.5568 22.2267 29.9034 22.68C29.9834 22.7867 30.0634 22.8933 30.1434 23C30.2501 23.1067 30.3434 23.2133 30.4234 23.32C30.6634 23.5867 30.9168 23.8267 31.1834 24.04C31.4768 24.2533 31.7701 24.44 32.0634 24.6C32.3834 24.76 32.6901 24.84 32.9834 24.84ZM60.8013 30.36H60.6013C60.5213 30.36 60.4279 30.3467 60.3213 30.32C60.2413 30.32 60.1479 30.32 60.0413 30.32C59.8546 30.3467 59.6946 30.3067 59.5613 30.2C59.4546 30.12 59.3346 30.0133 59.2013 29.88C59.1479 29.8267 59.0813 29.76 59.0013 29.68C58.9479 29.6267 58.8813 29.5867 58.8013 29.56C58.7479 29.5333 58.6946 29.4667 58.6413 29.36C58.6146 29.3067 58.5746 29.24 58.5213 29.16C58.4946 29.08 58.4546 29 58.4013 28.92C58.3479 28.7867 58.3346 28.64 58.3613 28.48C58.3879 28.4 58.4013 28.32 58.4013 28.24C58.4279 28.1867 58.4413 28.12 58.4413 28.04C58.4413 27.7733 58.4413 27.52 58.4413 27.28C58.4413 27.0133 58.4146 26.7467 58.3613 26.48C58.3346 26.4 58.3213 26.32 58.3213 26.24C58.3213 26.1333 58.3079 26.0267 58.2813 25.92C58.2813 25.7333 58.2679 25.5867 58.2413 25.48C58.2413 25.3467 58.2279 25.2267 58.2013 25.12C58.2013 25.0133 58.2013 24.9067 58.2013 24.8C58.1746 24.6133 58.1613 24.44 58.1613 24.28C58.1613 24.12 58.1346 23.9467 58.0813 23.76V23.64C58.0813 23.2933 58.0546 22.96 58.0013 22.64C57.9746 22.2933 57.9613 21.9467 57.9613 21.6C57.9613 21.44 57.9479 21.32 57.9213 21.24C57.8946 21 57.8679 20.76 57.8413 20.52C57.8413 20.2533 57.8413 19.9867 57.8413 19.72C57.8413 19.48 57.8413 19.24 57.8413 19C57.8413 18.7333 57.8146 18.48 57.7613 18.24C57.7346 18.1867 57.7213 18.12 57.7213 18.04C57.7213 17.96 57.7213 17.8933 57.7213 17.84C57.7213 16.7467 57.7213 15.6533 57.7213 14.56C57.7213 13.4667 57.7346 12.3867 57.7613 11.32C57.7613 11.1867 57.7613 11.0533 57.7613 10.92C57.7879 10.7867 57.8013 10.6533 57.8013 10.52C57.8013 10.44 57.8013 10.36 57.8013 10.28C57.8279 10.2 57.8413 10.1333 57.8413 10.08C57.8413 9.78667 57.8413 9.49333 57.8413 9.2C57.8679 8.88 57.8946 8.57333 57.9213 8.28C57.9746 8.2 57.9746 8.09333 57.9213 7.96C57.8946 7.93333 57.8546 7.92 57.8013 7.92L57.6813 8.04C57.6279 8.12 57.5613 8.2 57.4813 8.28C57.4013 8.36 57.3346 8.44 57.2813 8.52C57.1746 8.68 57.0546 8.85333 56.9213 9.04C56.8146 9.2 56.6946 9.37333 56.5613 9.56C56.3746 9.88 56.1746 10.2133 55.9613 10.56C55.7479 10.88 55.5879 11.2267 55.4813 11.6C55.4546 11.6533 55.4279 11.72 55.4013 11.8C55.3746 11.8533 55.3479 11.9067 55.3213 11.96C55.2146 12.2267 55.0946 12.4933 54.9613 12.76C54.8546 13 54.7479 13.2667 54.6413 13.56C54.4813 13.9067 54.2546 14.2267 53.9613 14.52C53.9079 14.5733 53.8546 14.6 53.8013 14.6C53.6679 14.68 53.5213 14.76 53.3613 14.84C53.2013 14.8933 53.0279 14.9067 52.8412 14.88H52.6013C52.3613 14.9333 52.1613 14.88 52.0013 14.72C51.8146 14.6667 51.6546 14.5733 51.5213 14.44C51.4146 14.3067 51.2946 14.16 51.1613 14C51.0546 13.8667 50.9613 13.7067 50.8813 13.52C50.8279 13.3333 50.8013 13.1467 50.8013 12.96C50.7746 12.9067 50.7613 12.84 50.7613 12.76C50.7613 12.68 50.7613 12.6133 50.7613 12.56C50.7346 12.5067 50.7079 12.4533 50.6813 12.4C50.6546 12.32 50.6413 12.2667 50.6413 12.24C50.6413 12.1867 50.6146 12.1067 50.5613 12C50.5079 11.8933 50.4013 11.68 50.2413 11.36C50.0813 11.04 50.0013 10.8933 50.0013 10.92C49.9213 10.7867 49.8413 10.64 49.7613 10.48C49.6813 10.32 49.5879 10.1733 49.4813 10.04L49.2413 9.6C49.1879 9.6 49.1479 9.58667 49.1213 9.56L49.0813 9.6C49.0813 9.68 49.0813 9.76 49.0813 9.84C49.0813 9.92 49.0946 10 49.1213 10.08C49.1746 10.3733 49.2013 10.6667 49.2013 10.96C49.2013 11.2533 49.1746 11.5467 49.1213 11.84C49.1213 12 49.1346 12.1333 49.1613 12.24C49.1879 12.2933 49.2013 12.3867 49.2013 12.52C49.2013 12.68 49.2013 12.84 49.2013 13C49.2279 13.16 49.2279 13.32 49.2013 13.48C49.1746 13.6133 49.1613 13.76 49.1613 13.92C49.1879 14.0533 49.2146 14.1867 49.2413 14.32V14.72C49.1879 14.88 49.1879 15.0533 49.2413 15.24C49.2679 15.3733 49.2679 15.52 49.2413 15.68C49.2413 15.8133 49.2546 15.9467 49.2813 16.08C49.2813 16.2133 49.2546 16.3867 49.2013 16.6C49.0413 17.24 49.0813 17.8533 49.3213 18.44C49.3479 18.5467 49.3746 18.6533 49.4013 18.76C49.4279 18.84 49.4279 18.9333 49.4013 19.04C49.4013 19.12 49.4013 19.2 49.4013 19.28C49.4013 19.36 49.4146 19.44 49.4413 19.52C49.4946 19.6267 49.5213 19.7333 49.5213 19.84C49.5479 20.1333 49.5613 20.36 49.5613 20.52C49.5879 20.68 49.6146 20.8 49.6413 20.88C49.6946 21.1733 49.7479 21.48 49.8013 21.8C49.8546 22.0933 49.9079 22.3867 49.9613 22.68C50.0146 23.0267 50.0679 23.3733 50.1213 23.72C50.2013 24.04 50.2413 24.3733 50.2413 24.72C50.2413 24.8267 50.2546 24.9067 50.2813 24.96C50.3346 25.1733 50.3613 25.4 50.3613 25.64C50.3613 25.8533 50.3746 26.0667 50.4013 26.28C50.4013 26.5733 50.3346 26.8 50.2013 26.96C50.1479 27.0667 50.1213 27.1333 50.1213 27.16C49.8813 27.6667 49.4546 27.96 48.8413 28.04C48.7613 28.0667 48.6813 28.08 48.6013 28.08C48.5213 28.08 48.4413 28.08 48.3613 28.08C48.0679 28.1333 47.8546 28.08 47.7213 27.92C47.6679 27.8667 47.6146 27.84 47.5612 27.84C47.4279 27.8667 47.2946 27.7867 47.1613 27.6C47.0813 27.4667 46.9613 27.3467 46.8013 27.24C46.7213 27.16 46.6546 27.0267 46.6013 26.84C46.5746 26.7867 46.5479 26.7333 46.5213 26.68C46.5213 26.6267 46.5213 26.5733 46.5213 26.52C46.4946 26.1467 46.4546 25.7867 46.4013 25.44C46.3479 25.0667 46.3079 24.7067 46.2813 24.36L46.2413 23.96C46.2146 23.8533 46.2013 23.76 46.2013 23.68C46.2013 23.6 46.1879 23.5067 46.1613 23.4V23.16C46.0813 22.7867 46.0413 22.4133 46.0413 22.04C46.0413 21.64 46.0546 21.2533 46.0813 20.88C46.1079 20.64 46.1213 20.4 46.1213 20.16C46.1213 19.8933 46.1346 19.64 46.1613 19.4V18.48C46.1613 18.3467 46.1613 18.2133 46.1613 18.08C46.1613 17.92 46.1479 17.7733 46.1213 17.64C46.0946 17.48 46.0813 17.32 46.0813 17.16C46.0813 17 46.0813 16.84 46.0813 16.68V14.84C46.0546 14.6267 46.0413 14.4133 46.0413 14.2C46.0413 13.96 46.0413 13.7333 46.0413 13.52C46.0413 13.44 46.0413 13.36 46.0413 13.28C46.0413 13.1733 46.0279 13.08 46.0013 13C46.0013 12.8667 45.9879 12.7467 45.9613 12.64C45.9613 12.5067 45.9479 12.3867 45.9213 12.28V12C45.8679 11.76 45.8413 11.5333 45.8413 11.32C45.8413 11.08 45.8413 10.84 45.8413 10.6C45.8413 10.3867 45.8413 10.1733 45.8413 9.96C45.8413 9.72 45.8146 9.50667 45.7613 9.32C45.7346 9.24 45.7213 9.16 45.7213 9.08C45.7213 9 45.7213 8.92 45.7213 8.84C45.7213 8.65333 45.7213 8.48 45.7213 8.32C45.7213 8.13333 45.6946 7.94667 45.6413 7.76C45.6146 7.70667 45.6013 7.61333 45.6013 7.48V5.48C45.6013 5.34667 45.6013 5.22667 45.6013 5.12C45.6013 4.98667 45.5746 4.86667 45.5213 4.76C45.4413 4.49333 45.4546 4.18667 45.5613 3.84C45.6146 3.70667 45.6679 3.61333 45.7213 3.56C45.7746 3.48 45.8279 3.4 45.8813 3.32C45.9346 3.24 45.9746 3.16 46.0013 3.08C46.0546 3 46.0946 2.96 46.1213 2.96C46.2279 2.93333 46.3079 2.89333 46.3613 2.84C46.4413 2.78667 46.5079 2.73333 46.5613 2.68L46.8013 2.56C46.8546 2.53333 46.9346 2.52 47.0413 2.52C47.1746 2.54667 47.3079 2.57333 47.4413 2.6C47.6013 2.6 47.7479 2.61333 47.8813 2.64C48.0413 2.64 48.1613 2.70667 48.2413 2.84C48.3746 3.02667 48.5079 3.21333 48.6413 3.4C48.7746 3.58667 48.8813 3.78667 48.9613 4C49.0413 4.18666 49.1479 4.34667 49.2813 4.48C49.4413 4.69333 49.6013 4.90667 49.7613 5.12C49.9213 5.33333 50.0946 5.54667 50.2813 5.76C50.3613 5.84 50.4279 5.93333 50.4813 6.04C50.5613 6.14667 50.6279 6.25333 50.6813 6.36C50.8146 6.54667 50.9346 6.73333 51.0413 6.92C51.1746 7.08 51.3079 7.25333 51.4413 7.44L52.0413 8.4C52.0946 8.50667 52.1479 8.61333 52.2013 8.72C52.2546 8.8 52.3079 8.88 52.3613 8.96C52.4146 9.09333 52.4946 9.10667 52.6013 9C52.7079 8.86667 52.8146 8.73333 52.9213 8.6C53.0546 8.44 53.1746 8.29333 53.2813 8.16C53.5213 7.86667 53.7613 7.56 54.0013 7.24C54.2413 6.92 54.4946 6.61333 54.7613 6.32L55.0013 5.96C55.1879 5.69333 55.3613 5.44 55.5213 5.2C55.7079 4.93333 55.8813 4.66667 56.0413 4.4C56.2279 4.10667 56.3879 3.81333 56.5213 3.52C56.6813 3.22667 56.8146 2.93333 56.9213 2.64L57.4013 1.56C57.5613 1.24 57.7879 0.973332 58.0813 0.759998C58.4813 0.439999 58.9213 0.319999 59.4013 0.399998C59.5879 0.426666 59.7613 0.479999 59.9213 0.559998C60.0813 0.613332 60.2413 0.666666 60.4013 0.719998C60.5613 0.773333 60.6679 0.893333 60.7213 1.08C60.7746 1.16 60.8146 1.24 60.8413 1.32C60.8679 1.4 60.8813 1.48 60.8813 1.56C60.9079 1.74667 60.9479 1.92 61.0013 2.08C61.0546 2.21333 61.0946 2.37333 61.1213 2.56L61.1613 2.96C61.2146 3.2 61.2679 3.44 61.3213 3.68C61.4013 3.92 61.4679 4.16 61.5213 4.4V4.48C61.5479 4.74667 61.5746 5.01333 61.6013 5.28C61.6546 5.52 61.6679 5.77333 61.6413 6.04V6.96C61.6413 7.09333 61.6413 7.22667 61.6413 7.36C61.6413 7.49333 61.6279 7.62667 61.6013 7.76C61.5746 7.94667 61.5613 8.13333 61.5613 8.32C61.5613 8.48 61.5613 8.65333 61.5613 8.84C61.5346 8.94667 61.5213 9.05333 61.5213 9.16C61.5213 9.26667 61.5079 9.37333 61.4813 9.48C61.4546 9.58667 61.4413 9.69333 61.4413 9.8C61.4413 9.88 61.4413 9.98667 61.4413 10.12V11.24C61.4413 11.4267 61.4279 11.6 61.4013 11.76C61.4013 11.92 61.3879 12.0933 61.3613 12.28C61.3346 12.3867 61.3213 12.4933 61.3213 12.6C61.3213 12.68 61.3213 12.7733 61.3213 12.88V15.32C61.3213 15.5067 61.3213 15.6933 61.3213 15.88C61.3479 16.0667 61.3746 16.2533 61.4013 16.44C61.4279 16.5733 61.4413 16.72 61.4413 16.88C61.4413 17.0133 61.4413 17.1467 61.4413 17.28C61.4679 17.4667 61.4813 17.6533 61.4813 17.84C61.4813 18 61.4946 18.1867 61.5213 18.4V18.84C61.5479 19.0533 61.5613 19.28 61.5613 19.52C61.5613 19.7333 61.5613 19.9467 61.5613 20.16V20.68C61.6146 20.8667 61.6413 21.0667 61.6413 21.28C61.6413 21.4933 61.6546 21.7067 61.6813 21.92V22.2C61.7346 22.36 61.7613 22.52 61.7613 22.68C61.7613 22.84 61.7746 23 61.8013 23.16L61.9213 24.6C61.9479 24.7067 61.9613 24.8133 61.9613 24.92C61.9879 25 62.0013 25.0933 62.0013 25.2C62.0279 25.3067 62.0413 25.4133 62.0413 25.52C62.0413 25.6 62.0546 25.6933 62.0813 25.8C62.0813 25.8267 62.0813 25.8667 62.0813 25.92C62.1079 25.9733 62.1213 26.0267 62.1213 26.08C62.1213 26.2667 62.1346 26.4667 62.1613 26.68C62.2146 26.8933 62.2546 27.1067 62.2812 27.32L62.4413 28.44C62.4413 28.6 62.4279 28.7067 62.4013 28.76C62.3746 28.92 62.3079 29.0667 62.2013 29.2C62.1213 29.36 62.0546 29.5067 62.0013 29.64C62.0013 29.6667 61.9879 29.68 61.9613 29.68C61.7746 29.84 61.5879 29.9733 61.4013 30.08C61.2146 30.2133 61.0146 30.3067 60.8013 30.36ZM72.6619 28.28C72.5019 28.28 72.3952 28.2667 72.3419 28.24C72.2085 28.1867 72.0752 28.16 71.9419 28.16C71.8352 28.1867 71.7152 28.2 71.5819 28.2C71.5552 28.2 71.5285 28.2 71.5019 28.2C71.4752 28.2267 71.4485 28.24 71.4219 28.24C71.2352 28.2667 71.0485 28.28 70.8619 28.28C70.7019 28.28 70.5419 28.2533 70.3819 28.2C70.3552 28.1733 70.3285 28.16 70.3019 28.16C70.1152 28.1867 69.9552 28.1333 69.8219 28C69.6885 27.8667 69.5552 27.7467 69.4219 27.64C69.2885 27.5067 69.2219 27.36 69.2219 27.2L69.1019 26.88C69.0219 26.6933 68.9952 26.52 69.0219 26.36C69.0485 26.3067 69.0485 26.2533 69.0219 26.2C69.0219 26.1467 69.0219 26.0933 69.0219 26.04C68.9952 25.9867 68.9819 25.9333 68.9819 25.88C68.9819 25.8 68.9685 25.7333 68.9419 25.68C68.8885 25.44 68.8485 25.2 68.8219 24.96C68.8219 24.6933 68.8352 24.44 68.8619 24.2C68.8885 24.04 68.9819 23.7733 69.1419 23.4C69.3019 23 69.3952 22.76 69.4219 22.68C69.5019 22.5467 69.5419 22.44 69.5419 22.36C69.5152 22.0667 69.5019 21.7733 69.5019 21.48C69.5285 21.16 69.5419 20.8533 69.5419 20.56C69.5419 20.3733 69.5819 20.2267 69.6619 20.12C69.7685 19.9333 69.7819 19.7333 69.7019 19.52L69.5819 19.08C69.4219 18.7867 69.4352 18.5333 69.6219 18.32C69.6219 18.2933 69.6219 18.28 69.6219 18.28C69.6485 18.2533 69.6619 18.2267 69.6619 18.2C69.7152 18.1467 69.7285 18.08 69.7019 18C69.6752 17.8933 69.6619 17.8133 69.6619 17.76C69.6619 17.6533 69.6752 17.5467 69.7019 17.44C69.7552 17.3067 69.7685 17.1867 69.7419 17.08C69.7419 17.08 69.7152 17.0533 69.6619 17C69.6352 16.9467 69.6219 16.84 69.6219 16.68C69.6485 16.52 69.6619 16.4267 69.6619 16.4V15.28C69.6885 15.1467 69.7019 15.0267 69.7019 14.92C69.7019 14.7867 69.7152 14.6533 69.7419 14.52C69.7685 14.36 69.7685 14.2 69.7419 14.04C69.7419 13.8533 69.7419 13.6667 69.7419 13.48C69.7152 13.3467 69.6885 13.2 69.6619 13.04C69.6619 12.88 69.6619 12.72 69.6619 12.56C69.6352 12.5067 69.6219 12.44 69.6219 12.36C69.6219 12.28 69.6219 12.2133 69.6219 12.16C69.5952 12.0267 69.5685 11.8933 69.5419 11.76C69.5419 11.6267 69.5419 11.4933 69.5419 11.36C69.5419 11.3067 69.4885 11.1333 69.3819 10.84C69.2752 10.52 69.2352 10.2533 69.2619 10.04C69.2885 9.98667 69.3019 9.92 69.3019 9.84C69.3019 9.76 69.2752 9.69333 69.2219 9.64C69.1685 9.61333 69.1419 9.56 69.1419 9.48V9.36C69.2219 9.04 69.1819 8.72 69.0219 8.4C68.9152 8.24 68.8752 8.08 68.9019 7.92C68.9019 7.70666 68.8085 7.54667 68.6219 7.44C68.4885 7.30667 68.3685 7.14666 68.2619 6.96C68.1552 6.77333 68.0885 6.58666 68.0619 6.4C68.0352 6.26667 68.0219 6.13333 68.0219 6C68.0219 5.86667 68.0219 5.74667 68.0219 5.64C68.0219 5.53333 68.0352 5.46667 68.0619 5.44C68.1685 5.33333 68.2219 5.21333 68.2219 5.08C68.2219 4.92 68.2352 4.8 68.2619 4.72C68.2885 4.69333 68.3152 4.68 68.3419 4.68C68.3685 4.68 68.3952 4.66667 68.4219 4.64C68.5285 4.61333 68.5819 4.52 68.5819 4.36C68.5285 4.25333 68.5019 4.16 68.5019 4.08C68.4752 3.97333 68.5152 3.88 68.6219 3.8C68.6752 3.69333 68.7419 3.66667 68.8219 3.72C69.0085 3.8 69.2219 3.77333 69.4619 3.64C69.5685 3.58667 69.6352 3.56 69.6619 3.56C69.7419 3.56 69.7819 3.56 69.7819 3.56C69.8085 3.53333 69.8885 3.52 70.0219 3.52C70.1819 3.54667 70.3285 3.49333 70.4619 3.36C70.6485 3.17333 70.8752 3.08 71.1419 3.08H73.6219C74.2352 3.10667 74.8485 3.10667 75.4619 3.08C76.0752 3.05333 76.6752 3.04 77.2619 3.04C77.3952 3.04 77.5019 3.04 77.5819 3.04C77.6885 3.01333 77.7952 2.98667 77.9019 2.96C78.0619 2.88 78.2485 2.84 78.4619 2.84H79.3819C79.5952 2.84 79.7819 2.84 79.9419 2.84C80.1285 2.81333 80.3152 2.78666 80.5019 2.76C80.6085 2.73333 80.7019 2.72 80.7819 2.72C80.8885 2.72 80.9952 2.72 81.1019 2.72C81.2085 2.72 81.3152 2.72 81.4219 2.72C81.5285 2.72 81.6352 2.70667 81.7419 2.68C81.9552 2.65333 82.1819 2.64 82.4219 2.64C82.6619 2.61333 82.8885 2.6 83.1019 2.6C83.2085 2.6 83.3019 2.6 83.3819 2.6C83.4885 2.57333 83.5952 2.54667 83.7019 2.52C83.9152 2.46666 84.1152 2.44 84.3019 2.44C84.5152 2.41333 84.7152 2.38667 84.9019 2.36C85.1152 2.33333 85.3152 2.30667 85.5019 2.28C85.7152 2.25333 85.9152 2.22666 86.1019 2.2C86.3419 2.2 86.5152 2.22667 86.6219 2.28C86.7819 2.38667 86.9285 2.48 87.0619 2.56C87.2219 2.64 87.3685 2.74667 87.5019 2.88C87.6085 2.98667 87.6752 3.08 87.7019 3.16C87.7285 3.26666 87.7552 3.37333 87.7819 3.48C87.8085 3.58667 87.8352 3.70667 87.8619 3.84V4.12C87.8352 4.25333 87.8085 4.4 87.7819 4.56C87.7819 4.69333 87.7685 4.84 87.7419 5C87.6885 5.10666 87.6219 5.2 87.5419 5.28L86.8219 6C86.5552 6.08 86.2885 6.13333 86.0219 6.16C85.7819 6.18667 85.5285 6.18667 85.2619 6.16H84.9819C84.8485 6.18667 84.7152 6.2 84.5819 6.2C84.4485 6.2 84.3152 6.18667 84.1819 6.16C84.0219 6.13333 83.8619 6.13333 83.7019 6.16C83.5419 6.16 83.3819 6.16 83.2219 6.16C83.1152 6.16 83.0085 6.17333 82.9019 6.2C82.8219 6.2 82.7285 6.18667 82.6219 6.16C82.4885 6.13333 82.3552 6.13333 82.2219 6.16C82.1152 6.16 81.9952 6.17333 81.8619 6.2C81.7552 6.2 81.6352 6.21333 81.5019 6.24C81.3952 6.24 81.2752 6.24 81.1419 6.24C80.7952 6.29333 80.4219 6.32 80.0219 6.32C79.6485 6.32 79.2752 6.34666 78.9019 6.4C78.6619 6.37333 78.4352 6.38667 78.2219 6.44C78.0085 6.46666 77.7819 6.49333 77.5419 6.52C77.3285 6.54667 77.1019 6.56 76.8619 6.56C76.6219 6.56 76.3952 6.58667 76.1819 6.64C75.9152 6.64 75.6485 6.68 75.3819 6.76C75.1419 6.81333 74.8885 6.85333 74.6219 6.88L74.3419 6.92C74.1552 6.92 73.9819 6.94667 73.8219 7C73.6619 7.02666 73.4885 7.06667 73.3019 7.12C73.1952 7.14667 73.0885 7.17333 72.9819 7.2C72.8752 7.2 72.7552 7.21333 72.6219 7.24C72.5419 7.24 72.4485 7.26666 72.3419 7.32C72.2619 7.34667 72.2219 7.42667 72.2219 7.56L72.3419 7.92C72.3685 7.97333 72.3552 8.10667 72.3019 8.32C72.2752 8.53333 72.2485 8.69333 72.2219 8.8C72.2219 8.88 72.2352 8.96 72.2619 9.04C72.2885 9.12 72.3152 9.2 72.3419 9.28C72.4219 9.49333 72.4619 9.73333 72.4619 10C72.4619 10.24 72.4885 10.4667 72.5419 10.68C72.5685 10.7867 72.5819 10.9067 72.5819 11.04C72.5819 11.1467 72.5952 11.2667 72.6219 11.4C72.6219 11.4533 72.6219 11.52 72.6219 11.6C72.6485 11.6533 72.6619 11.72 72.6619 11.8C72.6619 11.88 72.6485 11.9333 72.6219 11.96C72.5419 12.0667 72.5019 12.1867 72.5019 12.32C72.5019 12.4533 72.5019 12.5867 72.5019 12.72C72.6352 12.9867 72.7019 13.2533 72.7019 13.52C72.7019 13.7867 72.7019 14.0533 72.7019 14.32C72.7019 14.4 72.7685 14.4267 72.9019 14.4H72.9419C72.9952 14.2933 73.0485 14.2133 73.1019 14.16C73.1819 14.16 73.2752 14.1333 73.3819 14.08C73.4619 14.0267 73.5685 14 73.7019 14C73.9152 14.0267 74.1152 14.0267 74.3019 14C74.4885 13.9467 74.6752 13.8933 74.8619 13.84C76.1152 13.52 77.2885 13.1067 78.3819 12.6C78.6752 12.4667 78.9819 12.36 79.3019 12.28C79.6219 12.1733 79.9419 12.1067 80.2619 12.08H80.3819C80.6219 12.0533 80.8619 12.0267 81.1019 12C81.3419 11.9733 81.5819 11.96 81.8219 11.96C82.1419 11.9333 82.4485 11.8933 82.7419 11.84C83.0619 11.7867 83.3819 11.7467 83.7019 11.72C83.8885 11.6667 84.0619 11.6267 84.2219 11.6C84.3819 11.5467 84.5552 11.48 84.7419 11.4C85.0885 11.2667 85.4085 11.2 85.7019 11.2C85.9152 11.2267 86.1152 11.28 86.3019 11.36C86.4885 11.4133 86.6752 11.4933 86.8619 11.6C87.2619 11.8667 87.4619 12.2667 87.4619 12.8C87.4619 13.0133 87.4352 13.2267 87.3819 13.44C87.3552 13.6533 87.3419 13.8667 87.3419 14.08C87.3419 14.1333 87.3152 14.1867 87.2619 14.24L87.1419 14.44C87.1152 14.5467 87.0885 14.6533 87.0619 14.76C87.0352 14.8667 86.9685 14.9467 86.8619 15C86.7019 15.1333 86.5285 15.28 86.3419 15.44C86.1819 15.5733 85.9952 15.6667 85.7819 15.72C85.6752 15.7467 85.5685 15.7733 85.4619 15.8C85.3819 15.8267 85.2885 15.84 85.1819 15.84C84.7552 15.84 84.3152 15.8667 83.8619 15.92C83.4352 15.9733 82.9952 16.0267 82.5419 16.08C82.1952 16.1067 81.8485 16.1467 81.5019 16.2C81.1819 16.2533 80.8485 16.28 80.5019 16.28C80.1819 16.28 79.8219 16.3467 79.4219 16.48C79.1552 16.5333 78.8752 16.5867 78.5819 16.64C78.2885 16.6933 77.9952 16.7333 77.7019 16.76C77.4885 16.7867 77.2619 16.8267 77.0219 16.88C76.8085 16.9067 76.5952 16.9333 76.3819 16.96L75.7019 17.08C75.6485 17.1067 75.5685 17.12 75.4619 17.12C75.2752 17.1733 75.0885 17.2133 74.9019 17.24C74.7152 17.2667 74.5285 17.3067 74.3419 17.36C74.1552 17.3867 73.9685 17.4267 73.7819 17.48C73.6219 17.5333 73.4485 17.5867 73.2619 17.64C73.1285 17.6667 73.0219 17.72 72.9419 17.8C72.8619 17.8533 72.7952 17.9333 72.7419 18.04C72.7152 18.12 72.7152 18.2 72.7419 18.28C72.7685 18.3867 72.7552 18.4933 72.7019 18.6C72.7285 18.8667 72.7419 19.1333 72.7419 19.4C72.7685 19.6667 72.7685 19.9333 72.7419 20.2C72.7952 20.4133 72.8085 20.6267 72.7819 20.84C72.7819 21.0533 72.7685 21.2667 72.7419 21.48C72.6885 21.8 72.7019 22.0667 72.7819 22.28C72.8619 22.6267 72.8352 22.9867 72.7019 23.36C72.6485 23.52 72.6485 23.6267 72.7019 23.68C72.7552 23.76 72.7552 23.8533 72.7019 23.96V24.2C72.6752 24.4133 72.7685 24.52 72.9819 24.52H73.0619C73.2485 24.52 73.4352 24.5867 73.6219 24.72C73.7552 24.8533 73.9152 24.8933 74.1019 24.84L75.2219 24.72C75.3819 24.6933 75.5419 24.68 75.7019 24.68C75.8619 24.6533 76.0219 24.64 76.1819 24.64C76.2352 24.6133 76.3152 24.6267 76.4219 24.68C76.5552 24.76 76.6752 24.7733 76.7819 24.72C76.8352 24.6667 76.9019 24.6267 76.9819 24.6C77.0885 24.5733 77.1685 24.5333 77.2219 24.48C77.3819 24.32 77.5819 24.2667 77.8219 24.32C78.0352 24.3733 78.2085 24.36 78.3419 24.28C78.5819 24.2 78.8085 24.1733 79.0219 24.2C79.1552 24.2267 79.2885 24.2133 79.4219 24.16C79.5552 24.1067 79.6885 24.08 79.8219 24.08C79.8752 24.08 79.9152 24.0933 79.9419 24.12C79.9685 24.12 79.9952 24.1067 80.0219 24.08C80.0752 24.08 80.1285 24.0667 80.1819 24.04C80.2352 24.0133 80.2752 24 80.3019 24C80.4885 23.92 80.6619 23.8933 80.8219 23.92C80.9552 23.92 81.0219 23.92 81.0219 23.92C81.1285 23.8933 81.2219 23.8933 81.3019 23.92C81.4085 23.9467 81.5019 23.9867 81.5819 24.04C81.7152 24.0667 81.8219 24.1067 81.9019 24.16C82.0085 24.2133 82.1152 24.2533 82.2219 24.28C82.2752 24.28 82.3152 24.2933 82.3419 24.32C82.4752 24.4267 82.6352 24.52 82.8219 24.6C83.0352 24.68 83.1552 24.7733 83.1819 24.88C83.2352 25.04 83.2619 25.2 83.2619 25.36C83.2619 25.4933 83.2752 25.64 83.3019 25.8C83.3019 25.88 83.2885 25.96 83.2619 26.04C83.2619 26.12 83.2485 26.2 83.2219 26.28C83.1685 26.3867 83.1019 26.5067 83.0219 26.64C82.9685 26.7733 82.8885 26.8933 82.7819 27C82.7285 27.0533 82.6752 27.1067 82.6219 27.16C82.5952 27.2133 82.5552 27.2667 82.5019 27.32C82.3952 27.4267 82.2752 27.52 82.1419 27.6C82.0085 27.68 81.8619 27.72 81.7019 27.72C81.5952 27.72 81.5152 27.7333 81.4619 27.76C81.3552 27.8133 81.2485 27.84 81.1419 27.84C81.0352 27.84 80.9152 27.84 80.7819 27.84C80.5952 27.8667 80.4085 27.8933 80.2219 27.92C80.0619 27.92 79.8885 27.9067 79.7019 27.88C79.5952 27.8533 79.5019 27.8533 79.4219 27.88C79.1552 27.96 78.8885 27.9733 78.6219 27.92C78.3552 27.92 78.0885 27.9333 77.8219 27.96C77.5819 27.96 77.3419 27.96 77.1019 27.96H76.5819C76.5019 27.96 76.4352 27.9733 76.3819 28C76.2752 28.0533 76.1419 28.08 75.9819 28.08C75.8485 28.08 75.7152 28.0667 75.5819 28.04H75.1819C75.1552 28.04 75.1152 28.04 75.0619 28.04C75.0085 28.0667 74.9552 28.0667 74.9019 28.04C74.8219 28.0133 74.7419 28 74.6619 28C74.6085 28.0267 74.5419 28.0533 74.4619 28.08C74.4085 28.08 74.3552 28.08 74.3019 28.08C74.2752 28.1067 74.2352 28.12 74.1819 28.12C73.9152 28.0933 73.6619 28.0933 73.4219 28.12C73.1819 28.1733 72.9285 28.2267 72.6619 28.28Z" fill="white"/>
</svg>
