<svg width="150" height="35" viewBox="0 0 149 35" fill="none" xmlns="http://www.w3.org/2000/svg">
<path d="M2.10422 32.36C1.86422 32.28 1.67755 32.12 1.54422 31.88L1.42422 31.44C1.39755 31.3067 1.38422 31.1733 1.38422 31.04C1.38422 30.9067 1.37089 30.7733 1.34422 30.64C1.31755 30.5333 1.29089 30.4267 1.26422 30.32C1.26422 30.24 1.23755 30.16 1.18422 30.08C1.13089 29.9733 1.07755 29.8667 1.02422 29.76C0.970886 29.6533 0.917552 29.5467 0.864219 29.44C0.570886 28.8 0.477552 28.1867 0.584219 27.6V27.4C0.610886 27.08 0.637552 26.7733 0.664219 26.48C0.690886 26.16 0.717552 25.84 0.744219 25.52C0.744219 25.4133 0.744219 25.3067 0.744219 25.2C0.770885 25.0933 0.784219 24.9867 0.784219 24.88C0.784219 24.8 0.784219 24.72 0.784219 24.64C0.810885 24.56 0.824219 24.4933 0.824219 24.44C0.824219 24.3067 0.824219 24.16 0.824219 24C0.850886 23.84 0.864219 23.6933 0.864219 23.56V23.32C0.837552 22.8933 0.824219 22.48 0.824219 22.08C0.824219 21.6533 0.824219 21.2267 0.824219 20.8C0.824219 20.6667 0.824219 20.5333 0.824219 20.4C0.824219 20.24 0.810885 20.0933 0.784219 19.96C0.757552 19.9067 0.744219 19.8267 0.744219 19.72C0.770885 19.5333 0.770885 19.36 0.744219 19.2C0.744219 19.04 0.744219 18.88 0.744219 18.72C0.744219 18.6133 0.744219 18.52 0.744219 18.44C0.744219 18.3333 0.757552 18.24 0.784219 18.16C0.810885 17.8933 0.810885 17.64 0.784219 17.4C0.757552 17.08 0.730885 16.76 0.704219 16.44C0.677552 16.12 0.637552 15.8133 0.584219 15.52C0.530886 15.0667 0.477552 14.6133 0.424219 14.16C0.397552 13.7067 0.397552 13.2533 0.424219 12.8V11.6C0.424219 11.4667 0.424219 11.3333 0.424219 11.2C0.450885 11.0667 0.464219 10.9467 0.464219 10.84V10.52C0.437552 10.3067 0.424219 10.0933 0.424219 9.88C0.450885 9.64 0.477552 9.4 0.504219 9.16V8.72C0.504219 8.34667 0.504219 7.97333 0.504219 7.6C0.530885 7.22667 0.544219 6.86667 0.544219 6.52C0.544219 6.30667 0.544219 6.10667 0.544219 5.92C0.544219 5.70667 0.517552 5.50667 0.464219 5.32C0.437552 5 0.464219 4.65333 0.544219 4.28C0.624219 4.06667 0.717552 3.86667 0.824219 3.68C0.930885 3.49333 1.05089 3.32 1.18422 3.16C1.66422 2.6 2.29089 2.32 3.06422 2.32C3.30422 2.34667 3.53089 2.4 3.74422 2.48C3.98422 2.53333 4.19755 2.64 4.38422 2.8C4.43755 2.82667 4.51755 2.89333 4.62422 3C4.75755 3.10667 4.90422 3.21333 5.06422 3.32C5.25089 3.4 5.43755 3.46666 5.62422 3.52C5.83755 3.54667 6.05089 3.58667 6.26422 3.64C6.50422 3.69333 6.73089 3.74667 6.94422 3.8C7.02422 3.82667 7.13089 3.84 7.26422 3.84C7.39755 3.84 7.50422 3.8 7.58422 3.72C7.63755 3.66667 7.69089 3.62667 7.74422 3.6C7.82422 3.54666 7.90422 3.50666 7.98422 3.48C8.30422 3.29333 8.59755 3.28 8.86422 3.44C8.94422 3.46666 9.01089 3.50667 9.06422 3.56C9.14422 3.58667 9.21089 3.61333 9.26422 3.64C9.55755 3.77333 9.78422 3.93333 9.94422 4.12C10.0776 4.28 10.2509 4.38667 10.4642 4.44C10.5976 4.46667 10.7042 4.50667 10.7842 4.56C10.8909 4.61333 10.9976 4.69333 11.1042 4.8C11.2109 4.88 11.3176 4.94667 11.4242 5C11.5576 5.05333 11.6776 5.10667 11.7842 5.16C11.9976 5.18667 12.1709 5.30667 12.3042 5.52C12.4109 5.73333 12.5842 5.88 12.8242 5.96C12.9576 5.98667 13.0909 6.06667 13.2242 6.2C13.2776 6.28 13.4109 6.37333 13.6242 6.48C13.7576 6.50667 13.8642 6.57333 13.9442 6.68C14.0509 6.76 14.1442 6.86666 14.2242 7L14.3042 7.12C14.4909 7.52 14.7976 7.89333 15.2242 8.24C15.3842 8.37333 15.5309 8.53333 15.6642 8.72C15.7976 8.88 15.8909 9.06667 15.9442 9.28C15.9976 9.38667 16.0509 9.49333 16.1042 9.6C16.1842 9.70666 16.2509 9.82666 16.3042 9.96C16.3576 10.04 16.3976 10.12 16.4242 10.2C16.4509 10.28 16.4776 10.3733 16.5042 10.48C16.5309 10.5867 16.5576 10.68 16.5842 10.76C16.6109 10.84 16.6376 10.9333 16.6642 11.04C16.6909 11.0933 16.7042 11.16 16.7042 11.24C16.7042 11.2933 16.7176 11.3467 16.7442 11.4C16.8242 11.6933 16.8776 12 16.9042 12.32C16.9576 12.64 16.9976 12.96 17.0242 13.28C17.0509 13.4667 17.0509 13.6533 17.0242 13.84C17.0242 14.0267 17.0242 14.2267 17.0242 14.44C17.0242 14.5733 17.0109 14.72 16.9842 14.88C16.9842 15.0133 16.9709 15.1467 16.9442 15.28C16.9442 15.36 16.9176 15.4533 16.8642 15.56C16.6242 16.28 16.2376 16.92 15.7042 17.48C15.5976 17.5867 15.4909 17.7067 15.3842 17.84C15.2776 17.9467 15.1709 18.0533 15.0642 18.16C14.9042 18.32 14.7442 18.4667 14.5842 18.6C14.4242 18.7333 14.2642 18.8667 14.1042 19L13.9842 19.12C13.7709 19.2267 13.5576 19.3333 13.3442 19.44C13.1309 19.5467 12.9042 19.6267 12.6642 19.68C12.5842 19.68 12.5309 19.6933 12.5042 19.72C12.3176 19.8267 12.1042 19.88 11.8642 19.88C11.6509 19.88 11.4376 19.8667 11.2242 19.84C11.1176 19.8133 11.0109 19.8 10.9042 19.8C10.8242 19.7733 10.7309 19.76 10.6242 19.76C10.2776 19.76 9.94422 19.7733 9.62422 19.8C9.30422 19.8267 8.97089 19.8667 8.62422 19.92L6.78422 20.2C6.70422 20.2 6.61089 20.2133 6.50422 20.24C6.42422 20.24 6.33089 20.2533 6.22422 20.28C6.03755 20.3067 5.85089 20.3467 5.66422 20.4C5.50422 20.4267 5.33089 20.4267 5.14422 20.4C5.06422 20.4 5.02422 20.4533 5.02422 20.56V21.24C4.97089 21.5333 4.97089 21.8267 5.02422 22.12C5.07755 22.36 5.05089 22.5467 4.94422 22.68C4.86422 22.8667 4.85089 23.0667 4.90422 23.28C4.95755 23.52 4.99755 23.7733 5.02422 24.04C5.07755 24.28 5.13089 24.52 5.18422 24.76C5.21089 24.8933 5.22422 25.0267 5.22422 25.16C5.25089 25.2933 5.26422 25.4267 5.26422 25.56C5.31755 26.12 5.39755 26.68 5.50422 27.24C5.55755 27.4 5.58422 27.56 5.58422 27.72C5.61089 27.8533 5.63755 28 5.66422 28.16C5.66422 28.3467 5.65089 28.4933 5.62422 28.6C5.59755 28.68 5.57089 28.7733 5.54422 28.88C5.54422 28.96 5.51755 29.04 5.46422 29.12L5.34422 29.4C5.29089 29.4533 5.23755 29.5333 5.18422 29.64C5.07755 29.8533 4.89089 30.0267 4.62422 30.16C4.30422 30.2933 4.01089 30.3467 3.74422 30.32C3.61089 30.32 3.51755 30.3333 3.46422 30.36C3.33089 30.36 3.25089 30.4133 3.22422 30.52C3.19755 30.5733 3.17089 30.64 3.14422 30.72C3.11755 30.8 3.09089 30.8667 3.06422 30.92C3.06422 31.0267 3.05089 31.1333 3.02422 31.24C3.02422 31.3733 3.01089 31.5067 2.98422 31.64C2.95755 31.8533 2.85089 32.0533 2.66422 32.24C2.50422 32.4 2.31755 32.44 2.10422 32.36ZM5.74422 16.72C5.90422 16.72 6.05089 16.72 6.18422 16.72C6.34422 16.6933 6.50422 16.6667 6.66422 16.64C6.85089 16.5867 7.03755 16.5467 7.22422 16.52C7.41089 16.4933 7.59755 16.4667 7.78422 16.44C8.15755 16.3867 8.51755 16.3067 8.86422 16.2C8.97089 16.1733 9.07755 16.16 9.18422 16.16C9.29089 16.1333 9.39755 16.12 9.50422 16.12C9.69089 16.12 9.82422 16.1067 9.90422 16.08C10.0909 16.0267 10.2642 16 10.4242 16C10.6109 16 10.8109 16 11.0242 16H11.6242C11.9442 15.9733 12.1976 15.84 12.3842 15.6L12.7042 15.24C12.8109 15.1067 12.9042 14.9733 12.9842 14.84C13.0909 14.68 13.1576 14.5067 13.1842 14.32C13.2376 13.92 13.2242 13.56 13.1442 13.24C13.0642 12.92 12.9709 12.6133 12.8642 12.32C12.7576 12 12.6242 11.7067 12.4642 11.44C12.3042 11.0933 12.0642 10.8267 11.7442 10.64C11.6376 10.6133 11.5576 10.5333 11.5042 10.4C11.4509 10.24 11.3576 10.12 11.2242 10.04C11.1976 10.0133 11.1709 9.98667 11.1442 9.96C11.1176 9.93333 11.0776 9.90667 11.0242 9.88C10.9176 9.77333 10.7709 9.72 10.5842 9.72C10.4776 9.72 10.3576 9.70667 10.2242 9.68C10.1176 9.62667 10.0109 9.58666 9.90422 9.56C9.79755 9.50667 9.69089 9.45333 9.58422 9.4C9.50422 9.34667 9.42422 9.29333 9.34422 9.24C9.07755 9.08 8.78422 9 8.46422 9C8.22422 9 7.95755 8.96 7.66422 8.88C7.37089 8.69333 7.06422 8.58667 6.74422 8.56C6.69089 8.56 6.61089 8.53333 6.50422 8.48L6.18422 8.36C6.02422 8.28 5.89089 8.24 5.78422 8.24C5.43755 8.13333 5.18422 8.25333 5.02422 8.6C4.99755 8.68 4.97089 8.77333 4.94422 8.88C4.91755 8.96 4.89089 9.05333 4.86422 9.16C4.83755 9.37333 4.81089 9.58667 4.78422 9.8C4.75755 10.0133 4.73089 10.2267 4.70422 10.44C4.67755 10.6 4.65089 10.76 4.62422 10.92C4.59755 11.08 4.58422 11.24 4.58422 11.4C4.55755 11.7467 4.54422 12.0933 4.54422 12.44C4.57089 12.7867 4.61089 13.1467 4.66422 13.52V13.92C4.66422 14.1067 4.66422 14.2933 4.66422 14.48C4.69089 14.6667 4.71755 14.8533 4.74422 15.04C4.77089 15.12 4.78422 15.2267 4.78422 15.36L4.90422 16.44C4.90422 16.6 4.98422 16.68 5.14422 16.68C5.25089 16.7067 5.34422 16.72 5.42422 16.72C5.53089 16.72 5.63755 16.72 5.74422 16.72ZM23.5814 30.12C23.3681 30.2 23.1281 30.1733 22.8614 30.04L22.0614 29.68C21.9281 29.6267 21.8214 29.5067 21.7414 29.32L21.6214 29.08C21.5681 28.9467 21.5014 28.8533 21.4214 28.8C21.2881 28.6933 21.1947 28.5067 21.1414 28.24C21.0881 27.9733 21.0481 27.7067 21.0214 27.44C20.9947 27.1733 20.9681 26.9067 20.9414 26.64C20.9147 26.4267 20.9014 26.2133 20.9014 26C20.9014 25.7867 20.9014 25.5867 20.9014 25.4L20.9414 25.12C20.9947 24.9867 21.0214 24.8533 21.0214 24.72C21.0214 24.5867 21.0214 24.4667 21.0214 24.36V17.08C21.0747 16.7067 21.1014 16.3333 21.1014 15.96C21.1014 15.56 21.1014 15.1733 21.1014 14.8C21.1281 14.4267 21.1414 14.0667 21.1414 13.72C21.1414 13.3467 21.1147 12.9867 21.0614 12.64C21.0347 12.5067 21.0214 12.36 21.0214 12.2C21.0214 12.04 21.0214 11.88 21.0214 11.72C21.0214 11.48 21.0214 11.24 21.0214 11C21.0214 10.76 20.9947 10.52 20.9414 10.28V10.16C20.9414 9.78667 20.9147 9.42667 20.8614 9.08C20.8347 8.70667 20.8081 8.34667 20.7814 8C20.7547 7.78667 20.7281 7.58667 20.7014 7.4C20.6747 7.21333 20.6347 7.02667 20.5814 6.84C20.5547 6.73333 20.5414 6.62667 20.5414 6.52C20.5414 6.41333 20.5414 6.30667 20.5414 6.2C20.5414 6.01333 20.5681 5.84 20.6214 5.68C20.6747 5.49333 20.7281 5.32 20.7814 5.16C20.8081 5.10667 20.8747 5.02667 20.9814 4.92C21.0347 4.86667 21.0881 4.82667 21.1414 4.8C21.1947 4.77333 21.2347 4.74667 21.2614 4.72C21.4214 4.50667 21.6347 4.41333 21.9014 4.44C21.9547 4.46667 22.0347 4.45333 22.1414 4.4C22.2747 4.29333 22.3947 4.28 22.5014 4.36C22.5814 4.41333 22.7147 4.41333 22.9014 4.36C22.9814 4.36 23.0481 4.38667 23.1014 4.44C23.1814 4.54666 23.2881 4.62667 23.4214 4.68C23.5547 4.73333 23.6481 4.81333 23.7014 4.92C23.7814 5 23.8614 5.08 23.9414 5.16C23.9947 5.24 24.0481 5.32 24.1014 5.4C24.1814 5.45333 24.2214 5.53333 24.2214 5.64C24.2481 5.74667 24.2481 5.85333 24.2214 5.96C24.2214 6.04 24.2214 6.13333 24.2214 6.24C24.2214 6.48 24.2347 6.73333 24.2614 7C24.3147 7.24 24.3547 7.48 24.3814 7.72C24.4347 7.98666 24.4747 8.26667 24.5014 8.56C24.5281 8.82667 24.5547 9.10667 24.5814 9.4V9.8C24.6347 9.98667 24.6614 10.1733 24.6614 10.36C24.6614 10.5467 24.6747 10.7333 24.7014 10.92V10.96C24.7281 11.28 24.7547 11.6 24.7814 11.92C24.8081 12.24 24.8347 12.56 24.8614 12.88C24.8881 13.0133 24.9014 13.16 24.9014 13.32C24.9014 13.4533 24.9014 13.5867 24.9014 13.72V24.36C24.9014 24.6 24.9147 24.84 24.9414 25.08C24.9947 25.32 25.0347 25.5467 25.0614 25.76C25.0614 25.8933 25.1414 25.96 25.3014 25.96C25.5414 26.0133 25.7681 26.0133 25.9814 25.96C26.2747 25.9067 26.5547 25.88 26.8214 25.88C27.1147 25.88 27.4081 25.88 27.7014 25.88C27.9947 25.88 28.2747 25.88 28.5414 25.88C28.8347 25.8533 29.1147 25.8267 29.3814 25.8H29.8214C30.0347 25.8267 30.2214 25.8533 30.3814 25.88C30.5681 25.88 30.7547 25.88 30.9414 25.88C31.2347 25.88 31.5281 25.8933 31.8214 25.92C32.1414 25.92 32.4481 25.9333 32.7414 25.96C32.9547 25.9867 33.1681 26 33.3814 26C33.6214 26 33.8614 26 34.1014 26H34.3014C34.8347 25.9733 35.3147 26.1067 35.7414 26.4C35.9281 26.48 36.0614 26.6133 36.1414 26.8C36.1947 26.9067 36.2347 27.0133 36.2614 27.12C36.3147 27.2 36.3547 27.3067 36.3814 27.44C36.4081 27.5467 36.4214 27.6533 36.4214 27.76C36.4481 27.84 36.4747 27.9333 36.5014 28.04C36.5814 28.28 36.5547 28.5467 36.4214 28.84C36.3947 28.92 36.3681 29 36.3414 29.08C36.3147 29.16 36.2747 29.24 36.2214 29.32C36.1681 29.4 36.1014 29.4667 36.0214 29.52C36.0214 29.52 35.9681 29.5467 35.8614 29.6C35.6481 29.7867 35.4081 29.9067 35.1414 29.96C34.9014 30.0133 34.6347 30.0667 34.3414 30.12L33.9414 30.08C33.5414 29.9467 33.1414 29.8667 32.7414 29.84C32.6347 29.8133 32.5147 29.8 32.3814 29.8C32.2481 29.7733 32.1147 29.76 31.9814 29.76C31.7947 29.76 31.6081 29.76 31.4214 29.76C31.2347 29.7333 31.0347 29.7067 30.8214 29.68L30.4214 29.64C30.1814 29.6667 29.9414 29.68 29.7014 29.68C29.4614 29.6533 29.2214 29.6533 28.9814 29.68C28.8747 29.68 28.7681 29.68 28.6614 29.68C28.5547 29.6533 28.4481 29.64 28.3414 29.64C28.1281 29.64 27.9147 29.64 27.7014 29.64C27.5147 29.64 27.3147 29.6667 27.1014 29.72C26.9947 29.7467 26.8614 29.7733 26.7014 29.8C26.5681 29.8 26.4347 29.8 26.3014 29.8C25.9014 29.8267 25.5014 29.8667 25.1014 29.92C24.7014 29.9467 24.3147 30 23.9414 30.08C23.8614 30.1067 23.7414 30.12 23.5814 30.12ZM56.4689 32.92C56.2289 32.92 56.0156 32.8267 55.8289 32.64C55.7756 32.56 55.7222 32.48 55.6689 32.4C55.6156 32.32 55.5622 32.24 55.5089 32.16C55.2689 31.6 55.1489 31.0133 55.1489 30.4L55.0289 29.44C54.9489 29.0667 54.8822 28.6933 54.8289 28.32C54.7756 27.9467 54.6822 27.5867 54.5489 27.24L54.3089 26.56C54.3089 26.5067 54.2956 26.4533 54.2689 26.4C54.2689 26.3467 54.2556 26.2933 54.2289 26.24L53.6289 24.12C53.6022 24.0667 53.5756 24 53.5489 23.92C53.5489 23.84 53.5222 23.7733 53.4689 23.72C53.3889 23.56 53.3222 23.4 53.2689 23.24C53.2422 23.0533 53.2022 22.8667 53.1489 22.68C53.1222 22.5467 53.0956 22.4267 53.0689 22.32C53.0422 22.1867 53.0022 22.0533 52.9489 21.92C52.8956 21.76 52.8422 21.6667 52.7889 21.64C52.7356 21.5867 52.6156 21.5867 52.4289 21.64C52.2956 21.6667 52.1489 21.6933 51.9889 21.72C51.8556 21.72 51.7222 21.7467 51.5889 21.8C51.4822 21.8267 51.3489 21.8533 51.1889 21.88C51.0556 21.88 50.9222 21.8933 50.7889 21.92L50.2289 22.04C50.0956 22.0667 49.9489 22.1067 49.7889 22.16C49.6556 22.1867 49.5222 22.2 49.3889 22.2L48.6689 22.32C48.4556 22.3733 48.2289 22.4267 47.9889 22.48C47.7489 22.5333 47.5222 22.5867 47.3089 22.64C46.6689 22.8 46.0289 22.92 45.3889 23C45.1756 23.0533 45.0556 23.1467 45.0289 23.28C45.0022 23.28 44.9889 23.2933 44.9889 23.32C44.8289 23.7467 44.6422 24.1733 44.4289 24.6C44.2422 25 44.0422 25.4133 43.8289 25.84C43.7756 25.9467 43.7222 26.0533 43.6689 26.16C43.6422 26.24 43.6022 26.3333 43.5489 26.44C43.5222 26.4933 43.4956 26.56 43.4689 26.64C43.4422 26.6933 43.4156 26.7467 43.3889 26.8C43.2289 26.9867 43.1489 27.2133 43.1489 27.48C43.1222 27.64 43.0689 27.8 42.9889 27.96C42.9089 28.0933 42.8289 28.2267 42.7489 28.36C42.7222 28.44 42.6689 28.48 42.5889 28.48C42.4822 28.5067 42.3756 28.5467 42.2689 28.6C42.1622 28.6533 42.0422 28.7067 41.9089 28.76C41.8289 28.7867 41.7489 28.7867 41.6689 28.76C41.6156 28.7333 41.5489 28.7067 41.4689 28.68C41.4156 28.6267 41.3622 28.6 41.3089 28.6C41.0156 28.5733 40.8022 28.4 40.6689 28.08C40.4556 27.6533 40.3089 27.2267 40.2289 26.8C40.2022 26.6933 40.2022 26.6 40.2289 26.52C40.2822 26.44 40.3222 26.36 40.3489 26.28C40.5089 26.1733 40.6022 26.0533 40.6289 25.92V25.88C40.6289 25.5333 40.6956 25.2133 40.8289 24.92C40.9889 24.6 41.1222 24.2933 41.2289 24C41.2822 23.84 41.3489 23.68 41.4289 23.52C41.5089 23.36 41.5889 23.2 41.6689 23.04C41.7756 22.8533 41.8556 22.68 41.9089 22.52C41.9889 22.3333 42.0556 22.1467 42.1089 21.96C42.1889 21.7467 42.1889 21.5467 42.1089 21.36C42.0556 21.2 42.0289 21.0533 42.0289 20.92C42.0289 20.76 42.0422 20.6 42.0689 20.44C42.0689 20.1467 42.1756 19.8933 42.3889 19.68C42.4956 19.5467 42.6022 19.44 42.7089 19.36C42.8422 19.2533 42.9622 19.1467 43.0689 19.04C43.3089 18.8 43.4956 18.48 43.6289 18.08C43.7356 17.7333 43.8156 17.3867 43.8689 17.04C43.9489 16.6667 44.0289 16.3067 44.1089 15.96C44.1622 15.6133 44.2156 15.28 44.2689 14.96C44.3489 14.6133 44.4289 14.28 44.5089 13.96C44.5356 13.8267 44.5622 13.7067 44.5889 13.6C44.6422 13.4667 44.6822 13.3467 44.7089 13.24C44.7889 13.0267 44.8689 12.8267 44.9489 12.64C45.0289 12.4267 45.0822 12.2133 45.1089 12C45.1622 11.8933 45.1622 11.8 45.1089 11.72C45.0822 11.5867 45.0822 11.4667 45.1089 11.36C45.1622 11.2533 45.2022 11.1467 45.2289 11.04C45.3089 10.8533 45.3622 10.6667 45.3889 10.48C45.4422 10.2933 45.5089 10.1067 45.5889 9.92C45.7222 9.57333 45.8289 9.29333 45.9089 9.08C46.0156 8.84 46.1089 8.57333 46.1889 8.28C46.2422 8.12 46.2956 7.97333 46.3489 7.84C46.4289 7.68 46.4822 7.52 46.5089 7.36C46.5889 7.12 46.6556 6.88 46.7089 6.64C46.7622 6.37333 46.7889 6.12 46.7889 5.88C46.8422 5.66667 46.8956 5.52 46.9489 5.44C47.0822 5.17333 47.2422 4.94667 47.4289 4.76C47.6422 4.57333 47.8422 4.38667 48.0289 4.2C48.1622 4.12 48.2956 4.06667 48.4289 4.04C48.5622 3.98667 48.6956 4 48.8289 4.08C48.9356 4.13333 49.0022 4.16 49.0289 4.16C49.2689 4.13333 49.4689 4.18667 49.6289 4.32C49.7889 4.45333 49.9222 4.61333 50.0289 4.8C50.0822 4.85333 50.1222 4.92 50.1489 5C50.1756 5.08 50.2022 5.14667 50.2289 5.2C50.3622 5.41333 50.4289 5.62666 50.4289 5.84C50.4289 5.94667 50.4422 6.06667 50.4689 6.2C50.4956 6.30667 50.5222 6.42667 50.5489 6.56C50.6289 6.72 50.7489 6.8 50.9089 6.8C50.9356 6.77333 50.9622 6.77333 50.9889 6.8C51.0156 6.82666 51.0289 6.85333 51.0289 6.88C51.1622 7.04 51.2022 7.21333 51.1489 7.4C51.0956 7.61333 51.0822 7.82667 51.1089 8.04C51.1622 8.22666 51.2156 8.42666 51.2689 8.64C51.3756 8.90666 51.4822 9.17333 51.5889 9.44C51.6956 9.70667 51.8022 9.97333 51.9089 10.24C52.0422 10.5333 52.1756 10.8267 52.3089 11.12C52.4422 11.4133 52.5622 11.7067 52.6689 12C52.8022 12.3733 52.9356 12.7467 53.0689 13.12C53.2289 13.4933 53.4022 13.8667 53.5889 14.24L53.7089 14.68C53.7356 14.7867 53.7622 14.8933 53.7889 15C53.8422 15.1067 53.8822 15.2133 53.9089 15.32C53.9622 15.4 54.0022 15.48 54.0289 15.56C54.0822 15.64 54.1356 15.7067 54.1889 15.76C54.3222 15.9467 54.4022 16.1467 54.4289 16.36C54.5089 16.6267 54.6289 16.8667 54.7889 17.08C54.8422 17.16 54.9222 17.2 55.0289 17.2C55.4289 17.1467 55.8289 17.1067 56.2289 17.08C56.6289 17.0267 57.0289 16.9467 57.4289 16.84C57.7222 16.76 58.0022 16.72 58.2689 16.72C58.7756 16.72 59.2422 16.8933 59.6689 17.24C60.1756 17.64 60.4422 18.1467 60.4689 18.76C60.4689 18.8933 60.4822 19 60.5089 19.08C60.5089 19.2667 60.4556 19.4133 60.3489 19.52C60.3222 19.6 60.2689 19.68 60.1889 19.76C60.1356 19.84 60.0822 19.92 60.0289 20C59.9756 20.1067 59.9222 20.1867 59.8689 20.24L59.6289 20.44C59.6022 20.4933 59.5622 20.56 59.5089 20.64C59.4556 20.6933 59.3889 20.7333 59.3089 20.76C59.2022 20.7867 59.0956 20.8267 58.9889 20.88C58.8822 20.9067 58.7622 20.92 58.6289 20.92C58.1489 20.9733 57.7222 20.96 57.3489 20.88H56.7089C56.6556 20.88 56.5756 20.9067 56.4689 20.96C56.3622 21.0133 56.3089 21.08 56.3089 21.16V21.32C56.3889 21.56 56.4422 21.8133 56.4689 22.08C56.5222 22.32 56.6022 22.5467 56.7089 22.76C56.7089 22.8667 56.7356 22.9733 56.7889 23.08C56.9222 23.32 57.0289 23.5733 57.1089 23.84C57.1889 24.08 57.2556 24.3333 57.3089 24.6C57.3089 24.6533 57.3356 24.76 57.3889 24.92C57.4689 25.1067 57.5356 25.3067 57.5889 25.52C57.6422 25.7067 57.6822 25.9067 57.7089 26.12C57.7089 26.28 57.7489 26.4267 57.8289 26.56C57.9356 26.8 58.0156 27.04 58.0689 27.28C58.1222 27.52 58.1622 27.7733 58.1889 28.04C58.2156 28.0667 58.2289 28.12 58.2289 28.2C58.2289 28.2533 58.2422 28.3067 58.2689 28.36C58.4022 28.6533 58.4956 28.9733 58.5489 29.32C58.6022 29.64 58.6689 29.96 58.7489 30.28C58.8022 30.44 58.8289 30.6 58.8289 30.76C58.8556 30.9467 58.8689 31.1333 58.8689 31.32C58.8689 31.4533 58.8289 31.6 58.7489 31.76C58.6689 31.84 58.6289 31.88 58.6289 31.88C58.4689 31.9067 58.3756 32 58.3489 32.16L58.2289 32.4C58.1756 32.5067 58.0956 32.5733 57.9889 32.6C57.8822 32.6 57.7889 32.64 57.7089 32.72C57.6022 32.8267 57.4556 32.88 57.2689 32.88C57.1622 32.88 57.0289 32.88 56.8689 32.88C56.7356 32.88 56.6022 32.8933 56.4689 32.92ZM46.8289 18.4C46.9889 18.3733 47.1489 18.3467 47.3089 18.32C47.4956 18.2933 47.6956 18.2667 47.9089 18.24C48.0422 18.2133 48.2156 18.1867 48.4289 18.16C48.6422 18.1333 48.8422 18.1067 49.0289 18.08C49.2156 18.0267 49.4022 18 49.5889 18C49.7756 17.9733 49.9622 17.9467 50.1489 17.92C50.3089 17.8667 50.4689 17.84 50.6289 17.84C50.7889 17.8133 50.9489 17.7867 51.1089 17.76C51.3489 17.7067 51.4422 17.5733 51.3889 17.36C51.3622 17.1467 51.3089 16.9333 51.2289 16.72C51.1756 16.48 51.0556 16.28 50.8689 16.12C50.8156 16.0667 50.7889 15.9867 50.7889 15.88V15.76C50.7356 15.5467 50.6689 15.3467 50.5889 15.16C50.5356 14.9467 50.4689 14.7467 50.3889 14.56C50.3356 14.3467 50.2689 14.16 50.1889 14C50.1356 13.8133 50.0689 13.6267 49.9889 13.44L49.5089 12C49.4289 11.8133 49.3489 11.6267 49.2689 11.44C49.2156 11.2533 49.1622 11.0667 49.1089 10.88L48.9889 10.72H48.8689L48.7889 10.84C48.6556 11.24 48.4956 11.64 48.3089 12.04C48.1489 12.44 48.0022 12.8667 47.8689 13.32C47.8689 13.3733 47.8556 13.44 47.8289 13.52C47.8022 13.6 47.7756 13.68 47.7489 13.76C47.6422 14.0267 47.5356 14.32 47.4289 14.64C47.3489 14.96 47.2822 15.28 47.2289 15.6C47.2022 15.7867 47.1756 15.9733 47.1489 16.16C47.1222 16.32 47.0822 16.4933 47.0289 16.68L46.6689 18.24C46.6422 18.2667 46.6556 18.3067 46.7089 18.36C46.7622 18.3867 46.8022 18.4 46.8289 18.4ZM71.3273 32.64C71.2473 32.6667 71.1673 32.6667 71.0873 32.64C71.0073 32.64 70.9407 32.64 70.8873 32.64C70.594 32.56 70.3407 32.4 70.1273 32.16C69.9407 31.9467 69.7673 31.6933 69.6073 31.4C69.5807 31.2933 69.5407 31.1867 69.4873 31.08C69.4607 30.9733 69.4473 30.8667 69.4473 30.76V30.48C69.394 30.1867 69.354 29.8933 69.3273 29.6C69.3273 29.3067 69.3273 29.0133 69.3273 28.72C69.3273 28.3467 69.3273 27.9733 69.3273 27.6C69.354 27.2267 69.3673 26.8533 69.3673 26.48C69.3673 26.2933 69.3807 26.1467 69.4073 26.04C69.434 25.5333 69.434 25 69.4073 24.44C69.3807 24.3067 69.354 24.16 69.3273 24C69.3273 23.84 69.3273 23.68 69.3273 23.52C69.354 23.2267 69.354 22.9333 69.3273 22.64C69.3007 22.3467 69.2607 22.0533 69.2073 21.76L69.0873 21.08C69.0873 21.0267 69.074 20.9733 69.0473 20.92C69.0473 20.84 69.0473 20.7867 69.0473 20.76C68.834 19.96 68.5407 19.24 68.1673 18.6C68.034 18.36 67.8873 18.12 67.7273 17.88C67.594 17.6133 67.4607 17.3467 67.3273 17.08C67.194 16.8133 67.0873 16.5467 67.0073 16.28C66.954 15.9867 66.9007 15.7067 66.8473 15.44C66.8473 15.3867 66.8473 15.32 66.8473 15.24C66.874 15.16 66.8873 15.08 66.8873 15C66.8873 14.84 66.8873 14.68 66.8873 14.52C66.914 14.3333 66.9273 14.1467 66.9273 13.96C66.9273 13.7733 66.874 13.6267 66.7673 13.52L66.5273 13.2C66.4207 13.0667 66.3273 12.9333 66.2473 12.8C66.1673 12.64 66.074 12.4933 65.9673 12.36L65.5273 11.76C65.4207 11.6 65.3007 11.44 65.1673 11.28C65.034 11.12 64.9007 10.9467 64.7673 10.76C64.714 10.7067 64.6607 10.6533 64.6073 10.6C64.554 10.52 64.4873 10.4667 64.4073 10.44C64.3007 10.4133 64.2207 10.3467 64.1673 10.24C64.0873 10.16 63.994 10.04 63.8873 9.88C63.7273 9.61333 63.554 9.34667 63.3673 9.08C63.2073 8.78667 63.0473 8.50667 62.8873 8.24L62.7673 8.08C62.5273 7.57333 62.2873 7.06667 62.0473 6.56C61.834 6.02667 61.634 5.50667 61.4473 5C61.3407 4.76 61.2607 4.49333 61.2073 4.2C61.1807 4.04 61.1407 3.88 61.0873 3.72C61.034 3.56 60.9673 3.41333 60.8873 3.28C60.8073 3.14667 60.754 3.01333 60.7273 2.88C60.7273 2.74667 60.7273 2.61333 60.7273 2.48C60.7273 2.4 60.7407 2.32 60.7673 2.24C60.8207 2.16 60.8607 2.08 60.8873 2C60.9673 1.86666 61.0473 1.74666 61.1273 1.64C61.234 1.50666 61.3407 1.38666 61.4473 1.28C61.5807 1.14666 61.7273 1.08 61.8873 1.08C61.9673 1.08 62.0207 1.06666 62.0473 1.04C62.2607 0.933332 62.474 0.906665 62.6873 0.96C62.9273 1.01333 63.1407 1.08 63.3273 1.16C63.4073 1.18667 63.474 1.24 63.5273 1.32C63.5807 1.37333 63.634 1.42666 63.6873 1.48L64.1273 2.2C64.1807 2.25333 64.2073 2.32 64.2073 2.4C64.234 2.48 64.2607 2.56 64.2873 2.64C64.314 2.69333 64.3407 2.76 64.3673 2.84C64.554 3.24 64.7273 3.64 64.8873 4.04C65.074 4.41333 65.2473 4.8 65.4073 5.2C65.5407 5.54667 65.674 5.89333 65.8073 6.24C65.9673 6.56 66.1407 6.88 66.3273 7.2C66.4607 7.52 66.6207 7.82667 66.8073 8.12C66.994 8.41333 67.1807 8.70667 67.3673 9C67.474 9.10667 67.5673 9.22667 67.6473 9.36C67.7273 9.49333 67.8207 9.62667 67.9273 9.76L68.1273 10C68.3407 10.2133 68.474 10.32 68.5273 10.32C68.5807 10.32 68.7007 10.2 68.8873 9.96C68.994 9.82666 69.0873 9.69333 69.1673 9.56C69.274 9.4 69.3807 9.26667 69.4873 9.16C69.7007 8.89333 69.9007 8.64 70.0873 8.4C70.3007 8.16 70.5007 7.92 70.6873 7.68C70.9807 7.33333 71.354 6.98666 71.8073 6.64C71.994 6.48 72.1673 6.30667 72.3273 6.12C72.514 5.88 72.7273 5.70667 72.9673 5.6C73.154 5.49333 73.3273 5.38667 73.4873 5.28C73.6473 5.14667 73.8073 5.02667 73.9673 4.92C74.1273 4.76 74.3007 4.62667 74.4873 4.52C74.594 4.44 74.6873 4.36 74.7673 4.28C74.874 4.17333 74.9673 4.06667 75.0473 3.96C75.1007 3.88 75.154 3.81333 75.2073 3.76C75.2873 3.68 75.3673 3.61333 75.4473 3.56L76.0073 3.2C76.0607 3.17333 76.1007 3.16 76.1273 3.16C76.154 3.13333 76.1807 3.10666 76.2073 3.08C76.2607 3.08 76.3007 3.08 76.3273 3.08C76.354 3.05333 76.3807 3.04 76.4073 3.04C76.5407 2.98666 76.6607 2.94666 76.7673 2.92C76.9007 2.89333 77.034 2.88 77.1673 2.88C77.3273 2.96 77.4873 3.04 77.6473 3.12C77.8073 3.2 77.9407 3.30667 78.0473 3.44C78.1007 3.46666 78.1407 3.48 78.1673 3.48C78.2207 3.48 78.2607 3.49333 78.2873 3.52C78.314 3.54667 78.3273 3.57333 78.3273 3.6C78.3273 3.62667 78.314 3.68 78.2873 3.76C78.2607 3.81333 78.2473 3.85333 78.2473 3.88C78.2473 3.90667 78.274 3.92 78.3273 3.92C78.3807 3.92 78.4207 3.93333 78.4473 3.96C78.474 3.98667 78.5007 4 78.5273 4C78.554 4 78.5673 4.02667 78.5673 4.08C78.5407 4.29333 78.5673 4.52 78.6473 4.76C78.7007 4.84 78.7273 4.92 78.7273 5C78.7273 5.08 78.714 5.16 78.6873 5.24L78.1673 6.2C78.1407 6.30667 78.074 6.38667 77.9673 6.44C77.5673 6.78667 77.1673 7.05333 76.7673 7.24C76.2873 7.4 75.8873 7.61333 75.5673 7.88C75.434 7.98667 75.3007 8.09333 75.1673 8.2C75.034 8.28 74.9007 8.38667 74.7673 8.52C74.714 8.57333 74.634 8.62667 74.5273 8.68L74.2873 8.88C73.994 9.2 73.7007 9.52 73.4073 9.84C73.1407 10.1333 72.8607 10.44 72.5673 10.76C72.514 10.8667 72.4473 10.92 72.3673 10.92C72.234 11 72.114 11.1067 72.0073 11.24C71.874 11.4533 71.7273 11.6667 71.5673 11.88C71.4073 12.0667 71.2873 12.2933 71.2073 12.56L70.9673 12.96C70.9407 12.9867 70.914 13.0267 70.8873 13.08C70.8607 13.1067 70.834 13.1467 70.8073 13.2C70.7007 13.3867 70.6873 13.5867 70.7673 13.8C70.8207 13.8533 70.8607 13.92 70.8873 14C70.9407 14.08 70.9807 14.16 71.0073 14.24C71.0873 14.3733 71.074 14.5067 70.9673 14.64C70.914 14.6667 70.8873 14.7333 70.8873 14.84C70.9407 14.9467 70.9673 15.0267 70.9673 15.08C71.0207 15.24 71.0073 15.3867 70.9273 15.52C70.874 15.6267 70.8473 15.6933 70.8473 15.72C70.8207 15.88 70.834 16.0267 70.8873 16.16C70.9407 16.2667 70.994 16.4 71.0473 16.56C71.1273 16.6933 71.2207 16.8267 71.3273 16.96C71.4607 17.2267 71.594 17.48 71.7273 17.72C71.8607 17.96 71.9807 18.2133 72.0873 18.48L72.5673 20.04C72.6207 20.28 72.6607 20.5333 72.6873 20.8C72.714 21.04 72.7407 21.28 72.7673 21.52C72.794 21.68 72.8207 21.84 72.8473 22C72.874 22.1333 72.874 22.28 72.8473 22.44C72.9007 23.0267 72.914 23.6133 72.8873 24.2C72.8873 24.76 72.8873 25.3333 72.8873 25.92C72.8873 25.9733 72.874 26.0267 72.8473 26.08C72.8207 26.3733 72.8073 26.68 72.8073 27C72.8073 27.32 72.794 27.6267 72.7673 27.92C72.7673 28.1067 72.7673 28.2933 72.7673 28.48C72.794 28.6667 72.8073 28.8667 72.8073 29.08C72.8073 29.16 72.8207 29.2133 72.8473 29.24C72.9007 29.3733 72.9407 29.52 72.9673 29.68C72.994 29.8133 73.0207 29.9467 73.0473 30.08C73.074 30.1867 73.0873 30.28 73.0873 30.36C73.0873 30.4667 73.0607 30.5733 73.0073 30.68C72.9273 30.8667 72.9273 31.0667 73.0073 31.28C73.0073 31.3067 72.9673 31.3467 72.8873 31.4C72.834 31.4 72.7807 31.4133 72.7273 31.44C72.7007 31.44 72.6607 31.4667 72.6073 31.52C72.6073 31.5733 72.594 31.6133 72.5673 31.64C72.5407 31.7733 72.434 31.9333 72.2473 32.12C72.1407 32.2533 71.994 32.36 71.8073 32.44C71.6473 32.52 71.4873 32.5867 71.3273 32.64ZM97.4211 34.72C97.1544 34.6933 96.9544 34.5333 96.8211 34.24C96.7944 34.2133 96.7811 34.1467 96.7811 34.04C96.7544 33.8267 96.7144 33.6133 96.6611 33.4C96.6344 33.1867 96.6344 32.9733 96.6611 32.76V32.56C96.6344 32.32 96.6211 32.08 96.6211 31.84C96.6211 31.6 96.6078 31.3733 96.5811 31.16C96.5278 30.7067 96.3678 30.36 96.1011 30.12L95.7411 29.76C95.6078 29.6 95.4344 29.5467 95.2211 29.6C95.0611 29.6267 94.9011 29.64 94.7411 29.64C94.6078 29.64 94.4611 29.6267 94.3011 29.6C94.1944 29.6 94.0744 29.6133 93.9411 29.64C93.8344 29.64 93.7144 29.64 93.5811 29.64C93.4744 29.64 93.3544 29.64 93.2211 29.64C93.1144 29.6133 93.0078 29.6133 92.9011 29.64C92.7944 29.6667 92.6878 29.68 92.5811 29.68C92.5011 29.68 92.4211 29.68 92.3411 29.68H90.9811C90.6878 29.68 90.3811 29.72 90.0611 29.8L89.1011 30.04C88.7811 30.1467 88.4611 30.2267 88.1411 30.28C88.0344 30.3067 87.9278 30.3333 87.8211 30.36C87.7144 30.3867 87.6078 30.4267 87.5011 30.48C87.1011 30.6667 86.7144 30.7733 86.3411 30.8C86.1011 30.8533 85.9278 30.96 85.8211 31.12L85.6211 31.36C85.5678 31.3867 85.5144 31.4133 85.4611 31.44C85.4078 31.4933 85.3544 31.5467 85.3011 31.6C85.1144 31.7067 84.9144 31.7067 84.7011 31.6C84.4611 31.4667 84.3144 31.32 84.2611 31.16C84.2611 31.1333 84.2478 31.1067 84.2211 31.08C84.2211 31.08 84.2211 31.0667 84.2211 31.04C84.0344 30.5867 83.7278 30.1867 83.3011 29.84C83.1944 29.76 83.1011 29.6667 83.0211 29.56C82.9944 29.48 82.9544 29.4133 82.9011 29.36C82.8478 29.28 82.7944 29.2133 82.7411 29.16L82.5011 28.8C82.3944 28.6133 82.3544 28.4 82.3811 28.16C82.4078 28.0267 82.4211 27.8933 82.4211 27.76C82.4478 27.6 82.4744 27.4533 82.5011 27.32V27.08C82.5011 26.7867 82.5011 26.4933 82.5011 26.2C82.5011 25.88 82.5144 25.5867 82.5411 25.32V24.92C82.5944 24.8133 82.6078 24.72 82.5811 24.64C82.5811 24.5333 82.5811 24.4267 82.5811 24.32C82.6078 23.9733 82.6078 23.64 82.5811 23.32C82.5811 22.9733 82.5944 22.6267 82.6211 22.28L82.7411 20.48C82.7678 20.1867 82.7811 19.9067 82.7811 19.64C82.8078 19.3733 82.8211 19.1067 82.8211 18.84V18.72C82.8744 18.4 82.9011 18.08 82.9011 17.76C82.9011 17.44 82.9011 17.1067 82.9011 16.76V14C82.8744 13.7067 82.8478 13.4133 82.8211 13.12C82.8211 12.8267 82.8211 12.5333 82.8211 12.24C82.8211 11.92 82.8078 11.6 82.7811 11.28C82.7544 10.9333 82.7144 10.5867 82.6611 10.24C82.6344 10.0267 82.5944 9.8 82.5411 9.56C82.5144 9.32 82.5011 9.08 82.5011 8.84C82.5011 8.78667 82.4878 8.73333 82.4611 8.68C82.4611 8.62667 82.4611 8.57333 82.4611 8.52C82.3011 7.8 82.2211 7.06667 82.2211 6.32V4.64C82.2211 4.45333 82.2211 4.28 82.2211 4.12C82.2478 3.93333 82.2744 3.74667 82.3011 3.56C82.3544 3.24 82.4611 3 82.6211 2.84L82.8211 2.6C82.9811 2.38667 83.1678 2.24 83.3811 2.16C83.5944 2.05333 83.8211 1.98666 84.0611 1.96H84.3411C84.7411 1.96 85.0611 2.10666 85.3011 2.4C85.3544 2.42667 85.3944 2.45333 85.4211 2.48C85.4478 2.50667 85.4744 2.53333 85.5011 2.56C85.6344 2.66666 85.7144 2.78666 85.7411 2.92C85.8744 3.18666 85.9411 3.36 85.9411 3.44C85.9678 3.52 85.9811 3.70667 85.9811 4V4.28C85.9811 4.46667 85.9811 4.65333 85.9811 4.84C85.9811 5 85.9944 5.17333 86.0211 5.36C86.0478 5.41333 86.0611 5.49333 86.0611 5.6C86.0611 5.78667 86.0611 5.97333 86.0611 6.16C86.0878 6.34667 86.1144 6.53333 86.1411 6.72C86.1678 6.98667 86.1944 7.25333 86.2211 7.52C86.2478 7.76 86.2611 8.02667 86.2611 8.32C86.2611 8.37333 86.2611 8.44 86.2611 8.52C86.2878 8.57333 86.3011 8.62667 86.3011 8.68C86.3011 8.70667 86.3011 8.74667 86.3011 8.8C86.3278 8.82667 86.3411 8.86667 86.3411 8.92L86.4611 10.96C86.4878 11.0933 86.5011 11.24 86.5011 11.4C86.5011 11.5333 86.5011 11.68 86.5011 11.84C86.5278 11.8667 86.5411 11.9333 86.5411 12.04C86.5144 12.1733 86.5011 12.32 86.5011 12.48C86.5011 12.6133 86.5144 12.7467 86.5411 12.88V15.52C86.5144 15.68 86.5144 15.84 86.5411 16V16.24C86.5144 16.4533 86.5011 16.68 86.5011 16.92C86.5011 17.1333 86.4878 17.36 86.4611 17.6C86.4611 17.7867 86.4611 17.9867 86.4611 18.2C86.4611 18.3867 86.4478 18.5867 86.4211 18.8C86.3944 18.9067 86.3811 19.0267 86.3811 19.16C86.3811 19.2933 86.3811 19.4267 86.3811 19.56C86.3811 19.6667 86.3678 19.8 86.3411 19.96C86.3411 20.0933 86.3278 20.2267 86.3011 20.36V20.48C86.2744 20.7467 86.2478 21.0133 86.2211 21.28C86.2211 21.5467 86.2078 21.8267 86.1811 22.12C86.1544 22.2533 86.1411 22.4 86.1411 22.56C86.1411 22.72 86.1278 22.88 86.1011 23.04C86.0744 23.1467 86.0611 23.28 86.0611 23.44C86.0611 23.5733 86.0611 23.7067 86.0611 23.84C86.0611 23.9733 86.0478 24.1067 86.0211 24.24C85.9944 24.5333 85.9811 24.8267 85.9811 25.12C85.9811 25.3867 85.9811 25.6667 85.9811 25.96V26C86.0344 26.1333 86.1011 26.2 86.1811 26.2L86.9811 26.32C87.6211 26.4 88.2478 26.44 88.8611 26.44C89.0211 26.44 89.1544 26.4267 89.2611 26.4C89.3944 26.3733 89.5411 26.36 89.7011 26.36C89.8611 26.36 90.0078 26.3467 90.1411 26.32H91.2611C91.4478 26.32 91.6344 26.3067 91.8211 26.28C92.0078 26.2267 92.1944 26.1867 92.3811 26.16H92.5811C92.8744 26.16 93.1678 26.1467 93.4611 26.12C93.7544 26.0667 94.0478 26.04 94.3411 26.04H95.6611C96.0344 26.04 96.3544 25.96 96.6211 25.8C96.8344 25.72 97.0344 25.6667 97.2211 25.64C97.4344 25.6133 97.6478 25.5867 97.8611 25.56C98.1811 25.56 98.4611 25.64 98.7011 25.8C99.2344 26.12 99.5811 26.56 99.7411 27.12C99.7944 27.3067 99.8211 27.5067 99.8211 27.72C99.8478 27.9333 99.8478 28.1467 99.8211 28.36C99.7944 28.6 99.7411 28.8267 99.6611 29.04C99.5811 29.2267 99.4744 29.4267 99.3411 29.64L98.9811 30.16C98.8211 30.4533 98.7011 30.7467 98.6211 31.04C98.5944 31.28 98.5544 31.5067 98.5011 31.72C98.4478 31.96 98.4211 32.2 98.4211 32.44C98.4211 32.5467 98.4078 32.6533 98.3811 32.76C98.3811 32.8667 98.3811 32.9733 98.3811 33.08C98.3544 33.1867 98.3411 33.28 98.3411 33.36C98.3411 33.44 98.3411 33.5333 98.3411 33.64C98.3411 33.8533 98.2744 34.0933 98.1411 34.36C97.9811 34.6267 97.7411 34.7467 97.4211 34.72ZM106.28 30.4C106.12 30.4 106.014 30.3867 105.96 30.36C105.854 30.3067 105.76 30.2667 105.68 30.24C105.6 30.2133 105.52 30.1867 105.44 30.16C105.36 30.1067 105.28 30.0533 105.2 30C105.147 29.92 105.094 29.84 105.04 29.76C104.987 29.7067 104.934 29.68 104.88 29.68C104.72 29.68 104.64 29.6 104.64 29.44C104.614 29.28 104.587 29.12 104.56 28.96C104.534 28.8 104.507 28.64 104.48 28.48C104.454 28.24 104.427 28 104.4 27.76C104.4 27.52 104.374 27.2933 104.32 27.08V26.72C104.32 26.6133 104.307 26.52 104.28 26.44C104.28 26.36 104.28 26.2667 104.28 26.16C104.227 26.0267 104.227 25.92 104.28 25.84C104.334 25.36 104.334 24.88 104.28 24.4C104.254 24.2667 104.24 24.1333 104.24 24C104.24 23.8667 104.227 23.7333 104.2 23.6C104.2 23.3333 104.2 23.0667 104.2 22.8C104.2 22.5067 104.174 22.2267 104.12 21.96V21.32C104.12 21.1067 104.107 20.9067 104.08 20.72C104.08 20.5333 104.067 20.3467 104.04 20.16C104.014 19.92 103.987 19.68 103.96 19.44C103.96 19.2 103.947 18.96 103.92 18.72C103.894 18.6667 103.88 18.5733 103.88 18.44C103.854 18.3067 103.827 18.1733 103.8 18.04C103.8 17.88 103.8 17.7333 103.8 17.6L103.68 15.6C103.654 15.3867 103.627 15.1867 103.6 15C103.6 14.7867 103.6 14.5867 103.6 14.4C103.574 14.08 103.547 13.76 103.52 13.44C103.494 13.12 103.467 12.8133 103.44 12.52C103.44 12.4667 103.427 12.4133 103.4 12.36C103.4 12.3067 103.4 12.2667 103.4 12.24C103.4 11.92 103.387 11.6 103.36 11.28C103.334 10.96 103.307 10.6267 103.28 10.28L103.16 9.16C103.08 8.73333 103.067 8.26667 103.12 7.76C103.12 7.52 103.214 7.32 103.4 7.16C103.454 7.10667 103.494 7.08 103.52 7.08C103.547 7.05333 103.574 7.02667 103.6 7C103.734 6.97333 103.8 6.88 103.8 6.72C103.8 6.66667 103.854 6.64 103.96 6.64H104.16C104.187 6.64 104.2 6.64 104.2 6.64C104.227 6.61333 104.254 6.6 104.28 6.6C104.334 6.57333 104.374 6.54667 104.4 6.52C104.454 6.46667 104.494 6.44 104.52 6.44C104.574 6.44 104.627 6.45333 104.68 6.48C104.734 6.48 104.787 6.49333 104.84 6.52C104.894 6.52 104.934 6.50667 104.96 6.48C105.094 6.45333 105.227 6.46667 105.36 6.52C105.52 6.54667 105.654 6.58667 105.76 6.64C105.92 6.66667 106.04 6.77333 106.12 6.96C106.2 7.2 106.267 7.44 106.32 7.68C106.4 7.89333 106.454 8.12 106.48 8.36V8.68C106.534 8.86667 106.56 9.06667 106.56 9.28C106.56 9.46667 106.56 9.66667 106.56 9.88C106.56 10.0667 106.56 10.2533 106.56 10.44C106.587 10.6 106.614 10.76 106.64 10.92C106.64 11 106.64 11.08 106.64 11.16C106.64 11.24 106.654 11.32 106.68 11.4C106.68 11.56 106.68 11.72 106.68 11.88C106.707 12.04 106.734 12.2133 106.76 12.4C106.787 12.6933 106.814 13 106.84 13.32C106.867 13.64 106.88 13.96 106.88 14.28C106.88 14.4133 106.88 14.56 106.88 14.72C106.88 14.8533 106.894 14.9867 106.92 15.12C106.947 15.2 106.96 15.28 106.96 15.36C106.96 15.44 106.96 15.52 106.96 15.6V16.4C106.96 16.56 106.974 16.6933 107 16.8C107.054 16.9867 107.067 17.1733 107.04 17.36C107.04 17.52 107.054 17.6933 107.08 17.88L107.2 19.72C107.227 19.9867 107.24 20.2667 107.24 20.56C107.267 20.8267 107.28 21.1067 107.28 21.4C107.28 21.5067 107.28 21.6267 107.28 21.76C107.28 21.8667 107.294 21.9733 107.32 22.08C107.347 22.16 107.36 22.24 107.36 22.32C107.36 22.4 107.36 22.48 107.36 22.56C107.387 22.5867 107.387 22.64 107.36 22.72C107.36 22.7733 107.374 22.8267 107.4 22.88C107.454 23.0667 107.48 23.2533 107.48 23.44C107.48 23.6267 107.48 23.8267 107.48 24.04C107.48 24.1467 107.48 24.2667 107.48 24.4C107.507 24.5067 107.52 24.6267 107.52 24.76C107.547 24.8933 107.56 25.04 107.56 25.2C107.56 25.36 107.56 25.5067 107.56 25.64C107.587 25.7733 107.6 25.92 107.6 26.08C107.6 26.2133 107.614 26.3467 107.64 26.48C107.667 26.5333 107.68 26.5867 107.68 26.64C107.68 26.9333 107.707 27.2267 107.76 27.52C107.814 27.8133 107.867 28.1067 107.92 28.4C107.947 28.48 107.96 28.5733 107.96 28.68C107.96 28.76 107.96 28.84 107.96 28.92C107.96 29 107.934 29.0667 107.88 29.12C107.774 29.2 107.694 29.36 107.64 29.6C107.64 29.68 107.6 29.7467 107.52 29.8C107.334 29.88 107.174 29.9867 107.04 30.12C106.827 30.3067 106.574 30.4 106.28 30.4ZM118.25 31.96L117.57 31.84C117.223 31.7867 116.863 31.7333 116.49 31.68C116.143 31.6267 115.783 31.5867 115.41 31.56C115.037 31.56 114.663 31.4533 114.29 31.24C113.943 31.0533 113.703 30.76 113.57 30.36C113.543 30.2267 113.503 30.0933 113.45 29.96C113.423 29.8267 113.397 29.6933 113.37 29.56C113.37 29.24 113.437 29 113.57 28.84C113.703 28.7067 113.81 28.5733 113.89 28.44C113.997 28.3067 114.103 28.1867 114.21 28.08C114.263 28.0267 114.317 27.9867 114.37 27.96C114.423 27.9333 114.477 27.9067 114.53 27.88C114.663 27.8 114.797 27.7467 114.93 27.72C115.063 27.6667 115.197 27.6267 115.33 27.6C115.383 27.5733 115.423 27.5733 115.45 27.6C115.503 27.6 115.543 27.6 115.57 27.6C115.703 27.6267 115.85 27.6533 116.01 27.68C116.17 27.68 116.317 27.7067 116.45 27.76L118.13 28C118.503 28.0533 118.837 28 119.13 27.84C119.237 27.7867 119.33 27.7333 119.41 27.68C119.517 27.6267 119.61 27.5733 119.69 27.52C120.277 27.1733 120.783 26.8133 121.21 26.44C121.53 26.1467 121.837 25.8533 122.13 25.56C122.423 25.2667 122.69 24.9467 122.93 24.6C123.117 24.36 123.237 24.12 123.29 23.88C123.343 23.6133 123.357 23.3467 123.33 23.08L123.21 22.76C123.183 22.6267 123.13 22.52 123.05 22.44C122.97 22.36 122.89 22.2667 122.81 22.16C122.65 22.0267 122.49 21.88 122.33 21.72C122.197 21.56 122.05 21.4267 121.89 21.32C121.49 21 121.09 20.6933 120.69 20.4C120.317 20.1067 119.93 19.8133 119.53 19.52C119.503 19.4667 119.423 19.4133 119.29 19.36C119.05 19.2 118.81 19.0267 118.57 18.84C118.357 18.6267 118.143 18.4267 117.93 18.24C117.663 17.9733 117.37 17.72 117.05 17.48C116.89 17.4 116.743 17.2667 116.61 17.08C116.503 16.9467 116.343 16.8133 116.13 16.68C115.943 16.5733 115.77 16.4533 115.61 16.32C115.45 16.16 115.29 16.0133 115.13 15.88L114.61 15.4C114.503 15.2667 114.383 15.1467 114.25 15.04C114.143 14.9067 114.023 14.7733 113.89 14.64C113.837 14.5067 113.757 14.4 113.65 14.32C113.57 14.24 113.49 14.1467 113.41 14.04C113.383 13.9867 113.343 13.9333 113.29 13.88C113.237 13.8 113.197 13.72 113.17 13.64C113.01 13.32 112.837 13 112.65 12.68C112.49 12.36 112.343 12.0267 112.21 11.68C112.13 11.4667 112.05 11.2667 111.97 11.08C111.917 10.8667 111.863 10.6667 111.81 10.48C111.783 10.2667 111.73 10.08 111.65 9.92C111.597 9.73333 111.543 9.54667 111.49 9.36C111.437 9.06667 111.37 8.78667 111.29 8.52C111.237 8.22667 111.183 7.94667 111.13 7.68L111.05 7.36C111.023 7.06667 111.023 6.78667 111.05 6.52C111.103 6.14667 111.183 5.81333 111.29 5.52C111.397 5.2 111.57 4.94667 111.81 4.76C112.077 4.54666 112.343 4.33333 112.61 4.12C112.877 3.90667 113.157 3.73333 113.45 3.6C113.503 3.6 113.543 3.58667 113.57 3.56C113.837 3.34667 114.13 3.2 114.45 3.12C114.77 3.01333 115.09 2.92 115.41 2.84C116.69 2.46667 118.01 2.18667 119.37 2H119.77C120.037 2 120.29 2 120.53 2C120.77 2 121.023 1.98666 121.29 1.96C121.61 1.96 121.93 2 122.25 2.08C122.57 2.13333 122.877 2.22667 123.17 2.36C123.383 2.46667 123.597 2.58667 123.81 2.72C124.023 2.82667 124.223 2.94667 124.41 3.08C124.623 3.24 124.757 3.41333 124.81 3.6L124.93 3.88C125.063 4.12 125.13 4.37333 125.13 4.64C125.157 4.88 125.143 5.13333 125.09 5.4C125.09 5.48 125.077 5.57333 125.05 5.68C125.05 5.76 125.05 5.84 125.05 5.92C124.97 6.50666 124.69 6.96 124.21 7.28C123.917 7.54667 123.53 7.65333 123.05 7.6C122.943 7.54667 122.89 7.57333 122.89 7.68C122.89 7.78667 122.823 7.84 122.69 7.84H122.45C122.29 7.84 122.13 7.76 121.97 7.6C121.837 7.46667 121.77 7.36 121.77 7.28C121.77 7.17333 121.823 7.09333 121.93 7.04C121.877 6.90667 121.823 6.78667 121.77 6.68C121.717 6.57333 121.663 6.49333 121.61 6.44C121.53 6.30666 121.41 6.21333 121.25 6.16C121.117 6.13333 120.983 6.10667 120.85 6.08C120.717 6.05333 120.583 6.02667 120.45 6C120.343 6 120.223 6 120.09 6C119.957 5.97333 119.823 5.94667 119.69 5.92C119.61 5.89333 119.49 5.90667 119.33 5.96C119.25 5.98667 119.17 6.01333 119.09 6.04C119.01 6.04 118.917 6.02667 118.81 6C118.73 6 118.637 6 118.53 6C118.45 6 118.357 6.02667 118.25 6.08L117.49 6.2C117.063 6.28 116.65 6.44 116.25 6.68C116.17 6.70667 116.09 6.73333 116.01 6.76C115.93 6.78667 115.85 6.78667 115.77 6.76C115.61 6.73333 115.477 6.77333 115.37 6.88C115.343 6.93333 115.277 6.97333 115.17 7C115.09 7 115.023 7.02667 114.97 7.08C114.863 7.18667 114.81 7.29333 114.81 7.4C114.837 7.45333 114.85 7.53333 114.85 7.64L115.69 10.08C115.85 10.5067 116.05 10.9067 116.29 11.28C116.557 11.6267 116.837 11.9733 117.13 12.32C117.583 12.8533 118.05 13.3067 118.53 13.68L119.81 14.76C120.077 15 120.357 15.2267 120.65 15.44C120.943 15.6533 121.223 15.8667 121.49 16.08C121.89 16.3733 122.29 16.68 122.69 17C123.09 17.2933 123.49 17.6 123.89 17.92C124.21 18.1867 124.517 18.4533 124.81 18.72C125.13 18.96 125.423 19.2267 125.69 19.52C125.877 19.7333 126.063 19.9467 126.25 20.16C126.437 20.3733 126.597 20.6133 126.73 20.88C126.917 21.1733 127.077 21.52 127.21 21.92C127.37 22.4267 127.437 22.9067 127.41 23.36C127.383 23.4133 127.37 23.4933 127.37 23.6C127.37 23.92 127.33 24.2267 127.25 24.52C127.197 24.7867 127.103 25.0667 126.97 25.36C126.837 25.6267 126.69 25.9067 126.53 26.2C126.397 26.4667 126.237 26.7333 126.05 27C125.783 27.3467 125.503 27.68 125.21 28C124.943 28.2933 124.637 28.5867 124.29 28.88C124.103 29.04 123.917 29.2133 123.73 29.4C123.543 29.56 123.343 29.7067 123.13 29.84C122.997 29.9467 122.863 30.04 122.73 30.12C122.597 30.2267 122.463 30.3333 122.33 30.44C122.223 30.4933 122.117 30.56 122.01 30.64C121.903 30.72 121.797 30.8 121.69 30.88C121.583 30.9867 121.45 31.0667 121.29 31.12C121.157 31.2 121.023 31.2667 120.89 31.32L119.73 31.8C119.49 31.88 119.25 31.9333 119.01 31.96C118.77 31.9867 118.517 31.9867 118.25 31.96ZM137.613 29.96C137.56 29.9333 137.48 29.92 137.373 29.92C137.32 29.92 137.267 29.88 137.213 29.8C137.16 29.72 137.107 29.6533 137.053 29.6C137 29.52 136.947 29.4267 136.893 29.32C136.813 29.2133 136.747 29.2133 136.693 29.32H136.613C136.613 29.2933 136.6 29.28 136.573 29.28C136.573 29.2533 136.573 29.24 136.573 29.24C136.493 28.8667 136.373 28.52 136.213 28.2C136.133 27.9867 136.053 27.7733 135.973 27.56C135.92 27.32 135.88 27.08 135.853 26.84L135.613 25.08L135.493 23.64V23.56C135.44 23.24 135.413 22.92 135.413 22.6C135.413 22.2533 135.413 21.9067 135.413 21.56C135.387 21.3733 135.373 21.2 135.373 21.04C135.373 20.8533 135.36 20.6667 135.333 20.48C135.307 20.2667 135.28 20.0533 135.253 19.84C135.253 19.6267 135.253 19.4267 135.253 19.24L135.293 16.08V11.8C135.24 11.64 135.16 11.56 135.053 11.56C135 11.56 134.933 11.5733 134.853 11.6C134.8 11.6 134.747 11.6 134.693 11.6L132.893 12.08C132.653 12.16 132.413 12.24 132.173 12.32C131.933 12.3733 131.693 12.44 131.453 12.52C131.267 12.5467 131.08 12.5733 130.893 12.6C130.733 12.6 130.56 12.6 130.373 12.6C130.24 12.6 130.093 12.5467 129.933 12.44C129.747 12.36 129.587 12.2533 129.453 12.12C129.32 11.9867 129.187 11.84 129.053 11.68L128.973 11.56C128.92 11.3733 128.867 11.2 128.813 11.04C128.787 10.8533 128.787 10.6667 128.813 10.48C128.84 10.24 128.893 10.0133 128.973 9.8C129.08 9.58667 129.227 9.4 129.413 9.24C129.493 9.18667 129.56 9.12 129.613 9.04C129.693 8.96 129.773 8.88 129.853 8.8C129.96 8.74667 130.027 8.72 130.053 8.72C130.213 8.72 130.36 8.69333 130.493 8.64C130.627 8.56 130.76 8.50667 130.893 8.48C131.027 8.45333 131.16 8.42667 131.293 8.4C131.427 8.37333 131.56 8.34667 131.693 8.32C132.067 8.21333 132.44 8.12 132.813 8.04C133.187 7.93333 133.56 7.85333 133.933 7.8L136.093 7.44C136.147 7.41333 136.187 7.4 136.213 7.4C136.267 7.4 136.307 7.38667 136.333 7.36C136.493 7.30667 136.653 7.26667 136.813 7.24C136.973 7.21333 137.133 7.22667 137.293 7.28C137.347 7.30667 137.387 7.32 137.413 7.32C137.467 7.29333 137.507 7.28 137.533 7.28C137.987 7.22667 138.44 7.17333 138.893 7.12C139.347 7.06667 139.787 7 140.213 6.92C140.56 6.86666 140.907 6.81333 141.253 6.76C141.6 6.70667 141.947 6.66667 142.293 6.64C142.56 6.58667 142.827 6.54667 143.093 6.52C143.36 6.49333 143.627 6.46667 143.893 6.44C144.107 6.41333 144.32 6.38667 144.533 6.36C144.773 6.33333 145 6.30667 145.213 6.28C145.427 6.25333 145.627 6.25333 145.813 6.28C146.027 6.28 146.24 6.28 146.453 6.28C146.587 6.28 146.707 6.32 146.813 6.4C146.947 6.48 147.067 6.54667 147.173 6.6C147.28 6.68 147.427 6.81333 147.613 7C147.667 7.05333 147.72 7.17333 147.773 7.36C147.8 7.44 147.827 7.53333 147.853 7.64C147.88 7.72 147.907 7.81333 147.933 7.92C147.987 8.16 147.96 8.38667 147.853 8.6L147.613 9.16C147.587 9.24 147.547 9.32 147.493 9.4C147.467 9.45333 147.427 9.50667 147.373 9.56C147.32 9.61333 147.293 9.64 147.293 9.64C147.187 9.72 147.067 9.8 146.933 9.88C146.827 9.96 146.693 10.0133 146.533 10.04L144.813 10.16C144.653 10.16 144.493 10.1733 144.333 10.2C144.173 10.2 144 10.2133 143.813 10.24H143.613C143.187 10.2667 142.773 10.3067 142.373 10.36C141.973 10.4133 141.573 10.4667 141.173 10.52L139.573 10.76C139.493 10.76 139.44 10.7733 139.413 10.8C139.307 10.8 139.227 10.88 139.173 11.04V11.16C139.173 11.4267 139.173 11.6933 139.173 11.96C139.173 12.2 139.187 12.4533 139.213 12.72C139.293 13.0933 139.293 13.4667 139.213 13.84C139.187 13.92 139.16 14 139.133 14.08C139.133 14.1333 139.133 14.1867 139.133 14.24C139.16 14.56 139.133 14.9067 139.053 15.28C139.053 15.36 139.053 15.44 139.053 15.52C139.053 15.6 139.067 15.68 139.093 15.76C139.12 15.8667 139.133 15.9867 139.133 16.12C139.133 16.2533 139.133 16.3867 139.133 16.52V18.6C139.133 18.7067 139.12 18.84 139.093 19C139.093 19.1333 139.093 19.2667 139.093 19.4C139.093 19.5067 139.093 19.6267 139.093 19.76C139.12 19.8933 139.133 20.0267 139.133 20.16C139.133 20.3467 139.133 20.5333 139.133 20.72C139.16 20.9067 139.16 21.1067 139.133 21.32V22.56C139.133 22.5867 139.12 22.6133 139.093 22.64C139.093 22.6667 139.107 22.7067 139.133 22.76C139.16 23 139.173 23.2533 139.173 23.52C139.173 23.76 139.2 24 139.253 24.24C139.253 24.32 139.253 24.4 139.253 24.48C139.28 24.56 139.28 24.64 139.253 24.72C139.253 24.96 139.28 25.2133 139.333 25.48C139.387 25.72 139.427 25.96 139.453 26.2C139.507 26.4933 139.56 26.7867 139.613 27.08C139.693 27.3733 139.76 27.6667 139.813 27.96L139.933 28.52C139.933 28.6 139.893 28.6667 139.813 28.72C139.813 28.72 139.8 28.72 139.773 28.72C139.773 28.72 139.76 28.7333 139.733 28.76C139.6 28.8133 139.547 28.8933 139.573 29V29.2C139.573 29.2 139.56 29.2133 139.533 29.24C139.533 29.2667 139.52 29.28 139.493 29.28C139.36 29.28 139.253 29.3333 139.173 29.44C139.093 29.5467 139 29.64 138.893 29.72C138.813 29.7733 138.707 29.8267 138.573 29.88C138.227 30.0133 137.907 30.04 137.613 29.96Z" fill="white"/>
</svg>
