<svg width="670" height="335" viewBox="0 0 670 335" fill="none" xmlns="http://www.w3.org/2000/svg">
<rect width="670" height="335" fill="#353535"/>
<path d="M652.157 300.316L622.295 282.759L622.021 317.399L652.157 300.316Z" fill="white"/>
<path d="M447.55 294.1L444.35 282.2H465L455.65 317H453.7L448.5 297.65L443.3 317H441.35L432 282.2H433.9L442.3 313.55L447.55 294.1ZM462.6 284.05H446.75L449.45 294.1L454.7 313.55L462.6 284.05ZM471.012 295.75C471.012 293.15 471.662 290.733 472.962 288.5C474.262 286.267 476.012 284.5 478.212 283.2C480.445 281.9 482.878 281.25 485.512 281.25C488.145 281.25 490.562 281.9 492.762 283.2C494.995 284.5 496.762 286.267 498.062 288.5C499.362 290.733 500.012 293.15 500.012 295.75V303.45C500.012 306.05 499.362 308.467 498.062 310.7C496.762 312.933 494.995 314.7 492.762 316C490.562 317.3 488.145 317.95 485.512 317.95C482.878 317.95 480.445 317.3 478.212 316C476.012 314.7 474.262 312.933 472.962 310.7C471.662 308.467 471.012 306.05 471.012 303.45V295.75ZM480.112 303.45C480.112 305.05 480.612 306.417 481.612 307.55C482.612 308.683 483.912 309.25 485.512 309.25C487.078 309.25 488.362 308.683 489.362 307.55C490.362 306.417 490.862 305.05 490.862 303.45V295.7C490.862 294.067 490.362 292.7 489.362 291.6C488.362 290.5 487.078 289.95 485.512 289.95C483.912 289.95 482.612 290.5 481.612 291.6C480.612 292.7 480.112 294.067 480.112 295.7V303.45ZM530.073 283.35C532.073 284.283 533.64 285.667 534.773 287.5C535.94 289.333 536.523 291.367 536.523 293.6C536.523 296.2 535.723 298.533 534.123 300.6C532.557 302.633 530.54 303.983 528.073 304.65L536.923 317H534.723L526.173 305L524.573 305.05H512.023V317H510.173V282.2H523.423C524.89 282.2 526.14 282.3 527.173 282.5C528.24 282.667 529.207 282.95 530.073 283.35ZM525.073 303.2C526.807 303.2 528.407 302.767 529.873 301.9C531.34 301.033 532.507 299.867 533.373 298.4C534.24 296.933 534.673 295.333 534.673 293.6C534.673 291.667 534.157 289.917 533.123 288.35C532.123 286.783 530.723 285.617 528.923 284.85C527.623 284.317 525.79 284.05 523.423 284.05H512.023V303.2H525.073ZM560.035 296.7L574.535 317H546.535V282.2H574.535L560.035 296.7ZM558.735 298L548.385 308.35V315.15H570.985L558.735 298Z" fill="white"/>
</svg>
