<svg width="670" height="335" viewBox="0 0 670 335" fill="none" xmlns="http://www.w3.org/2000/svg">
<rect width="670" height="335" fill="#E56F6F"/>
<path d="M652.157 300.419L622.295 282.914L622.021 317.451L652.157 300.419Z" fill="white"/>
<path d="M348.25 284.485C346.017 284.485 343.933 285.051 342 286.185C340.1 287.285 338.583 288.801 337.45 290.735C336.317 292.635 335.75 294.718 335.75 296.985V303.585C335.75 305.951 336.083 307.901 336.75 309.435C337.683 311.601 339.1 313.368 341 314.735C342.9 316.101 345.033 316.868 347.4 317.035V300.785H362.65V304.085C362.65 306.218 362.333 308.118 361.7 309.785C360.667 312.551 358.933 314.768 356.5 316.435C354.067 318.101 351.317 318.935 348.25 318.935C345.35 318.935 342.7 318.151 340.3 316.585C337.933 314.985 336.2 312.868 335.1 310.235C334.3 308.368 333.9 306.151 333.9 303.585V296.985C333.9 294.385 334.533 291.985 335.8 289.785C337.1 287.585 338.85 285.851 341.05 284.585C343.25 283.285 345.65 282.635 348.25 282.635C350.417 282.635 352.4 283.001 354.2 283.735C356 284.435 357.533 285.468 358.8 286.835C359.833 287.968 360.667 289.235 361.3 290.635C361.967 292.035 362.3 293.451 362.3 294.885H360.5C360.467 293.651 360.15 292.435 359.55 291.235C358.983 290.035 358.25 288.951 357.35 287.985C355.117 285.651 352.083 284.485 348.25 284.485ZM360.8 302.585H349.2V317.035C351.6 316.868 353.75 316.118 355.65 314.785C357.583 313.418 359 311.618 359.9 309.385C360.5 307.818 360.8 306.051 360.8 304.085V302.585ZM384.562 283.385H386.512L400.812 318.185H398.812L394.112 306.685H376.962L372.212 318.185H370.262L384.562 283.385ZM377.712 304.885H393.362L385.512 285.785L377.712 304.885ZM437.723 309.335V318.185H411.223V283.385H413.073V309.335H437.723ZM474.735 309.335V318.185H448.235V283.385H450.085V309.335H474.735ZM484.547 283.385H509.047V285.235H486.397V299.335H506.097V301.185H486.397V316.335H509.047V318.185H484.547V283.385ZM541.109 284.535C543.109 285.468 544.675 286.851 545.809 288.685C546.975 290.518 547.559 292.551 547.559 294.785C547.559 297.385 546.759 299.718 545.159 301.785C543.592 303.818 541.575 305.168 539.109 305.835L547.959 318.185H545.759L537.209 306.185L535.609 306.235H523.059V318.185H521.209V283.385H534.459C535.925 283.385 537.175 283.485 538.209 283.685C539.275 283.851 540.242 284.135 541.109 284.535ZM536.109 304.385C537.842 304.385 539.442 303.951 540.909 303.085C542.375 302.218 543.542 301.051 544.409 299.585C545.275 298.118 545.709 296.518 545.709 294.785C545.709 292.851 545.192 291.101 544.159 289.535C543.159 287.968 541.759 286.801 539.959 286.035C538.659 285.501 536.825 285.235 534.459 285.235H523.059V304.385H536.109ZM555.72 283.385H585.42L571.52 303.935V318.185H569.67V303.935L555.72 283.385Z" fill="white"/>
</svg>
