<svg width="373" height="56" viewBox="0 0 373 56" fill="none" xmlns="http://www.w3.org/2000/svg">
<path d="M0 36V0.599998H1.8V36H0ZM3.6 36V0.599998H5.4V36H3.6ZM7.2 36V0.599998H12.6V36H7.2ZM14.4 36V0.599998H19.8V36H14.4ZM25.2 36V0.599998H27V36H25.2ZM13.44 42.6H9.54V41.22H19.14V42.6H15.06V55.14H13.44V42.6ZM28.8281 36V0.599998H34.2281V36H28.8281ZM36.0281 36V0.599998H37.8281V36H36.0281ZM39.6281 36V0.599998H41.4281V36H39.6281ZM46.8281 36V0.599998H52.2281V36H46.8281ZM54.0281 36V0.599998H55.8281V36H54.0281ZM38.7881 41.22H40.5881V41.4C40.5081 41.48 40.4481 41.58 40.4081 41.7C40.4081 41.78 40.4081 41.96 40.4081 42.24V47.16H45.8081V41.22H47.6681V41.4C47.5881 41.48 47.5281 41.58 47.4881 41.7C47.4881 41.78 47.4881 41.96 47.4881 42.24V55.14H45.8081V48.54H40.4081V55.14H38.7881V41.22ZM57.6562 36V0.599998H59.4563V36H57.6562ZM61.2563 36V0.599998H66.6563V36H61.2563ZM68.4563 36V0.599998H70.2563V36H68.4563ZM75.6563 36V0.599998H81.0563V36H75.6563ZM82.8563 36V0.599998H84.6563V36H82.8563ZM68.2763 53.82H71.0363V42.54H68.4563V41.22H75.3563V42.54H72.5963V53.82H75.4763V55.14H68.2763V53.82ZM86.4844 36V0.599998H91.8844V36H86.4844ZM93.6844 36V0.599998H95.4844V36H93.6844ZM97.2844 36V0.599998H99.0844V36H97.2844ZM104.484 36V0.599998H106.284V36H104.484ZM108.084 36V0.599998H113.484V36H108.084ZM103.104 51.06H98.6044L97.2244 55.14H95.6644L100.764 40.98H100.944L106.104 55.14H104.484L103.104 51.06ZM102.684 49.86L100.884 44.58L99.0244 49.86H102.684ZM115.312 36V0.599998H117.113V36H115.312ZM118.913 36V0.599998H120.713V36H118.913ZM122.513 36V0.599998H124.313V36H122.513ZM129.713 36V0.599998H135.113V36H129.713ZM136.913 36V0.599998H142.313V36H136.913ZM130.312 55.38C129.193 55.38 128.233 55.08 127.433 54.48C126.633 53.92 126.013 53.1 125.573 52.02C125.133 50.98 124.913 49.76 124.913 48.36C124.913 46.52 125.193 45.06 125.753 43.98C126.313 42.9 126.993 42.14 127.793 41.7C128.593 41.3 129.393 41.1 130.193 41.1C131.033 41.1 131.833 41.32 132.593 41.76C133.393 42.16 133.973 42.72 134.333 43.44L133.253 44.28L133.073 44.46L133.013 44.34C133.013 44.22 132.993 44.1 132.952 43.98C132.873 43.9 132.753 43.76 132.593 43.56C132.233 43.16 131.873 42.88 131.513 42.72C131.153 42.56 130.713 42.48 130.193 42.48C129.113 42.48 128.213 42.9 127.493 43.74C126.813 44.62 126.473 46.04 126.473 48C126.473 49.92 126.813 51.4 127.493 52.44C128.173 53.48 129.113 54 130.312 54C130.753 54 131.213 53.92 131.693 53.76C132.213 53.64 132.633 53.44 132.952 53.16V49.86H130.433V48.48H134.393V53.94C133.073 54.9 131.713 55.38 130.312 55.38ZM144.141 36V0.599998H149.541V36H144.141ZM151.341 36V0.599998H153.141V36H151.341ZM154.941 36V0.599998H160.341V36H154.941ZM162.141 36V0.599998H163.941V36H162.141ZM169.341 36V0.599998H171.141V36H169.341ZM158.541 55.38C156.941 55.38 155.721 54.76 154.881 53.52C154.001 52.28 153.561 50.52 153.561 48.24C153.561 46.04 154.001 44.3 154.881 43.02C155.761 41.78 156.981 41.16 158.541 41.16C160.101 41.16 161.321 41.78 162.201 43.02C163.081 44.3 163.521 46.04 163.521 48.24C163.521 50.52 163.081 52.28 162.201 53.52C161.361 54.76 160.141 55.38 158.541 55.38ZM158.541 54C159.621 54 160.441 53.52 161.001 52.56C161.601 51.56 161.901 50.12 161.901 48.24C161.901 46.48 161.601 45.08 161.001 44.04C160.401 43.04 159.581 42.54 158.541 42.54C157.501 42.54 156.681 43.04 156.081 44.04C155.481 45.08 155.181 46.48 155.181 48.24C155.181 50.12 155.461 51.56 156.021 52.56C156.621 53.52 157.461 54 158.541 54ZM172.969 36V0.599998H174.769V36H172.969ZM180.169 36V0.599998H185.569V36H180.169ZM187.369 36V0.599998H189.169V36H187.369ZM190.969 36V0.599998H196.369V36H190.969ZM198.169 36V0.599998H199.969V36H198.169ZM201.797 36V0.599998H203.597V36H201.797ZM205.397 36V0.599998H210.797V36H205.397ZM212.597 36V0.599998H214.397V36H212.597ZM216.197 36V0.599998H221.597V36H216.197ZM226.997 36V0.599998H228.797V36H226.997ZM216.137 55.38C214.337 55.38 212.877 54.78 211.757 53.58L212.597 52.2L212.657 52.02L212.837 52.08C212.837 52.12 212.857 52.2 212.897 52.32C212.897 52.4 212.937 52.5 213.017 52.62C213.057 52.7 213.137 52.78 213.257 52.86C214.097 53.58 215.137 53.94 216.377 53.94C217.177 53.94 217.857 53.72 218.417 53.28C218.977 52.8 219.257 52.24 219.257 51.6C219.257 51.16 219.157 50.78 218.957 50.46C218.797 50.18 218.497 49.9 218.057 49.62C217.617 49.34 216.937 49 216.017 48.6C214.657 48.08 213.677 47.48 213.077 46.8C212.517 46.12 212.237 45.36 212.237 44.52C212.237 43.48 212.617 42.64 213.377 42C214.137 41.36 215.157 41.04 216.437 41.04C217.197 41.04 217.917 41.2 218.597 41.52C219.237 41.84 219.817 42.26 220.337 42.78L219.317 44.16L219.197 44.04C219.197 44 219.177 43.94 219.137 43.86C219.137 43.74 219.097 43.64 219.017 43.56C218.977 43.44 218.897 43.34 218.777 43.26C218.457 42.94 218.077 42.7 217.637 42.54C217.237 42.42 216.757 42.36 216.197 42.36C215.477 42.36 214.917 42.56 214.517 42.96C214.077 43.36 213.857 43.84 213.857 44.4C213.857 44.84 213.937 45.22 214.097 45.54C214.297 45.86 214.637 46.16 215.117 46.44C215.597 46.76 216.317 47.1 217.277 47.46C218.597 48.02 219.517 48.58 220.037 49.14C220.517 49.74 220.757 50.48 220.757 51.36C220.757 52.04 220.597 52.68 220.277 53.28C219.917 53.88 219.397 54.38 218.717 54.78C217.997 55.18 217.137 55.38 216.137 55.38ZM230.625 36V0.599998H236.025V36H230.625ZM237.825 36V0.599998H239.625V36H237.825ZM241.425 36V0.599998H243.225V36H241.425ZM248.625 36V0.599998H254.025V36H248.625ZM255.825 36V0.599998H257.625V36H255.825ZM240.585 41.22H242.385V41.4C242.305 41.48 242.245 41.58 242.205 41.7C242.205 41.78 242.205 41.96 242.205 42.24V47.16H247.605V41.22H249.465V41.4C249.385 41.48 249.325 41.58 249.285 41.7C249.285 41.78 249.285 41.96 249.285 42.24V55.14H247.605V48.54H242.205V55.14H240.585V41.22ZM259.453 36V0.599998H261.253V36H259.453ZM263.053 36V0.599998H268.453V36H263.053ZM270.253 36V0.599998H272.053V36H270.253ZM277.453 36V0.599998H282.853V36H277.453ZM284.653 36V0.599998H286.453V36H284.653ZM270.073 53.82H272.833V42.54H270.253V41.22H277.153V42.54H274.393V53.82H277.273V55.14H270.073V53.82ZM288.281 36V0.599998H290.081V36H288.281ZM291.881 36V0.599998H293.681V36H291.881ZM295.481 36V0.599998H300.881V36H295.481ZM302.681 36V0.599998H304.481V36H302.681ZM309.881 36V0.599998H315.281V36H309.881ZM298.241 41.22H299.741L305.561 51.54V41.22H307.301V41.4C307.181 41.48 307.121 41.58 307.121 41.7C307.081 41.78 307.061 41.96 307.061 42.24V55.14H305.861L299.681 44.22V55.14H298.241V41.22ZM317.109 36V0.599998H318.909V36H317.109ZM320.709 36V0.599998H322.509V36H320.709ZM324.309 36V0.599998H329.709V36H324.309ZM335.109 36V0.599998H340.509V36H335.109ZM342.309 36V0.599998H344.109V36H342.309ZM330.369 55.38C328.969 55.38 327.849 54.86 327.009 53.82L327.909 52.74L328.089 52.56L328.209 52.62C328.209 52.78 328.229 52.92 328.269 53.04C328.349 53.12 328.469 53.24 328.629 53.4C329.149 53.8 329.709 54 330.309 54C331.069 54 331.609 53.74 331.929 53.22C332.289 52.7 332.469 51.8 332.469 50.52V42.54H329.769V41.22H336.129V42.54H333.969V50.46C334.009 51.62 333.869 52.56 333.549 53.28C333.229 54 332.789 54.54 332.229 54.9C331.669 55.22 331.049 55.38 330.369 55.38ZM345.938 36V0.599998H347.738V36H345.938ZM349.538 36V0.599998H354.938V36H349.538ZM356.738 36V0.599998H358.538V36H356.738ZM363.938 36V0.599998H369.338V36H363.938ZM371.138 36V0.599998H372.938V36H371.138ZM356.558 53.82H359.318V42.54H356.738V41.22H363.638V42.54H360.878V53.82H363.758V55.14H356.558V53.82Z" fill="black"/>
</svg>
